Kanz-al-Marjaan-Regular.ufo
<glyph name="percent" format="2">
  <advance width="1265"/>
  <unicode hex="0025"/>
  <outline>
    <contour>
      <point x="88" y="996" type="line" smooth="yes"/>
      <point x="88" y="1102"/>
      <point x="226" y="1251"/>
      <point x="342" y="1251" type="qcurve" smooth="yes"/>
      <point x="459" y="1251"/>
      <point x="597" y="1104"/>
      <point x="597" y="996" type="qcurve" smooth="yes"/>
      <point x="597" y="932" type="line" smooth="yes"/>
      <point x="597" y="824"/>
      <point x="459" y="679"/>
      <point x="345" y="679" type="qcurve" smooth="yes"/>
      <point x="228" y="679"/>
      <point x="88" y="825"/>
      <point x="88" y="932" type="qcurve" smooth="yes"/>
    </contour>
    <contour>
      <point x="212" y="932" type="line" smooth="yes"/>
      <point x="212" y="869"/>
      <point x="280" y="783"/>
      <point x="343" y="783" type="qcurve" smooth="yes"/>
      <point x="405" y="783"/>
      <point x="473" y="868"/>
      <point x="473" y="932" type="qcurve" smooth="yes"/>
      <point x="473" y="996" type="line" smooth="yes"/>
      <point x="473" y="1057"/>
      <point x="405" y="1147"/>
      <point x="342" y="1147" type="qcurve" smooth="yes"/>
      <point x="279" y="1147"/>
      <point x="212" y="1058"/>
      <point x="212" y="996" type="qcurve" smooth="yes"/>
    </contour>
    <contour>
      <point x="683" y="305" type="line" smooth="yes"/>
      <point x="683" y="413"/>
      <point x="823" y="559"/>
      <point x="940" y="559" type="qcurve" smooth="yes"/>
      <point x="1055" y="559"/>
      <point x="1193" y="412"/>
      <point x="1193" y="305" type="qcurve" smooth="yes"/>
      <point x="1193" y="239" type="line" smooth="yes"/>
      <point x="1193" y="131"/>
      <point x="1055" y="-15"/>
      <point x="941" y="-15" type="qcurve" smooth="yes"/>
      <point x="825" y="-15"/>
      <point x="683" y="131"/>
      <point x="683" y="239" type="qcurve" smooth="yes"/>
    </contour>
    <contour>
      <point x="807" y="239" type="line" smooth="yes"/>
      <point x="807" y="176"/>
      <point x="877" y="89"/>
      <point x="940" y="89" type="qcurve" smooth="yes"/>
      <point x="1002" y="89"/>
      <point x="1069" y="176"/>
      <point x="1069" y="239" type="qcurve" smooth="yes"/>
      <point x="1069" y="305" type="line" smooth="yes"/>
      <point x="1069" y="368"/>
      <point x="1001" y="455"/>
      <point x="940" y="455" type="qcurve" smooth="yes"/>
      <point x="877" y="455"/>
      <point x="807" y="368"/>
      <point x="807" y="305" type="qcurve" smooth="yes"/>
    </contour>
    <contour>
      <point x="387" y="98" type="line"/>
      <point x="296" y="154" type="line"/>
      <point x="896" y="1113" type="line"/>
      <point x="988" y="1056" type="line"/>
    </contour>
  </outline>
</glyph>
<glyph name="A" format="2">
  <advance width="1094"/>
  <unicode hex="0041"/>
  <outline>
    <contour>
      <point x="780" y="317" type="line"/>
      <point x="316" y="317" type="line"/>
      <point x="206" y="0" type="line"/>
      <point x="36" y="0" type="line"/>
      <point x="479" y="1230" type="line"/>
      <point x="623" y="1230" type="line"/>
      <point x="1057" y="0" type="line"/>
      <point x="887" y="0" type="line"/>
    </contour>
    <contour>
      <point x="365" y="456" type="line"/>
      <point x="732" y="456" type="line"/>
      <point x="552" y="984" type="line"/>
      <point x="547" y="984" type="line"/>
    </contour>
  </outline>
</glyph>
<glyph name="B" format="2">
  <advance width="1099"/>
  <unicode hex="0042"/>
  <outline>
    <contour>
      <point x="144" y="0" type="line"/>
      <point x="144" y="1230" type="line"/>
      <point x="545" y="1230" type="line" smooth="yes"/>
      <point x="736" y="1230"/>
      <point x="956" y="1063"/>
      <point x="956" y="898" type="qcurve" smooth="yes"/>
      <point x="956" y="817"/>
      <point x="857" y="692"/>
      <point x="775" y="659" type="qcurve"/>
      <point x="898" y="642"/>
      <point x="1038" y="468"/>
      <point x="1038" y="341" type="qcurve" smooth="yes"/>
      <point x="1038" y="180"/>
      <point x="818" y="0"/>
      <point x="631" y="0" type="qcurve" smooth="yes"/>
    </contour>
    <contour>
      <point x="311" y="577" type="line"/>
      <point x="311" y="131" type="line"/>
      <point x="631" y="131" type="line" smooth="yes"/>
      <point x="746" y="131"/>
      <point x="871" y="242"/>
      <point x="871" y="345" type="qcurve" smooth="yes"/>
      <point x="871" y="448"/>
      <point x="742" y="577"/>
      <point x="634" y="577" type="qcurve" smooth="yes"/>
    </contour>
    <contour>
      <point x="311" y="708" type="line"/>
      <point x="580" y="708" type="line" smooth="yes"/>
      <point x="672" y="708"/>
      <point x="789" y="809"/>
      <point x="789" y="902" type="qcurve" smooth="yes"/>
      <point x="789" y="1001"/>
      <point x="664" y="1099"/>
      <point x="545" y="1099" type="qcurve" smooth="yes"/>
      <point x="311" y="1099" type="line"/>
    </contour>
  </outline>
</glyph>
<glyph name="D" format="2">
  <advance width="1171"/>
  <unicode hex="0044"/>
  <outline>
    <contour>
      <point x="144" y="0" type="line"/>
      <point x="144" y="1230" type="line"/>
      <point x="530" y="1230" type="line" smooth="yes"/>
      <point x="770" y="1230"/>
      <point x="1064" y="934"/>
      <point x="1064" y="698" type="qcurve" smooth="yes"/>
      <point x="1064" y="531" type="line" smooth="yes"/>
      <point x="1064" y="296"/>
      <point x="770" y="0"/>
      <point x="530" y="0" type="qcurve" smooth="yes"/>
    </contour>
    <contour>
      <point x="310" y="1099" type="line"/>
      <point x="310" y="131" type="line"/>
      <point x="530" y="131" type="line" smooth="yes"/>
      <point x="701" y="131"/>
      <point x="898" y="356"/>
      <point x="898" y="531" type="qcurve" smooth="yes"/>
      <point x="898" y="700" type="line" smooth="yes"/>
      <point x="898" y="876"/>
      <point x="701" y="1099"/>
      <point x="530" y="1099" type="qcurve" smooth="yes"/>
    </contour>
  </outline>
</glyph>
<glyph name="E" format="2">
  <advance width="953"/>
  <unicode hex="0045"/>
  <outline>
    <contour>
      <point x="815" y="570" type="line"/>
      <point x="310" y="570" type="line"/>
      <point x="310" y="131" type="line"/>
      <point x="901" y="131" type="line"/>
      <point x="901" y="0" type="line"/>
      <point x="144" y="0" type="line"/>
      <point x="144" y="1230" type="line"/>
      <point x="893" y="1230" type="line"/>
      <point x="893" y="1099" type="line"/>
      <point x="310" y="1099" type="line"/>
      <point x="310" y="701" type="line"/>
      <point x="815" y="701" type="line"/>
    </contour>
  </outline>
</glyph>
<glyph name="I" format="2">
  <advance width="488"/>
  <unicode hex="0049"/>
  <outline>
    <contour>
      <point x="328" y="0" type="line"/>
      <point x="161" y="0" type="line"/>
      <point x="161" y="1230" type="line"/>
      <point x="328" y="1230" type="line"/>
    </contour>
  </outline>
</glyph>
<glyph name="J" format="2">
  <advance width="947"/>
  <unicode hex="004A"/>
  <outline>
    <contour>
      <point x="640" y="1233" type="line"/>
      <point x="808" y="1233" type="line"/>
      <point x="808" y="361" type="line" smooth="yes"/>
      <point x="808" y="188"/>
      <point x="598" y="-15"/>
      <point x="426" y="-15" type="qcurve" smooth="yes"/>
      <point x="262" y="-15"/>
      <point x="66" y="165"/>
      <point x="66" y="337" type="qcurve"/>
      <point x="68" y="341" type="line"/>
      <point x="228" y="341" type="line"/>
      <point x="228" y="226"/>
      <point x="334" y="116"/>
      <point x="426" y="116" type="qcurve" smooth="yes"/>
      <point x="525" y="116"/>
      <point x="640" y="249"/>
      <point x="640" y="361" type="qcurve" smooth="yes"/>
    </contour>
  </outline>
</glyph>
<glyph name="M" format="2">
  <advance width="1501"/>
  <unicode hex="004D"/>
  <outline>
    <contour>
      <point x="753" y="230" type="line"/>
      <point x="757" y="230" type="line"/>
      <point x="1150" y="1230" type="line"/>
      <point x="1358" y="1230" type="line"/>
      <point x="1358" y="0" type="line"/>
      <point x="1192" y="0" type="line"/>
      <point x="1192" y="922" type="line"/>
      <point x="1186" y="923" type="line"/>
      <point x="813" y="0" type="line"/>
      <point x="698" y="0" type="line"/>
      <point x="314" y="953" type="line"/>
      <point x="310" y="953" type="line"/>
      <point x="310" y="0" type="line"/>
      <point x="144" y="0" type="line"/>
      <point x="144" y="1230" type="line"/>
      <point x="362" y="1230" type="line"/>
    </contour>
  </outline>
</glyph>
<glyph name="S" format="2">
  <advance width="1058"/>
  <unicode hex="0053"/>
  <outline>
    <contour>
      <point x="797" y="397"/>
      <point x="680" y="511"/>
      <point x="527" y="550" type="qcurve" smooth="yes"/>
      <point x="340" y="598"/>
      <point x="129" y="777"/>
      <point x="129" y="913" type="qcurve" smooth="yes"/>
      <point x="129" y="1057"/>
      <point x="357" y="1251"/>
      <point x="537" y="1251" type="qcurve" smooth="yes"/>
      <point x="732" y="1251"/>
      <point x="958" y="1030"/>
      <point x="958" y="884" type="qcurve"/>
      <point x="957" y="879" type="line"/>
      <point x="798" y="879" type="line"/>
      <point x="798" y="983"/>
      <point x="651" y="1120"/>
      <point x="531" y="1120" type="qcurve" smooth="yes"/>
      <point x="420" y="1120"/>
      <point x="296" y="1006"/>
      <point x="296" y="922" type="qcurve" smooth="yes"/>
      <point x="296" y="836"/>
      <point x="433" y="728"/>
      <point x="576" y="690" type="qcurve" smooth="yes"/>
      <point x="770" y="638"/>
      <point x="964" y="453"/>
      <point x="964" y="314" type="qcurve" smooth="yes"/>
      <point x="964" y="165"/>
      <point x="732" y="-15"/>
      <point x="552" y="-15" type="qcurve" smooth="yes"/>
      <point x="366" y="-15"/>
      <point x="96" y="184"/>
      <point x="96" y="351" type="qcurve"/>
      <point x="98" y="357" type="line"/>
      <point x="256" y="357" type="line"/>
      <point x="256" y="242"/>
      <point x="433" y="116"/>
      <point x="551" y="116" type="qcurve" smooth="yes"/>
      <point x="661" y="116"/>
      <point x="797" y="221"/>
      <point x="797" y="313" type="qcurve" smooth="yes"/>
    </contour>
  </outline>
</glyph>
<glyph name="T" format="2">
  <advance width="1034"/>
  <unicode hex="0054"/>
  <outline>
    <contour>
      <point x="1003" y="1099" type="line"/>
      <point x="597" y="1099" type="line"/>
      <point x="597" y="0" type="line"/>
      <point x="432" y="0" type="line"/>
      <point x="432" y="1099" type="line"/>
      <point x="31" y="1099" type="line"/>
      <point x="31" y="1230" type="line"/>
      <point x="1003" y="1230" type="line"/>
    </contour>
  </outline>
</glyph>
<glyph name="Y" format="2">
  <advance width="1094"/>
  <unicode hex="0059"/>
  <outline>
    <contour>
      <point x="545" y="605" type="line"/>
      <point x="867" y="1230" type="line"/>
      <point x="1056" y="1230" type="line"/>
      <point x="624" y="433" type="line"/>
      <point x="624" y="0" type="line"/>
      <point x="459" y="0" type="line"/>
      <point x="459" y="445" type="line"/>
      <point x="34" y="1230" type="line"/>
      <point x="224" y="1230" type="line"/>
    </contour>
  </outline>
</glyph>
<glyph name="asciicircum" format="2">
  <advance width="723"/>
  <unicode hex="005E"/>
  <outline>
    <contour>
      <point x="207" y="513" type="line"/>
      <point x="52" y="513" type="line"/>
      <point x="305" y="1127" type="line"/>
      <point x="418" y="1127" type="line"/>
      <point x="670" y="513" type="line"/>
      <point x="516" y="513" type="line"/>
      <point x="377" y="867" type="line"/>
      <point x="363" y="926" type="line"/>
      <point x="358" y="926" type="line"/>
      <point x="345" y="867" type="line"/>
    </contour>
  </outline>
</glyph>
<glyph name="h" format="2">
  <advance width="981"/>
  <unicode hex="0068"/>
  <outline>
    <contour>
      <point x="287" y="792" type="line"/>
      <point x="335" y="857"/>
      <point x="473" y="931"/>
      <point x="563" y="931" type="qcurve" smooth="yes"/>
      <point x="703" y="931"/>
      <point x="865" y="756"/>
      <point x="865" y="572" type="qcurve" smooth="yes"/>
      <point x="865" y="0" type="line"/>
      <point x="698" y="0" type="line"/>
      <point x="698" y="574" type="line" smooth="yes"/>
      <point x="698" y="686"/>
      <point x="602" y="796"/>
      <point x="504" y="796" type="qcurve" smooth="yes"/>
      <point x="431" y="796"/>
      <point x="320" y="737"/>
      <point x="287" y="685" type="qcurve"/>
      <point x="287" y="0" type="line"/>
      <point x="120" y="0" type="line"/>
      <point x="120" y="1318" type="line"/>
      <point x="287" y="1318" type="line"/>
    </contour>
  </outline>
</glyph>
<glyph name="i" format="2">
  <advance width="434"/>
  <unicode hex="0069"/>
  <outline>
    <contour>
      <point x="300" y="0" type="line"/>
      <point x="134" y="0" type="line"/>
      <point x="134" y="914" type="line"/>
      <point x="300" y="914" type="line"/>
    </contour>
    <contour>
      <point x="300" y="1148" type="line"/>
      <point x="134" y="1148" type="line"/>
      <point x="134" y="1318" type="line"/>
      <point x="300" y="1318" type="line"/>
    </contour>
  </outline>
</glyph>
<glyph name="l" format="2">
  <advance width="434"/>
  <unicode hex="006C"/>
  <outline>
    <contour>
      <point x="300" y="0" type="line"/>
      <point x="134" y="0" type="line"/>
      <point x="134" y="1318" type="line"/>
      <point x="300" y="1318" type="line"/>
    </contour>
  </outline>
</glyph>
<glyph name="m" format="2">
  <advance width="1512"/>
  <unicode hex="006D"/>
  <outline>
    <contour>
      <point x="269" y="914" type="line"/>
      <point x="281" y="794" type="line"/>
      <point x="326" y="859"/>
      <point x="463" y="931"/>
      <point x="646" y="931"/>
      <point x="778" y="847"/>
      <point x="810" y="762" type="qcurve"/>
      <point x="853" y="841"/>
      <point x="995" y="931"/>
      <point x="1090" y="931" type="qcurve" smooth="yes"/>
      <point x="1229" y="931"/>
      <point x="1392" y="739"/>
      <point x="1392" y="547" type="qcurve" smooth="yes"/>
      <point x="1392" y="0" type="line"/>
      <point x="1225" y="0" type="line"/>
      <point x="1225" y="548" type="line" smooth="yes"/>
      <point x="1225" y="684"/>
      <point x="1132" y="796"/>
      <point x="1043" y="796" type="qcurve" smooth="yes"/>
      <point x="953" y="796"/>
      <point x="848" y="678"/>
      <point x="840" y="588" type="qcurve"/>
      <point x="840" y="0" type="line"/>
      <point x="673" y="0" type="line"/>
      <point x="673" y="548" type="line" smooth="yes"/>
      <point x="673" y="677"/>
      <point x="577" y="796"/>
      <point x="482" y="796" type="qcurve" smooth="yes"/>
      <point x="412" y="796"/>
      <point x="314" y="732"/>
      <point x="287" y="677" type="qcurve"/>
      <point x="287" y="0" type="line"/>
      <point x="120" y="0" type="line"/>
      <point x="120" y="914" type="line"/>
    </contour>
  </outline>
</glyph>
<glyph name="q" format="2">
  <advance width="981"/>
  <unicode hex="0071"/>
  <outline>
    <contour>
      <point x="83" y="500" type="line" smooth="yes"/>
      <point x="83" y="721"/>
      <point x="271" y="990"/>
      <point x="441" y="990" type="qcurve" smooth="yes"/>
      <point x="523" y="990"/>
      <point x="652" y="926"/>
      <point x="696" y="867" type="qcurve"/>
      <point x="720" y="973" type="line"/>
      <point x="847" y="973" type="line"/>
      <point x="847" y="-293" type="line"/>
      <point x="680" y="-293" type="line"/>
      <point x="680" y="146" type="line"/>
      <point x="637" y="94"/>
      <point x="516" y="41"/>
      <point x="439" y="41" type="qcurve" smooth="yes"/>
      <point x="273" y="41"/>
      <point x="83" y="284"/>
      <point x="83" y="482" type="qcurve" smooth="yes"/>
    </contour>
    <contour>
      <point x="250" y="482" type="line" smooth="yes"/>
      <point x="250" y="344"/>
      <point x="363" y="172"/>
      <point x="482" y="172" type="qcurve" smooth="yes"/>
      <point x="551" y="172"/>
      <point x="648" y="232"/>
      <point x="680" y="288" type="qcurve"/>
      <point x="680" y="747" type="line"/>
      <point x="648" y="800"/>
      <point x="551" y="859"/>
      <point x="485" y="859" type="qcurve" smooth="yes"/>
      <point x="366" y="859"/>
      <point x="250" y="657"/>
      <point x="250" y="500" type="qcurve" smooth="yes"/>
    </contour>
  </outline>
</glyph>
<glyph name="s" format="2">
  <advance width="904"/>
  <unicode hex="0073"/>
  <outline>
    <contour>
      <point x="651" y="303"/>
      <point x="568" y="373"/>
      <point x="448" y="400" type="qcurve" smooth="yes"/>
      <point x="290" y="434"/>
      <point x="117" y="559"/>
      <point x="117" y="664" type="qcurve" smooth="yes"/>
      <point x="117" y="773"/>
      <point x="307" y="934"/>
      <point x="458" y="934" type="qcurve" smooth="yes"/>
      <point x="614" y="934"/>
      <point x="806" y="765"/>
      <point x="802" y="652" type="qcurve"/>
      <point x="800" y="647" type="line"/>
      <point x="642" y="647" type="line"/>
      <point x="642" y="706"/>
      <point x="538" y="803"/>
      <point x="450" y="803" type="qcurve" smooth="yes"/>
      <point x="369" y="803"/>
      <point x="284" y="723"/>
      <point x="284" y="668" type="qcurve" smooth="yes"/>
      <point x="284" y="615"/>
      <point x="359" y="555"/>
      <point x="475" y="531" type="qcurve" smooth="yes"/>
      <point x="644" y="495"/>
      <point x="818" y="365"/>
      <point x="818" y="257" type="qcurve" smooth="yes"/>
      <point x="818" y="140"/>
      <point x="621" y="-15"/>
      <point x="461" y="-15" type="qcurve" smooth="yes"/>
      <point x="288" y="-15"/>
      <point x="86" y="163"/>
      <point x="92" y="280" type="qcurve"/>
      <point x="93" y="286" type="line"/>
      <point x="252" y="286" type="line"/>
      <point x="256" y="197"/>
      <point x="380" y="116"/>
      <point x="465" y="116" type="qcurve" smooth="yes"/>
      <point x="550" y="116"/>
      <point x="651" y="191"/>
      <point x="651" y="249" type="qcurve" smooth="yes"/>
    </contour>
  </outline>
</glyph>
<glyph name="z" format="2">
  <advance width="869"/>
  <unicode hex="007A"/>
  <outline>
    <contour>
      <point x="277" y="132" type="line"/>
      <point x="805" y="132" type="line"/>
      <point x="805" y="0" type="line"/>
      <point x="79" y="0" type="line"/>
      <point x="79" y="118" type="line"/>
      <point x="573" y="782" type="line"/>
      <point x="85" y="782" type="line"/>
      <point x="85" y="914" type="line"/>
      <point x="777" y="914" type="line"/>
      <point x="777" y="800" type="line"/>
    </contour>
  </outline>
</glyph>
<glyph name="uni0644" format="2">
  <advance width="950"/>
  <unicode hex="0644"/>
  <anchor x="314" y="1285" name="t.uni064B"/>
  <anchor x="385" y="-343" name="b.uni064D_1"/>
  <outline>
    <contour>
      <point x="808" y="1447" type="line"/>
      <point x="812" y="1447" type="line"/>
      <point x="884" y="466"/>
      <point x="912" y="219" type="qcurve"/>
      <point x="912" y="171" type="line" smooth="yes"/>
      <point x="912" y="-95"/>
      <point x="665" y="-240" type="qcurve" smooth="yes"/>
      <point x="530" y="-317"/>
      <point x="400" y="-317" type="qcurve" smooth="yes"/>
      <point x="396" y="-317" type="line" smooth="yes"/>
      <point x="161" y="-317"/>
      <point x="60" y="-73" type="qcurve"/>
      <point x="44" y="12"/>
      <point x="44" y="43" type="qcurve" smooth="yes"/>
      <point x="44" y="195"/>
      <point x="148" y="351" type="qcurve"/>
      <point x="156" y="351" type="line"/>
      <point x="164" y="349"/>
      <point x="164" y="343" type="qcurve"/>
      <point x="120" y="211" type="line"/>
      <point x="120" y="174"/>
      <point x="116" y="155" type="qcurve"/>
      <point x="116" y="-20"/>
      <point x="327" y="-121" type="qcurve"/>
      <point x="409" y="-145"/>
      <point x="447" y="-145" type="qcurve" smooth="yes"/>
      <point x="500" y="-145" type="line" smooth="yes"/>
      <point x="656" y="-145"/>
      <point x="816" y="-1" type="qcurve"/>
      <point x="736" y="886"/>
      <point x="703" y="1307" type="qcurve"/>
      <point x="709" y="1307"/>
      <point x="792" y="1430" type="qcurve"/>
    </contour>
  </outline>
</glyph>
<glyph name="uni0646" format="2">
  <advance width="1101"/>
  <unicode hex="0646"/>
  <anchor x="385" y="1413" name="t.uni064B"/>
  <anchor x="385" y="-500" name="b.uni064D_1"/>
  <outline>
    <contour>
      <point x="521" y="1020"/>
      <point x="568" y="967"/>
      <point x="624" y="921" type="qcurve"/>
      <point x="626" y="918" type="line"/>
      <point x="621" y="915"/>
      <point x="516" y="808" type="qcurve"/>
      <point x="456" y="845"/>
      <point x="404" y="919" type="qcurve"/>
      <point x="497" y="1011"/>
      <point x="507" y="1023" type="qcurve"/>
    </contour>
    <contour>
      <point x="966" y="542" type="line"/>
      <point x="1056" y="358"/>
      <point x="1056" y="233" type="qcurve" smooth="yes"/>
      <point x="1056" y="143" type="line" smooth="yes"/>
      <point x="1056" y="9"/>
      <point x="951" y="-133" type="qcurve"/>
      <point x="749" y="-343"/>
      <point x="487" y="-343" type="qcurve" smooth="yes"/>
      <point x="481" y="-343" type="line" smooth="yes"/>
      <point x="272" y="-343"/>
      <point x="148" y="-220" type="qcurve" smooth="yes"/>
      <point x="34" y="-105"/>
      <point x="34" y="75" type="qcurve" smooth="yes"/>
      <point x="34" y="110" type="line" smooth="yes"/>
      <point x="34" y="317"/>
      <point x="150" y="467" type="qcurve"/>
      <point x="163" y="477" type="line"/>
      <point x="169" y="477" type="line" smooth="yes"/>
      <point x="179" y="477"/>
      <point x="179" y="464" type="qcurve" smooth="yes"/>
      <point x="179" y="439"/>
      <point x="130" y="317" type="qcurve"/>
      <point x="111" y="248"/>
      <point x="111" y="183" type="qcurve" smooth="yes"/>
      <point x="111" y="-60"/>
      <point x="371" y="-148" type="qcurve" smooth="yes"/>
      <point x="448" y="-174"/>
      <point x="506" y="-172" type="qcurve"/>
      <point x="548" y="-172" type="line" smooth="yes"/>
      <point x="775" y="-172"/>
      <point x="960" y="8" type="qcurve"/>
      <point x="966" y="22"/>
      <point x="966" y="59" type="qcurve" smooth="yes"/>
      <point x="966" y="82" type="line" smooth="yes"/>
      <point x="966" y="246"/>
      <point x="876" y="406" type="qcurve"/>
      <point x="945" y="526"/>
      <point x="960" y="542" type="qcurve"/>
    </contour>
  </outline>
</glyph>
<glyph name="uni064E" format="2">
  <unicode hex="064E"/>
  <anchor x="114" y="0" name="_t.uni064B"/>
  <outline>
    <contour>
      <point x="537" y="332" type="line"/>
      <point x="536" y="330"/>
      <point x="534" y="327" type="qcurve"/>
      <point x="533" y="325" type="line"/>
      <point x="531" y="322"/>
      <point x="528" y="316" type="qcurve" smooth="yes"/>
      <point x="526" y="312"/>
      <point x="523" y="306" type="qcurve"/>
      <point x="521" y="303"/>
      <point x="519" y="298" type="qcurve"/>
      <point x="518" y="294"/>
      <point x="514" y="289" type="qcurve"/>
      <point x="513" y="285"/>
      <point x="509" y="281" type="qcurve"/>
      <point x="507" y="277"/>
      <point x="504" y="271" type="qcurve"/>
      <point x="502" y="268"/>
      <point x="500" y="263" type="qcurve"/>
      <point x="490" y="245" type="line"/>
      <point x="488" y="241"/>
      <point x="486" y="238" type="qcurve"/>
      <point x="483" y="232"/>
      <point x="482" y="227" type="qcurve"/>
      <point x="480" y="222"/>
      <point x="475" y="220" type="qcurve" smooth="yes"/>
      <point x="465" y="216" type="line"/>
      <point x="457" y="211" type="line"/>
      <point x="453" y="209"/>
      <point x="447" y="207" type="qcurve"/>
      <point x="443" y="204"/>
      <point x="437" y="203" type="qcurve"/>
      <point x="428" y="198" type="line"/>
      <point x="424" y="196"/>
      <point x="416" y="192"/>
      <point x="410" y="189" type="qcurve"/>
      <point x="401" y="186" type="line"/>
      <point x="391" y="181" type="line" smooth="yes"/>
      <point x="387" y="179"/>
      <point x="379" y="175"/>
      <point x="378" y="175" type="qcurve"/>
      <point x="369" y="170"/>
      <point x="364" y="167" type="qcurve"/>
      <point x="362" y="166"/>
      <point x="359" y="166" type="qcurve"/>
      <point x="318" y="147" type="line"/>
      <point x="314" y="145"/>
      <point x="308" y="142" type="qcurve"/>
      <point x="305" y="141"/>
      <point x="299" y="138" type="qcurve" smooth="yes"/>
      <point x="295" y="136"/>
      <point x="289" y="133" type="qcurve" smooth="yes"/>
      <point x="281" y="129" type="line" smooth="yes"/>
      <point x="277" y="127"/>
      <point x="271" y="126" type="qcurve"/>
      <point x="267" y="124"/>
      <point x="262" y="121" type="qcurve"/>
      <point x="257" y="119"/>
      <point x="252" y="116" type="qcurve"/>
      <point x="248" y="114"/>
      <point x="243" y="112" type="qcurve"/>
      <point x="239" y="110"/>
      <point x="234" y="108" type="qcurve" smooth="yes"/>
      <point x="224" y="104" type="line"/>
      <point x="221" y="101"/>
      <point x="215" y="99" type="qcurve"/>
      <point x="211" y="97"/>
      <point x="206" y="95" type="qcurve"/>
      <point x="203" y="92"/>
      <point x="196" y="90" type="qcurve"/>
      <point x="192" y="88"/>
      <point x="187" y="86" type="qcurve"/>
      <point x="183" y="85"/>
      <point x="178" y="82" type="qcurve"/>
      <point x="174" y="80"/>
      <point x="169" y="77" type="qcurve"/>
      <point x="159" y="73" type="line"/>
      <point x="156" y="72"/>
      <point x="150" y="69" type="qcurve" smooth="yes"/>
      <point x="148" y="68"/>
      <point x="146" y="67" type="qcurve"/>
      <point x="141" y="65" type="line"/>
      <point x="137" y="63"/>
      <point x="131" y="60" type="qcurve"/>
      <point x="127" y="59"/>
      <point x="123" y="55" type="qcurve"/>
      <point x="119" y="55"/>
      <point x="112" y="51" type="qcurve"/>
      <point x="108" y="50"/>
      <point x="105" y="48" type="qcurve"/>
      <point x="100" y="46"/>
      <point x="94" y="43" type="qcurve"/>
      <point x="91" y="42"/>
      <point x="86" y="39" type="qcurve"/>
      <point x="76" y="35" type="line"/>
      <point x="72" y="32"/>
      <point x="67" y="30" type="qcurve"/>
      <point x="63" y="28"/>
      <point x="58" y="26" type="qcurve"/>
      <point x="54" y="25"/>
      <point x="48" y="22" type="qcurve" smooth="yes"/>
      <point x="44" y="20"/>
      <point x="39" y="17" type="qcurve"/>
      <point x="35" y="15"/>
      <point x="30" y="13" type="qcurve"/>
      <point x="26" y="11"/>
      <point x="21" y="9" type="qcurve" smooth="yes"/>
      <point x="0" y="0" type="line"/>
      <point x="1" y="4"/>
      <point x="3" y="10" type="qcurve"/>
      <point x="5" y="14"/>
      <point x="7" y="18" type="qcurve"/>
      <point x="14" y="38" type="line"/>
      <point x="16" y="42"/>
      <point x="18" y="48" type="qcurve"/>
      <point x="21" y="52"/>
      <point x="23" y="58" type="qcurve"/>
      <point x="24" y="62"/>
      <point x="27" y="68" type="qcurve"/>
      <point x="30" y="77" type="line"/>
      <point x="35" y="87" type="line"/>
      <point x="35" y="91"/>
      <point x="39" y="96" type="qcurve"/>
      <point x="41" y="101"/>
      <point x="47" y="102" type="qcurve"/>
      <point x="51" y="104"/>
      <point x="55" y="107" type="qcurve"/>
      <point x="65" y="110" type="line"/>
      <point x="68" y="113"/>
      <point x="74" y="115" type="qcurve"/>
      <point x="78" y="117"/>
      <point x="83" y="120" type="qcurve"/>
      <point x="87" y="121"/>
      <point x="92" y="124" type="qcurve"/>
      <point x="96" y="126"/>
      <point x="102" y="128" type="qcurve"/>
      <point x="106" y="129"/>
      <point x="110" y="133" type="qcurve"/>
      <point x="114" y="134"/>
      <point x="121" y="137" type="qcurve"/>
      <point x="124" y="138"/>
      <point x="129" y="142" type="qcurve"/>
      <point x="133" y="143"/>
      <point x="138" y="146" type="qcurve"/>
      <point x="148" y="150" type="line"/>
      <point x="151" y="151"/>
      <point x="157" y="154" type="qcurve"/>
      <point x="160" y="156"/>
      <point x="166" y="158" type="qcurve"/>
      <point x="175" y="163" type="line"/>
      <point x="178" y="165"/>
      <point x="185" y="167" type="qcurve"/>
      <point x="188" y="170"/>
      <point x="194" y="171" type="qcurve"/>
      <point x="203" y="176" type="line"/>
      <point x="207" y="179"/>
      <point x="212" y="180" type="qcurve"/>
      <point x="215" y="183"/>
      <point x="222" y="185" type="qcurve"/>
      <point x="226" y="187"/>
      <point x="228" y="188" type="qcurve" smooth="yes"/>
      <point x="232" y="190"/>
      <point x="235" y="191" type="qcurve"/>
      <point x="240" y="193" type="line"/>
      <point x="244" y="195"/>
      <point x="249" y="198" type="qcurve"/>
      <point x="253" y="200"/>
      <point x="258" y="203" type="qcurve"/>
      <point x="260" y="204"/>
      <point x="263" y="205" type="qcurve"/>
      <point x="277" y="211" type="line"/>
      <point x="281" y="212"/>
      <point x="286" y="216" type="qcurve"/>
      <point x="289" y="216"/>
      <point x="290" y="218" type="qcurve"/>
      <point x="313" y="228" type="line"/>
      <point x="318" y="231"/>
      <point x="324" y="232" type="qcurve"/>
      <point x="332" y="237" type="line"/>
      <point x="342" y="241" type="line"/>
      <point x="345" y="244"/>
      <point x="350" y="246" type="qcurve"/>
      <point x="354" y="248"/>
      <point x="360" y="250" type="qcurve"/>
      <point x="369" y="254" type="line"/>
      <point x="372" y="257"/>
      <point x="379" y="259" type="qcurve"/>
      <point x="383" y="261"/>
      <point x="387" y="264" type="qcurve"/>
      <point x="391" y="266"/>
      <point x="397" y="267" type="qcurve"/>
      <point x="400" y="269"/>
      <point x="406" y="272" type="qcurve"/>
      <point x="410" y="273"/>
      <point x="415" y="277" type="qcurve"/>
      <point x="419" y="278"/>
      <point x="424" y="281" type="qcurve"/>
      <point x="433" y="286" type="line"/>
      <point x="437" y="287"/>
      <point x="443" y="289" type="qcurve"/>
      <point x="452" y="294" type="line"/>
      <point x="456" y="295"/>
      <point x="461" y="298" type="qcurve"/>
      <point x="470" y="303" type="line"/>
      <point x="480" y="306" type="line"/>
      <point x="484" y="308"/>
      <point x="489" y="311" type="qcurve"/>
      <point x="493" y="313"/>
      <point x="498" y="315" type="qcurve"/>
      <point x="502" y="318"/>
      <point x="507" y="320" type="qcurve"/>
      <point x="511" y="322"/>
      <point x="516" y="325" type="qcurve"/>
      <point x="520" y="326"/>
      <point x="526" y="328" type="qcurve"/>
      <point x="529" y="330"/>
      <point x="535" y="333" type="qcurve"/>
    </contour>
  </outline>
</glyph>
<glyph name="uni0653" format="2">
  <unicode hex="0653"/>
  <anchor x="228" y="0" name="_t.uni064B"/>
  <outline>
    <contour>
      <point x="419" y="15"/>
      <point x="325" y="15" type="qcurve" smooth="yes"/>
      <point x="307" y="15"/>
      <point x="254" y="18"/>
      <point x="184" y="26"/>
      <point x="131" y="29"/>
      <point x="118" y="29" type="qcurve" smooth="yes"/>
      <point x="64" y="29"/>
      <point x="0" y="0" type="qcurve"/>
      <point x="11" y="39"/>
      <point x="63" y="68" type="qcurve" smooth="yes"/>
      <point x="109" y="94"/>
      <point x="150" y="94" type="qcurve" smooth="yes"/>
      <point x="166" y="94"/>
      <point x="214" y="91"/>
      <point x="279" y="83"/>
      <point x="326" y="80"/>
      <point x="340" y="80" type="qcurve" smooth="yes"/>
      <point x="390" y="80"/>
      <point x="476" y="106" type="qcurve"/>
    </contour>
  </outline>
</glyph>
<glyph name="uni0670" format="2">
  <advance width="156"/>
  <unicode hex="0670"/>
  <anchor x="-200" y="-200" name="_t.uni064B"/>
  <outline>
    <contour>
      <point x="74" y="403"/>
      <point x="74" y="400" type="qcurve"/>
      <point x="75" y="398"/>
      <point x="77" y="393" type="qcurve"/>
      <point x="81" y="382" type="line"/>
      <point x="81" y="379"/>
      <point x="82" y="375" type="qcurve"/>
      <point x="83" y="373"/>
      <point x="84" y="369" type="qcurve"/>
      <point x="85" y="366"/>
      <point x="86" y="363" type="qcurve"/>
      <point x="87" y="361"/>
      <point x="88" y="357" type="qcurve"/>
      <point x="88" y="354"/>
      <point x="89" y="350" type="qcurve"/>
      <point x="89" y="347"/>
      <point x="91" y="345" type="qcurve"/>
      <point x="91" y="342"/>
      <point x="92" y="338" type="qcurve"/>
      <point x="93" y="335"/>
      <point x="94" y="332" type="qcurve"/>
      <point x="94" y="329"/>
      <point x="96" y="325" type="qcurve"/>
      <point x="96" y="323"/>
      <point x="97" y="319" type="qcurve"/>
      <point x="98" y="316"/>
      <point x="99" y="312" type="qcurve"/>
      <point x="101" y="306" type="line"/>
      <point x="101" y="303"/>
      <point x="102" y="300" type="qcurve"/>
      <point x="102" y="297"/>
      <point x="104" y="293" type="qcurve"/>
      <point x="104" y="291"/>
      <point x="105" y="286" type="qcurve"/>
      <point x="105" y="284"/>
      <point x="107" y="280" type="qcurve"/>
      <point x="107" y="278"/>
      <point x="108" y="273" type="qcurve"/>
      <point x="108" y="271"/>
      <point x="108" y="267" type="qcurve"/>
      <point x="109" y="264"/>
      <point x="110" y="261" type="qcurve"/>
      <point x="110" y="258"/>
      <point x="111" y="254" type="qcurve"/>
      <point x="111" y="251"/>
      <point x="112" y="246" type="qcurve"/>
      <point x="113" y="244"/>
      <point x="114" y="240" type="qcurve"/>
      <point x="114" y="233" type="line" smooth="yes"/>
      <point x="114" y="231"/>
      <point x="115" y="226" type="qcurve"/>
      <point x="116" y="223"/>
      <point x="116" y="219" type="qcurve"/>
      <point x="117" y="217"/>
      <point x="117" y="212" type="qcurve"/>
      <point x="119" y="203" type="line"/>
      <point x="119" y="195" type="line"/>
      <point x="120" y="191" type="line"/>
      <point x="120" y="184" type="line" smooth="yes"/>
      <point x="120" y="182"/>
      <point x="121" y="176" type="qcurve"/>
      <point x="121" y="172"/>
      <point x="121" y="168" type="qcurve" smooth="yes"/>
      <point x="121" y="127" type="line"/>
      <point x="120" y="122" type="line"/>
      <point x="120" y="118"/>
      <point x="120" y="114" type="qcurve"/>
      <point x="119" y="111"/>
      <point x="119" y="107" type="qcurve"/>
      <point x="118" y="105"/>
      <point x="118" y="100" type="qcurve"/>
      <point x="116" y="93" type="line"/>
      <point x="116" y="90"/>
      <point x="114" y="84"/>
      <point x="114" y="80" type="qcurve"/>
      <point x="113" y="78"/>
      <point x="112" y="73" type="qcurve"/>
      <point x="111" y="70"/>
      <point x="110" y="68" type="qcurve"/>
      <point x="109" y="65"/>
      <point x="108" y="61" type="qcurve"/>
      <point x="107" y="56" type="line"/>
      <point x="106" y="53"/>
      <point x="106" y="52" type="qcurve"/>
      <point x="104" y="47"/>
      <point x="102" y="44" type="qcurve"/>
      <point x="101" y="42"/>
      <point x="100" y="38" type="qcurve"/>
      <point x="99" y="37"/>
      <point x="97" y="33" type="qcurve"/>
      <point x="91" y="24" type="line"/>
      <point x="89" y="18" type="line"/>
      <point x="87" y="17"/>
      <point x="86" y="13" type="qcurve"/>
      <point x="84" y="11"/>
      <point x="82" y="10" type="qcurve"/>
      <point x="81" y="8"/>
      <point x="78" y="5" type="qcurve" smooth="yes"/>
      <point x="77" y="4"/>
      <point x="76" y="3" type="qcurve" smooth="yes"/>
      <point x="73" y="0"/>
      <point x="69" y="-2" type="qcurve"/>
      <point x="70" y="3" type="line"/>
      <point x="70" y="5"/>
      <point x="71" y="10" type="qcurve"/>
      <point x="71" y="12"/>
      <point x="72" y="17" type="qcurve"/>
      <point x="72" y="24" type="line" smooth="yes"/>
      <point x="72" y="28"/>
      <point x="73" y="31" type="qcurve"/>
      <point x="73" y="39" type="line"/>
      <point x="74" y="43" type="line"/>
      <point x="74" y="108" type="line"/>
      <point x="73" y="110"/>
      <point x="73" y="112" type="qcurve" smooth="yes"/>
      <point x="73" y="116" type="line" smooth="yes"/>
      <point x="73" y="118"/>
      <point x="72" y="123" type="qcurve"/>
      <point x="72" y="130" type="line"/>
      <point x="70" y="145" type="line"/>
      <point x="70" y="149"/>
      <point x="69" y="152" type="qcurve"/>
      <point x="69" y="159" type="line"/>
      <point x="68" y="166" type="line"/>
      <point x="68" y="170"/>
      <point x="68" y="173" type="qcurve"/>
      <point x="64" y="194" type="line"/>
      <point x="64" y="196"/>
      <point x="63" y="200" type="qcurve"/>
      <point x="62" y="203"/>
      <point x="61" y="207" type="qcurve"/>
      <point x="61" y="210"/>
      <point x="60" y="213" type="qcurve"/>
      <point x="60" y="217" type="line"/>
      <point x="56" y="229" type="line"/>
      <point x="56" y="233" type="line"/>
      <point x="55" y="236"/>
      <point x="54" y="239" type="qcurve"/>
      <point x="54" y="241"/>
      <point x="53" y="243" type="qcurve"/>
      <point x="53" y="246" type="line"/>
      <point x="52" y="249"/>
      <point x="51" y="252" type="qcurve"/>
      <point x="50" y="254"/>
      <point x="49" y="258" type="qcurve"/>
      <point x="49" y="262" type="line"/>
      <point x="48" y="265" type="line" smooth="yes"/>
      <point x="47" y="268"/>
      <point x="47" y="271" type="qcurve"/>
      <point x="46" y="273"/>
      <point x="45" y="277" type="qcurve"/>
      <point x="43" y="280"/>
      <point x="43" y="284" type="qcurve"/>
      <point x="41" y="286"/>
      <point x="41" y="289" type="qcurve"/>
      <point x="40" y="291"/>
      <point x="39" y="295" type="qcurve"/>
      <point x="38" y="298"/>
      <point x="37" y="302" type="qcurve"/>
      <point x="35" y="305"/>
      <point x="35" y="307" type="qcurve"/>
      <point x="33" y="313" type="line"/>
      <point x="32" y="315"/>
      <point x="31" y="319" type="qcurve"/>
      <point x="28" y="328" type="line"/>
      <point x="28" y="331" type="line"/>
      <point x="30" y="333"/>
      <point x="31" y="336" type="qcurve"/>
      <point x="34" y="341" type="line"/>
      <point x="35" y="344"/>
      <point x="37" y="345" type="qcurve"/>
      <point x="38" y="347"/>
      <point x="39" y="348" type="qcurve"/>
      <point x="41" y="353"/>
      <point x="43" y="356" type="qcurve"/>
      <point x="45" y="358"/>
      <point x="46" y="361" type="qcurve"/>
      <point x="48" y="363"/>
      <point x="50" y="367"/>
      <point x="52" y="370" type="qcurve"/>
      <point x="53" y="373"/>
      <point x="55" y="376" type="qcurve" smooth="yes"/>
      <point x="61" y="385" type="line"/>
      <point x="62" y="387"/>
      <point x="64" y="390" type="qcurve"/>
      <point x="65" y="392"/>
      <point x="67" y="395" type="qcurve"/>
      <point x="68" y="398"/>
      <point x="69" y="400" type="qcurve"/>
      <point x="71" y="401"/>
      <point x="72" y="405" type="qcurve"/>
    </contour>
  </outline>
</glyph>
<glyph name="uni06C1" format="2">
  <advance width="1464"/>
  <unicode hex="06C1"/>
  <anchor x="300" y="1099" name="t.uni064B"/>
  <anchor x="485" y="-428" name="b.uni064D_1"/>
  <outline>
    <contour>
      <point x="1804" y="1903" type="line"/>
      <point x="1812" y="1903" type="line"/>
      <point x="1804" y="1903" type="line"/>
      <point x="1812" y="1903" type="line"/>
      <point x="1789" y="1823" type="line"/>
      <point x="1785" y="1816" type="line"/>
      <point x="1782" y="1801" type="line"/>
      <point x="1778" y="1789" type="line"/>
      <point x="1778" y="1778" type="line"/>
      <point x="1770" y="1770" type="line"/>
      <point x="1766" y="1762" type="line"/>
      <point x="1717" y="1745"/>
      <point x="1648" y="1702" type="qcurve"/>
      <point x="1610" y="1686" type="line"/>
      <point x="1603" y="1679" type="line"/>
      <point x="1523" y="1637" type="line"/>
      <point x="1511" y="1629" type="line"/>
      <point x="1496" y="1622" type="line"/>
      <point x="1473" y="1614"/>
      <point x="1450" y="1595" type="qcurve"/>
      <point x="1428" y="1587" type="line"/>
      <point x="1408" y="1576" type="line"/>
      <point x="1393" y="1565" type="line"/>
      <point x="1321" y="1526" type="line"/>
      <point x="1313" y="1519" type="line"/>
      <point x="1287" y="1510"/>
      <point x="1264" y="1488" type="qcurve"/>
      <point x="1249" y="1485" type="line"/>
      <point x="1228" y="1475"/>
      <point x="1207" y="1454" type="qcurve"/>
      <point x="1188" y="1446"/>
      <point x="1169" y="1431" type="qcurve"/>
      <point x="1144" y="1421"/>
      <point x="1115" y="1397" type="qcurve"/>
      <point x="1111" y="1398"/>
      <point x="1108" y="1393" type="qcurve"/>
      <point x="1070" y="1367" type="line"/>
      <point x="1051" y="1359" type="line"/>
      <point x="1035" y="1348" type="line"/>
      <point x="1051" y="1420" type="line"/>
      <point x="1054" y="1443" type="line"/>
      <point x="1058" y="1458" type="line"/>
      <point x="1062" y="1481" type="line"/>
      <point x="1085" y="1491"/>
      <point x="1115" y="1515" type="qcurve"/>
      <point x="1127" y="1523" type="line"/>
      <point x="1143" y="1529"/>
      <point x="1157" y="1542" type="qcurve"/>
      <point x="1169" y="1546" type="line"/>
      <point x="1180" y="1553" type="line"/>
      <point x="1191" y="1557" type="line"/>
      <point x="1203" y="1565" type="line"/>
      <point x="1222" y="1580" type="line"/>
      <point x="1233" y="1584" type="line"/>
      <point x="1241" y="1591" type="line"/>
      <point x="1268" y="1599"/>
      <point x="1294" y="1622" type="qcurve"/>
      <point x="1313" y="1629" type="line"/>
      <point x="1344" y="1644" type="line" smooth="yes"/>
      <point x="1367" y="1655"/>
      <point x="1397" y="1679" type="qcurve"/>
      <point x="1421" y="1686"/>
      <point x="1450" y="1705" type="qcurve"/>
      <point x="1515" y="1740" type="line"/>
      <point x="1538" y="1755" type="line"/>
      <point x="1629" y="1801" type="line"/>
      <point x="1637" y="1808" type="line"/>
      <point x="1683" y="1831" type="line"/>
      <point x="1702" y="1842" type="line"/>
      <point x="1714" y="1848"/>
      <point x="1732" y="1861" type="qcurve"/>
      <point x="1743" y="1865" type="line"/>
      <point x="1751" y="1873" type="line"/>
    </contour>
    <contour>
      <point x="1949" y="1724" type="line"/>
      <point x="1945" y="1724" type="line"/>
      <point x="1949" y="1724" type="line"/>
      <point x="1945" y="1696"/>
      <point x="1930" y="1664" type="qcurve"/>
      <point x="1922" y="1633" type="line"/>
      <point x="1911" y="1599" type="line"/>
      <point x="1911" y="1587" type="line"/>
      <point x="1907" y="1580" type="line"/>
      <point x="1887" y="1570"/>
      <point x="1861" y="1553" type="qcurve"/>
      <point x="1857" y="1554"/>
      <point x="1854" y="1549" type="qcurve"/>
      <point x="1838" y="1544"/>
      <point x="1816" y="1534" type="qcurve"/>
      <point x="1804" y="1526" type="line"/>
      <point x="1793" y="1523" type="line"/>
      <point x="1774" y="1517"/>
      <point x="1751" y="1500" type="qcurve"/>
      <point x="1721" y="1485" type="line"/>
      <point x="1689" y="1476"/>
      <point x="1652" y="1450" type="qcurve"/>
      <point x="1641" y="1447" type="line"/>
      <point x="1599" y="1424" type="line"/>
      <point x="1488" y="1367" type="line"/>
      <point x="1477" y="1363" type="line"/>
      <point x="1469" y="1355" type="line"/>
      <point x="1459" y="1352"/>
      <point x="1450" y="1344" type="qcurve"/>
      <point x="1431" y="1336" type="line"/>
      <point x="1370" y="1302" type="line"/>
      <point x="1359" y="1298" type="line"/>
      <point x="1332" y="1283" type="line"/>
      <point x="1313" y="1268" type="line"/>
      <point x="1300" y="1267"/>
      <point x="1287" y="1252" type="qcurve"/>
      <point x="1276" y="1249"/>
      <point x="1264" y="1241" type="qcurve" smooth="yes"/>
      <point x="1241" y="1226" type="line"/>
      <point x="1221" y="1221"/>
      <point x="1199" y="1203" type="qcurve"/>
      <point x="1146" y="1172" type="line"/>
      <point x="1138" y="1169" type="line"/>
      <point x="1119" y="1157" type="line"/>
      <point x="1120" y="1138"/>
      <point x="1127" y="1115" type="qcurve"/>
      <point x="1127" y="1100" type="line"/>
      <point x="1131" y="1035" type="line"/>
      <point x="1134" y="1024" type="line"/>
      <point x="1134" y="997" type="line"/>
      <point x="1138" y="986" type="line"/>
      <point x="1150" y="841" type="line"/>
      <point x="1153" y="818" type="line"/>
      <point x="1157" y="746" type="line"/>
      <point x="1161" y="723" type="line"/>
      <point x="1169" y="647" type="line"/>
      <point x="1169" y="620" type="line"/>
      <point x="1172" y="613" type="line"/>
      <point x="1172" y="601" type="line"/>
      <point x="1180" y="525" type="line"/>
      <point x="1178" y="510"/>
      <point x="1184" y="495" type="qcurve"/>
      <point x="1184" y="461" type="line"/>
      <point x="1188" y="434" type="line" smooth="yes"/>
      <point x="1193" y="404"/>
      <point x="1188" y="365" type="qcurve"/>
      <point x="1188" y="354" type="line"/>
      <point x="1127" y="-63"/>
      <point x="502" y="-99" type="qcurve" smooth="yes"/>
      <point x="-79" y="-133"/>
      <point x="72" y="407" type="qcurve"/>
      <point x="87" y="429"/>
      <point x="95" y="461" type="qcurve"/>
      <point x="114" y="483" type="line"/>
      <point x="118" y="495" type="line"/>
      <point x="131" y="485"/>
      <point x="126" y="461" type="qcurve"/>
      <point x="15" y="141"/>
      <point x="346" y="76" type="qcurve" smooth="yes"/>
      <point x="708" y="5"/>
      <point x="1062" y="225" type="qcurve"/>
      <point x="1077" y="258"/>
      <point x="1077" y="301" type="qcurve"/>
      <point x="1081" y="312" type="line"/>
      <point x="1084" y="366"/>
      <point x="1077" y="457" type="qcurve"/>
      <point x="1077" y="468" type="line"/>
      <point x="1073" y="480" type="line"/>
      <point x="1074" y="501"/>
      <point x="1070" y="522" type="qcurve"/>
      <point x="1070" y="541" type="line"/>
      <point x="1066" y="552" type="line"/>
      <point x="1068" y="584"/>
      <point x="1058" y="636" type="qcurve"/>
      <point x="1058" y="662" type="line"/>
      <point x="1054" y="674" type="line"/>
      <point x="1056" y="706"/>
      <point x="1047" y="758" type="qcurve"/>
      <point x="1035" y="887" type="line"/>
      <point x="1035" y="900"/>
      <point x="1032" y="914" type="qcurve"/>
      <point x="1028" y="967" type="line"/>
      <point x="1028" y="998"/>
      <point x="1020" y="1043" type="qcurve"/>
      <point x="1020" y="1070" type="line"/>
      <point x="1021" y="1074"/>
      <point x="1016" y="1077" type="qcurve"/>
      <point x="1016" y="1096" type="line"/>
      <point x="1035" y="1126"/>
      <point x="1051" y="1176" type="qcurve"/>
      <point x="1058" y="1184" type="line"/>
      <point x="1062" y="1195" type="line"/>
      <point x="1070" y="1211" type="line"/>
      <point x="1070" y="1222" type="line"/>
      <point x="1081" y="1240"/>
      <point x="1085" y="1260" type="qcurve"/>
      <point x="1115" y="1269"/>
      <point x="1142" y="1294" type="qcurve"/>
      <point x="1146" y="1293"/>
      <point x="1150" y="1298" type="qcurve"/>
      <point x="1180" y="1308"/>
      <point x="1214" y="1336" type="qcurve"/>
      <point x="1218" y="1335"/>
      <point x="1222" y="1340" type="qcurve"/>
      <point x="1229" y="1342"/>
      <point x="1233" y="1348" type="qcurve"/>
      <point x="1269" y="1358"/>
      <point x="1310" y="1389" type="qcurve"/>
      <point x="1339" y="1396"/>
      <point x="1367" y="1420" type="qcurve"/>
      <point x="1401" y="1430"/>
      <point x="1439" y="1458" type="qcurve"/>
      <point x="1450" y="1462" type="line"/>
      <point x="1469" y="1473" type="line"/>
      <point x="1492" y="1481" type="line"/>
      <point x="1511" y="1496" type="line"/>
      <point x="1536" y="1504"/>
      <point x="1568" y="1523" type="qcurve"/>
      <point x="1580" y="1526" type="line"/>
      <point x="1660" y="1568" type="line"/>
      <point x="1667" y="1576" type="line"/>
      <point x="1684" y="1580"/>
      <point x="1709" y="1595" type="qcurve"/>
      <point x="1713" y="1596"/>
      <point x="1717" y="1603" type="qcurve"/>
      <point x="1770" y="1625" type="line"/>
      <point x="1820" y="1656" type="line"/>
      <point x="1840" y="1661"/>
      <point x="1861" y="1679" type="qcurve"/>
      <point x="1865" y="1678"/>
      <point x="1869" y="1683" type="qcurve"/>
      <point x="1905" y="1693"/>
      <point x="1945" y="1724" type="qcurve"/>
    </contour>
  </outline>
</glyph>
<glyph name="uni25FC" format="2">
  <advance width="915"/>
  <unicode hex="25FC"/>
  <outline>
    <contour>
      <point x="0" y="915" type="line"/>
      <point x="915" y="915" type="line"/>
      <point x="915" y="0" type="line"/>
      <point x="0" y="0" type="line"/>
    </contour>
  </outline>
</glyph>
<glyph name="uniFC49" format="2">
  <advance width="1321"/>
  <unicode hex="FC49"/>
  <outline>
    <contour>
      <point x="1090" y="682"/>
      <point x="1095" y="679" type="qcurve"/>
      <point x="1099" y="677"/>
      <point x="1105" y="675" type="qcurve"/>
      <point x="1109" y="673"/>
      <point x="1114" y="670" type="qcurve"/>
      <point x="1118" y="668"/>
      <point x="1123" y="665" type="qcurve"/>
      <point x="1126" y="664"/>
      <point x="1130" y="661" type="qcurve"/>
      <point x="1132" y="660" type="line"/>
      <point x="1136" y="657"/>
      <point x="1142" y="656" type="qcurve"/>
      <point x="1145" y="653"/>
      <point x="1150" y="650" type="qcurve"/>
      <point x="1154" y="647"/>
      <point x="1159" y="645" type="qcurve"/>
      <point x="1162" y="641"/>
      <point x="1168" y="640" type="qcurve"/>
      <point x="1171" y="637"/>
      <point x="1175" y="633" type="qcurve"/>
      <point x="1179" y="631"/>
      <point x="1183" y="627" type="qcurve"/>
      <point x="1199" y="615" type="line" smooth="yes"/>
      <point x="1203" y="612"/>
      <point x="1207" y="608" type="qcurve" smooth="yes"/>
      <point x="1210" y="605"/>
      <point x="1214" y="602" type="qcurve"/>
      <point x="1221" y="595" type="line" smooth="yes"/>
      <point x="1224" y="592"/>
      <point x="1228" y="588" type="qcurve"/>
      <point x="1232" y="585"/>
      <point x="1234" y="581" type="qcurve"/>
      <point x="1238" y="578"/>
      <point x="1241" y="573" type="qcurve"/>
      <point x="1244" y="570"/>
      <point x="1248" y="565" type="qcurve"/>
      <point x="1253" y="558" type="line" smooth="yes"/>
      <point x="1256" y="554"/>
      <point x="1259" y="549" type="qcurve"/>
      <point x="1262" y="545"/>
      <point x="1265" y="541" type="qcurve"/>
      <point x="1270" y="532" type="line"/>
      <point x="1272" y="527"/>
      <point x="1273" y="522" type="qcurve"/>
      <point x="1275" y="517"/>
      <point x="1275" y="509" type="qcurve" smooth="yes"/>
      <point x="1275" y="496" type="line"/>
      <point x="1274" y="492"/>
      <point x="1272" y="484" type="qcurve"/>
      <point x="1271" y="479"/>
      <point x="1269" y="474" type="qcurve"/>
      <point x="1268" y="470"/>
      <point x="1265" y="464" type="qcurve"/>
      <point x="1261" y="454" type="line"/>
      <point x="1259" y="450"/>
      <point x="1259" y="449" type="qcurve"/>
      <point x="1254" y="440"/>
      <point x="1252" y="436" type="qcurve"/>
      <point x="1249" y="431"/>
      <point x="1247" y="426" type="qcurve"/>
      <point x="1244" y="422"/>
      <point x="1242" y="417" type="qcurve"/>
      <point x="1239" y="414"/>
      <point x="1236" y="409" type="qcurve"/>
      <point x="1230" y="401" type="line"/>
      <point x="1227" y="398"/>
      <point x="1222" y="392" type="qcurve"/>
      <point x="1221" y="390"/>
      <point x="1221" y="390" type="qcurve"/>
      <point x="1214" y="383"/>
      <point x="1211" y="379" type="qcurve"/>
      <point x="1207" y="376"/>
      <point x="1205" y="374" type="qcurve" smooth="yes"/>
      <point x="1200" y="369"/>
      <point x="1195" y="366" type="qcurve" smooth="yes"/>
      <point x="1190" y="363"/>
      <point x="1186" y="361" type="qcurve"/>
      <point x="1183" y="358"/>
      <point x="1177" y="356" type="qcurve"/>
      <point x="1173" y="353"/>
      <point x="1168" y="351" type="qcurve"/>
      <point x="1164" y="349"/>
      <point x="1158" y="346" type="qcurve"/>
      <point x="1154" y="345"/>
      <point x="1149" y="343" type="qcurve"/>
      <point x="1144" y="342"/>
      <point x="1138" y="339" type="qcurve"/>
      <point x="1134" y="339"/>
      <point x="1131" y="336" type="qcurve"/>
      <point x="1128" y="336" type="line"/>
      <point x="1123" y="335"/>
      <point x="1117" y="332" type="qcurve"/>
      <point x="1112" y="331"/>
      <point x="1107" y="330" type="qcurve"/>
      <point x="1101" y="328"/>
      <point x="1096" y="326" type="qcurve"/>
      <point x="1089" y="324"/>
      <point x="1083" y="324" type="qcurve"/>
      <point x="1078" y="323"/>
      <point x="1073" y="321" type="qcurve"/>
      <point x="1068" y="321"/>
      <point x="1061" y="318" type="qcurve"/>
      <point x="1050" y="316" type="line"/>
      <point x="1045" y="314"/>
      <point x="1038" y="313" type="qcurve"/>
      <point x="1033" y="311"/>
      <point x="1027" y="310" type="qcurve"/>
      <point x="1016" y="307" type="line"/>
      <point x="1011" y="307"/>
      <point x="1005" y="305" type="qcurve"/>
      <point x="1001" y="304"/>
      <point x="994" y="302" type="qcurve" smooth="yes"/>
      <point x="983" y="299" type="line" smooth="yes"/>
      <point x="979" y="298"/>
      <point x="977" y="297" type="qcurve"/>
      <point x="968" y="295"/>
      <point x="962" y="292" type="qcurve"/>
      <point x="957" y="291"/>
      <point x="952" y="288" type="qcurve"/>
      <point x="941" y="286" type="line"/>
      <point x="936" y="284"/>
      <point x="931" y="282" type="qcurve"/>
      <point x="927" y="280"/>
      <point x="921" y="277" type="qcurve"/>
      <point x="916" y="276"/>
      <point x="911" y="273" type="qcurve"/>
      <point x="907" y="271"/>
      <point x="901" y="268" type="qcurve"/>
      <point x="897" y="267"/>
      <point x="892" y="265" type="qcurve" smooth="yes"/>
      <point x="885" y="262" type="line"/>
      <point x="888" y="261" type="line"/>
      <point x="893" y="260"/>
      <point x="898" y="257" type="qcurve"/>
      <point x="903" y="256"/>
      <point x="909" y="253" type="qcurve"/>
      <point x="914" y="252"/>
      <point x="919" y="249" type="qcurve"/>
      <point x="930" y="246" type="line"/>
      <point x="934" y="244"/>
      <point x="941" y="244" type="qcurve"/>
      <point x="945" y="242"/>
      <point x="950" y="241" type="qcurve"/>
      <point x="952" y="240" type="line"/>
      <point x="957" y="239"/>
      <point x="963" y="238" type="qcurve"/>
      <point x="968" y="236"/>
      <point x="974" y="235" type="qcurve"/>
      <point x="979" y="233"/>
      <point x="985" y="232" type="qcurve"/>
      <point x="990" y="231"/>
      <point x="997" y="229" type="qcurve"/>
      <point x="1001" y="228"/>
      <point x="1008" y="226" type="qcurve"/>
      <point x="1019" y="225" type="line"/>
      <point x="1024" y="224"/>
      <point x="1028" y="223" type="qcurve" smooth="yes"/>
      <point x="1036" y="221"/>
      <point x="1042" y="219" type="qcurve"/>
      <point x="1048" y="218"/>
      <point x="1054" y="216" type="qcurve"/>
      <point x="1065" y="214" type="line"/>
      <point x="1075" y="210" type="line"/>
      <point x="1080" y="209"/>
      <point x="1085" y="208" type="qcurve"/>
      <point x="1091" y="206"/>
      <point x="1094" y="205" type="qcurve"/>
      <point x="1102" y="204"/>
      <point x="1107" y="201" type="qcurve"/>
      <point x="1112" y="200"/>
      <point x="1117" y="197" type="qcurve"/>
      <point x="1122" y="196"/>
      <point x="1129" y="192" type="qcurve"/>
      <point x="1132" y="191"/>
      <point x="1134" y="190" type="qcurve"/>
      <point x="1141" y="186"/>
      <point x="1147" y="185" type="qcurve"/>
      <point x="1155" y="179" type="line"/>
      <point x="1159" y="177"/>
      <point x="1161" y="176" type="qcurve"/>
      <point x="1168" y="172"/>
      <point x="1172" y="167" type="qcurve"/>
      <point x="1176" y="165"/>
      <point x="1184" y="159"/>
      <point x="1189" y="156" type="qcurve"/>
      <point x="1203" y="134" type="line"/>
      <point x="1203" y="131" type="line"/>
      <point x="1204" y="129" type="line"/>
      <point x="1205" y="119" type="line"/>
      <point x="1205" y="103" type="line"/>
      <point x="1203" y="98"/>
      <point x="1203" y="90" type="qcurve"/>
      <point x="1197" y="69" type="line"/>
      <point x="1195" y="65"/>
      <point x="1194" y="60" type="qcurve"/>
      <point x="1193" y="58" type="line" smooth="yes"/>
      <point x="1191" y="54"/>
      <point x="1190" y="49" type="qcurve"/>
      <point x="1188" y="45"/>
      <point x="1186" y="38" type="qcurve"/>
      <point x="1183" y="34"/>
      <point x="1181" y="29" type="qcurve"/>
      <point x="1178" y="26"/>
      <point x="1176" y="20" type="qcurve"/>
      <point x="1174" y="16"/>
      <point x="1172" y="10" type="qcurve"/>
      <point x="1169" y="6"/>
      <point x="1167" y="1" type="qcurve"/>
      <point x="1164" y="-2"/>
      <point x="1161" y="-8" type="qcurve"/>
      <point x="1155" y="-16" type="line"/>
      <point x="1151" y="-25" type="line"/>
      <point x="1149" y="-28"/>
      <point x="1145" y="-32" type="qcurve"/>
      <point x="1143" y="-36"/>
      <point x="1139" y="-41" type="qcurve"/>
      <point x="1133" y="-49" type="line"/>
      <point x="1130" y="-52"/>
      <point x="1124" y="-60"/>
      <point x="1120" y="-64" type="qcurve" smooth="yes"/>
      <point x="1117" y="-67"/>
      <point x="1113" y="-71" type="qcurve" smooth="yes"/>
      <point x="1106" y="-78" type="line"/>
      <point x="1103" y="-80"/>
      <point x="1099" y="-85" type="qcurve"/>
      <point x="1096" y="-87"/>
      <point x="1088" y="-93"/>
      <point x="1083" y="-97" type="qcurve"/>
      <point x="1080" y="-100"/>
      <point x="1075" y="-103" type="qcurve"/>
      <point x="1071" y="-105"/>
      <point x="1068" y="-109" type="qcurve"/>
      <point x="1064" y="-110"/>
      <point x="1059" y="-114" type="qcurve"/>
      <point x="1055" y="-117"/>
      <point x="1050" y="-120" type="qcurve"/>
      <point x="1046" y="-121"/>
      <point x="1042" y="-126" type="qcurve"/>
      <point x="1037" y="-127"/>
      <point x="1033" y="-130" type="qcurve"/>
      <point x="1024" y="-135" type="line"/>
      <point x="1020" y="-137"/>
      <point x="1014" y="-140" type="qcurve"/>
      <point x="1006" y="-145" type="line"/>
      <point x="1002" y="-147"/>
      <point x="997" y="-149" type="qcurve"/>
      <point x="992" y="-152"/>
      <point x="989" y="-153" type="qcurve"/>
      <point x="982" y="-156"/>
      <point x="978" y="-160" type="qcurve"/>
      <point x="969" y="-164" type="line"/>
      <point x="964" y="-166"/>
      <point x="960" y="-169" type="qcurve"/>
      <point x="951" y="-173" type="line"/>
      <point x="947" y="-175"/>
      <point x="941" y="-179" type="qcurve"/>
      <point x="937" y="-180"/>
      <point x="933" y="-184" type="qcurve"/>
      <point x="929" y="-185"/>
      <point x="923" y="-188" type="qcurve"/>
      <point x="919" y="-189"/>
      <point x="914" y="-193" type="qcurve"/>
      <point x="910" y="-194"/>
      <point x="904" y="-198" type="qcurve"/>
      <point x="899" y="-199"/>
      <point x="896" y="-203" type="qcurve"/>
      <point x="886" y="-207" type="line"/>
      <point x="882" y="-209"/>
      <point x="877" y="-211" type="qcurve" smooth="yes"/>
      <point x="872" y="-213"/>
      <point x="868" y="-215" type="qcurve"/>
      <point x="863" y="-218"/>
      <point x="858" y="-220" type="qcurve" smooth="yes"/>
      <point x="853" y="-222"/>
      <point x="848" y="-225" type="qcurve"/>
      <point x="844" y="-226"/>
      <point x="838" y="-229" type="qcurve"/>
      <point x="835" y="-229"/>
      <point x="833" y="-232" type="qcurve"/>
      <point x="830" y="-232" type="line"/>
      <point x="828" y="-233" type="line"/>
      <point x="823" y="-234"/>
      <point x="819" y="-238" type="qcurve"/>
      <point x="814" y="-238"/>
      <point x="809" y="-242" type="qcurve"/>
      <point x="805" y="-243"/>
      <point x="800" y="-245" type="qcurve"/>
      <point x="794" y="-248"/>
      <point x="789" y="-249" type="qcurve"/>
      <point x="784" y="-251"/>
      <point x="780" y="-252" type="qcurve"/>
      <point x="775" y="-254"/>
      <point x="769" y="-258" type="qcurve"/>
      <point x="764" y="-258"/>
      <point x="759" y="-262" type="qcurve"/>
      <point x="754" y="-262"/>
      <point x="749" y="-266" type="qcurve"/>
      <point x="744" y="-266"/>
      <point x="737" y="-269" type="qcurve"/>
      <point x="734" y="-270"/>
      <point x="730" y="-271" type="qcurve"/>
      <point x="728" y="-272" type="line"/>
      <point x="723" y="-273"/>
      <point x="718" y="-276" type="qcurve"/>
      <point x="714" y="-276"/>
      <point x="710" y="-279" type="qcurve"/>
      <point x="707" y="-279" type="line"/>
      <point x="703" y="-281"/>
      <point x="699" y="-282" type="qcurve"/>
      <point x="697" y="-283" type="line"/>
      <point x="692" y="-284"/>
      <point x="685" y="-286" type="qcurve"/>
      <point x="681" y="-287"/>
      <point x="677" y="-288" type="qcurve"/>
      <point x="653" y="-295" type="line"/>
      <point x="648" y="-296"/>
      <point x="641" y="-298" type="qcurve" smooth="yes"/>
      <point x="631" y="-301" type="line"/>
      <point x="627" y="-301"/>
      <point x="620" y="-304" type="qcurve"/>
      <point x="608" y="-305" type="line"/>
      <point x="603" y="-306"/>
      <point x="601" y="-307" type="qcurve"/>
      <point x="591" y="-309"/>
      <point x="584" y="-310" type="qcurve"/>
      <point x="579" y="-310"/>
      <point x="573" y="-313" type="qcurve"/>
      <point x="568" y="-313"/>
      <point x="561" y="-315" type="qcurve"/>
      <point x="556" y="-315"/>
      <point x="549" y="-317" type="qcurve"/>
      <point x="544" y="-317"/>
      <point x="539" y="-318" type="qcurve"/>
      <point x="536" y="-318" type="line"/>
      <point x="531" y="-319"/>
      <point x="523" y="-320" type="qcurve"/>
      <point x="518" y="-320"/>
      <point x="511" y="-321" type="qcurve"/>
      <point x="506" y="-321"/>
      <point x="499" y="-323" type="qcurve"/>
      <point x="486" y="-324" type="line"/>
      <point x="416" y="-324" type="line"/>
      <point x="404" y="-323" type="line"/>
      <point x="398" y="-322"/>
      <point x="390" y="-322" type="qcurve"/>
      <point x="385" y="-321"/>
      <point x="377" y="-321" type="qcurve"/>
      <point x="372" y="-319"/>
      <point x="364" y="-319" type="qcurve"/>
      <point x="359" y="-317"/>
      <point x="353" y="-317" type="qcurve"/>
      <point x="348" y="-315"/>
      <point x="341" y="-315" type="qcurve"/>
      <point x="337" y="-313"/>
      <point x="330" y="-312" type="qcurve"/>
      <point x="325" y="-311"/>
      <point x="319" y="-309" type="qcurve"/>
      <point x="315" y="-308"/>
      <point x="310" y="-307" type="qcurve"/>
      <point x="302" y="-304"/>
      <point x="296" y="-304" type="qcurve"/>
      <point x="291" y="-302"/>
      <point x="286" y="-300" type="qcurve" smooth="yes"/>
      <point x="281" y="-298"/>
      <point x="271" y="-294"/>
      <point x="266" y="-292" type="qcurve" smooth="yes"/>
      <point x="256" y="-288" type="line"/>
      <point x="252" y="-286"/>
      <point x="249" y="-285" type="qcurve"/>
      <point x="242" y="-282"/>
      <point x="238" y="-280" type="qcurve"/>
      <point x="233" y="-277"/>
      <point x="232" y="-277" type="qcurve"/>
      <point x="223" y="-272"/>
      <point x="215" y="-266"/>
      <point x="209" y="-265" type="qcurve"/>
      <point x="205" y="-261"/>
      <point x="201" y="-259" type="qcurve"/>
      <point x="198" y="-256"/>
      <point x="193" y="-253" type="qcurve"/>
      <point x="189" y="-250"/>
      <point x="185" y="-247" type="qcurve"/>
      <point x="182" y="-244"/>
      <point x="178" y="-241" type="qcurve"/>
      <point x="173" y="-238"/>
      <point x="169" y="-234" type="qcurve"/>
      <point x="162" y="-228" type="line"/>
      <point x="159" y="-225"/>
      <point x="155" y="-222" type="qcurve"/>
      <point x="152" y="-218"/>
      <point x="148" y="-215" type="qcurve"/>
      <point x="134" y="-200" type="line"/>
      <point x="131" y="-197"/>
      <point x="128" y="-192" type="qcurve"/>
      <point x="125" y="-188"/>
      <point x="124" y="-187" type="qcurve"/>
      <point x="119" y="-181"/>
      <point x="114" y="-173" type="qcurve"/>
      <point x="113" y="-172"/>
      <point x="113" y="-172" type="qcurve"/>
      <point x="107" y="-164"/>
      <point x="105" y="-160" type="qcurve"/>
      <point x="102" y="-156"/>
      <point x="100" y="-151" type="qcurve"/>
      <point x="97" y="-147"/>
      <point x="94" y="-142" type="qcurve"/>
      <point x="89" y="-133" type="line"/>
      <point x="87" y="-128"/>
      <point x="86" y="-125" type="qcurve"/>
      <point x="83" y="-119"/>
      <point x="83" y="-118" type="qcurve"/>
      <point x="79" y="-109"/>
      <point x="76" y="-105" type="qcurve"/>
      <point x="73" y="-99" type="line"/>
      <point x="73" y="-96" type="line"/>
      <point x="62" y="-63" type="line"/>
      <point x="60" y="-58"/>
      <point x="59" y="-52" type="qcurve"/>
      <point x="57" y="-47"/>
      <point x="56" y="-41" type="qcurve"/>
      <point x="53" y="-30" type="line"/>
      <point x="52" y="-24"/>
      <point x="51" y="-18" type="qcurve"/>
      <point x="48" y="4" type="line"/>
      <point x="48" y="49" type="line" smooth="yes"/>
      <point x="48" y="55"/>
      <point x="49" y="61" type="qcurve"/>
      <point x="49" y="67"/>
      <point x="49" y="74" type="qcurve"/>
      <point x="50" y="79"/>
      <point x="50" y="88" type="qcurve"/>
      <point x="51" y="93"/>
      <point x="52" y="99" type="qcurve" smooth="yes"/>
      <point x="58" y="135" type="line"/>
      <point x="60" y="140"/>
      <point x="60" y="148" type="qcurve"/>
      <point x="61" y="152"/>
      <point x="63" y="158" type="qcurve"/>
      <point x="64" y="164"/>
      <point x="65" y="169" type="qcurve"/>
      <point x="66" y="175"/>
      <point x="67" y="180" type="qcurve"/>
      <point x="69" y="186"/>
      <point x="70" y="192" type="qcurve" smooth="yes"/>
      <point x="71" y="198"/>
      <point x="72" y="205" type="qcurve"/>
      <point x="74" y="209"/>
      <point x="75" y="216" type="qcurve"/>
      <point x="77" y="221"/>
      <point x="78" y="227" type="qcurve"/>
      <point x="80" y="231"/>
      <point x="81" y="238" type="qcurve"/>
      <point x="82" y="242"/>
      <point x="83" y="247" type="qcurve"/>
      <point x="84" y="253"/>
      <point x="85" y="254" type="qcurve"/>
      <point x="88" y="264"/>
      <point x="89" y="271" type="qcurve"/>
      <point x="91" y="275"/>
      <point x="92" y="281" type="qcurve"/>
      <point x="93" y="286"/>
      <point x="95" y="290" type="qcurve"/>
      <point x="96" y="293" type="line"/>
      <point x="97" y="298"/>
      <point x="99" y="304" type="qcurve"/>
      <point x="102" y="315" type="line"/>
      <point x="104" y="319"/>
      <point x="107" y="327" type="qcurve"/>
      <point x="108" y="329"/>
      <point x="110" y="334" type="qcurve"/>
      <point x="114" y="345" type="line"/>
      <point x="117" y="349"/>
      <point x="119" y="354" type="qcurve"/>
      <point x="125" y="363" type="line"/>
      <point x="127" y="368"/>
      <point x="130" y="371" type="qcurve"/>
      <point x="136" y="379" type="line"/>
      <point x="142" y="381" type="line"/>
      <point x="146" y="378" type="line"/>
      <point x="149" y="373"/>
      <point x="148" y="366" type="qcurve"/>
      <point x="148" y="353" type="line" smooth="yes"/>
      <point x="148" y="348"/>
      <point x="146" y="342" type="qcurve"/>
      <point x="146" y="336"/>
      <point x="143" y="329" type="qcurve"/>
      <point x="142" y="324"/>
      <point x="140" y="318" type="qcurve"/>
      <point x="139" y="314"/>
      <point x="137" y="308" type="qcurve"/>
      <point x="135" y="303"/>
      <point x="134" y="297" type="qcurve"/>
      <point x="131" y="286" type="line"/>
      <point x="126" y="250" type="line"/>
      <point x="126" y="245"/>
      <point x="124" y="238" type="qcurve"/>
      <point x="123" y="225" type="line"/>
      <point x="122" y="220"/>
      <point x="122" y="211" type="qcurve"/>
      <point x="121" y="203" type="line"/>
      <point x="121" y="199" type="line"/>
      <point x="120" y="192" type="line"/>
      <point x="120" y="171" type="line"/>
      <point x="119" y="163" type="line"/>
      <point x="119" y="159" type="line"/>
      <point x="120" y="152" type="line"/>
      <point x="120" y="134" type="line"/>
      <point x="121" y="132" type="line"/>
      <point x="121" y="122" type="line"/>
      <point x="122" y="120" type="line"/>
      <point x="122" y="114" type="line"/>
      <point x="125" y="94" type="line"/>
      <point x="126" y="89"/>
      <point x="127" y="82" type="qcurve"/>
      <point x="129" y="71" type="line"/>
      <point x="129" y="66"/>
      <point x="132" y="60" type="qcurve"/>
      <point x="133" y="55"/>
      <point x="134" y="53" type="qcurve"/>
      <point x="136" y="44"/>
      <point x="139" y="39" type="qcurve"/>
      <point x="139" y="35"/>
      <point x="142" y="29" type="qcurve" smooth="yes"/>
      <point x="144" y="25"/>
      <point x="147" y="18" type="qcurve"/>
      <point x="148" y="13"/>
      <point x="151" y="10" type="qcurve"/>
      <point x="152" y="5"/>
      <point x="156" y="0" type="qcurve"/>
      <point x="157" y="-4"/>
      <point x="161" y="-10" type="qcurve" smooth="yes"/>
      <point x="163" y="-13"/>
      <point x="165" y="-16" type="qcurve"/>
      <point x="169" y="-21"/>
      <point x="171" y="-27" type="qcurve"/>
      <point x="174" y="-29"/>
      <point x="177" y="-34" type="qcurve"/>
      <point x="180" y="-37"/>
      <point x="184" y="-42" type="qcurve"/>
      <point x="187" y="-48" type="line"/>
      <point x="189" y="-49" type="line"/>
      <point x="192" y="-52"/>
      <point x="197" y="-56" type="qcurve"/>
      <point x="204" y="-64" type="line"/>
      <point x="207" y="-66"/>
      <point x="210" y="-70" type="qcurve"/>
      <point x="214" y="-72"/>
      <point x="218" y="-77" type="qcurve"/>
      <point x="222" y="-78"/>
      <point x="226" y="-83" type="qcurve"/>
      <point x="230" y="-85"/>
      <point x="234" y="-89" type="qcurve"/>
      <point x="238" y="-91"/>
      <point x="243" y="-94" type="qcurve"/>
      <point x="247" y="-97"/>
      <point x="251" y="-100" type="qcurve"/>
      <point x="254" y="-101"/>
      <point x="260" y="-106" type="qcurve"/>
      <point x="264" y="-107"/>
      <point x="268" y="-110" type="qcurve"/>
      <point x="272" y="-111"/>
      <point x="278" y="-115" type="qcurve"/>
      <point x="282" y="-116"/>
      <point x="287" y="-119" type="qcurve"/>
      <point x="291" y="-120"/>
      <point x="297" y="-124" type="qcurve"/>
      <point x="302" y="-125"/>
      <point x="307" y="-128" type="qcurve"/>
      <point x="312" y="-129"/>
      <point x="314" y="-130" type="qcurve"/>
      <point x="323" y="-132"/>
      <point x="328" y="-135" type="qcurve"/>
      <point x="333" y="-135"/>
      <point x="339" y="-138" type="qcurve"/>
      <point x="350" y="-141" type="line" smooth="yes"/>
      <point x="354" y="-142"/>
      <point x="361" y="-144" type="qcurve"/>
      <point x="366" y="-144"/>
      <point x="372" y="-147" type="qcurve"/>
      <point x="384" y="-148" type="line"/>
      <point x="389" y="-148"/>
      <point x="396" y="-151" type="qcurve"/>
      <point x="399" y="-151"/>
      <point x="404" y="-152" type="qcurve"/>
      <point x="407" y="-153" type="line"/>
      <point x="421" y="-154" type="line"/>
      <point x="426" y="-155"/>
      <point x="432" y="-156" type="qcurve"/>
      <point x="441" y="-156" type="line"/>
      <point x="443" y="-157" type="line"/>
      <point x="460" y="-157" type="line"/>
      <point x="465" y="-158" type="line"/>
      <point x="505" y="-158" type="line"/>
      <point x="527" y="-157" type="line"/>
      <point x="532" y="-156"/>
      <point x="540" y="-156" type="qcurve"/>
      <point x="550" y="-155" type="line"/>
      <point x="553" y="-155" type="line"/>
      <point x="559" y="-154"/>
      <point x="566" y="-154" type="qcurve"/>
      <point x="570" y="-153"/>
      <point x="578" y="-152" type="qcurve" smooth="yes"/>
      <point x="603" y="-149" type="line"/>
      <point x="608" y="-148"/>
      <point x="615" y="-148" type="qcurve"/>
      <point x="625" y="-147" type="line"/>
      <point x="627" y="-146" type="line"/>
      <point x="632" y="-145"/>
      <point x="640" y="-144" type="qcurve"/>
      <point x="652" y="-142" type="line"/>
      <point x="657" y="-140"/>
      <point x="663" y="-140" type="qcurve"/>
      <point x="686" y="-135" type="line"/>
      <point x="691" y="-133"/>
      <point x="698" y="-132" type="qcurve"/>
      <point x="709" y="-129" type="line"/>
      <point x="714" y="-128"/>
      <point x="724" y="-126"/>
      <point x="728" y="-125" type="qcurve" smooth="yes"/>
      <point x="736" y="-123"/>
      <point x="742" y="-121" type="qcurve"/>
      <point x="747" y="-119"/>
      <point x="753" y="-118" type="qcurve"/>
      <point x="764" y="-115" type="line"/>
      <point x="768" y="-112"/>
      <point x="775" y="-112" type="qcurve"/>
      <point x="779" y="-109"/>
      <point x="783" y="-109" type="qcurve"/>
      <point x="785" y="-108" type="line"/>
      <point x="789" y="-107"/>
      <point x="793" y="-106" type="qcurve"/>
      <point x="796" y="-106" type="line"/>
      <point x="807" y="-102" type="line"/>
      <point x="812" y="-100"/>
      <point x="817" y="-98" type="qcurve"/>
      <point x="828" y="-95" type="line"/>
      <point x="832" y="-92"/>
      <point x="838" y="-91" type="qcurve"/>
      <point x="869" y="-80" type="line"/>
      <point x="873" y="-78"/>
      <point x="883" y="-74"/>
      <point x="885" y="-73" type="qcurve"/>
      <point x="893" y="-70"/>
      <point x="898" y="-69" type="qcurve"/>
      <point x="904" y="-66" type="line"/>
      <point x="907" y="-66" type="line"/>
      <point x="909" y="-65" type="line"/>
      <point x="914" y="-62"/>
      <point x="918" y="-61" type="qcurve"/>
      <point x="928" y="-56" type="line"/>
      <point x="931" y="-55"/>
      <point x="936" y="-53" type="qcurve" smooth="yes"/>
      <point x="957" y="-44" type="line"/>
      <point x="961" y="-42"/>
      <point x="967" y="-39" type="qcurve"/>
      <point x="976" y="-35" type="line"/>
      <point x="980" y="-32"/>
      <point x="987" y="-30" type="qcurve"/>
      <point x="1005" y="-22" type="line"/>
      <point x="1009" y="-19"/>
      <point x="1014" y="-17" type="qcurve"/>
      <point x="1018" y="-14"/>
      <point x="1024" y="-12" type="qcurve"/>
      <point x="1028" y="-9"/>
      <point x="1034" y="-8" type="qcurve"/>
      <point x="1038" y="-5"/>
      <point x="1043" y="-3" type="qcurve"/>
      <point x="1061" y="7" type="line"/>
      <point x="1065" y="10"/>
      <point x="1071" y="11" type="qcurve"/>
      <point x="1075" y="14"/>
      <point x="1079" y="16" type="qcurve"/>
      <point x="1092" y="23" type="line"/>
      <point x="1087" y="27" type="line"/>
      <point x="1082" y="28"/>
      <point x="1077" y="30" type="qcurve"/>
      <point x="1074" y="31"/>
      <point x="1070" y="33" type="qcurve"/>
      <point x="1067" y="34" type="line"/>
      <point x="1063" y="36"/>
      <point x="1058" y="37" type="qcurve"/>
      <point x="1056" y="38" type="line"/>
      <point x="1051" y="39"/>
      <point x="1046" y="42" type="qcurve"/>
      <point x="1041" y="43"/>
      <point x="1035" y="45" type="qcurve"/>
      <point x="1030" y="47"/>
      <point x="1024" y="48" type="qcurve"/>
      <point x="1019" y="50"/>
      <point x="1014" y="50" type="qcurve"/>
      <point x="1009" y="51"/>
      <point x="1002" y="54" type="qcurve"/>
      <point x="997" y="55"/>
      <point x="991" y="56" type="qcurve"/>
      <point x="986" y="58"/>
      <point x="980" y="59" type="qcurve"/>
      <point x="975" y="61"/>
      <point x="969" y="62" type="qcurve"/>
      <point x="964" y="64"/>
      <point x="957" y="65" type="qcurve"/>
      <point x="952" y="67"/>
      <point x="950" y="67" type="qcurve"/>
      <point x="942" y="70"/>
      <point x="935" y="70" type="qcurve"/>
      <point x="925" y="74" type="line"/>
      <point x="920" y="75"/>
      <point x="915" y="77" type="qcurve"/>
      <point x="882" y="87" type="line"/>
      <point x="878" y="90"/>
      <point x="872" y="90" type="qcurve"/>
      <point x="868" y="93"/>
      <point x="861" y="94" type="qcurve"/>
      <point x="852" y="99" type="line"/>
      <point x="848" y="100"/>
      <point x="842" y="103" type="qcurve" smooth="yes"/>
      <point x="838" y="105"/>
      <point x="836" y="106" type="qcurve"/>
      <point x="829" y="110"/>
      <point x="824" y="112" type="qcurve" smooth="yes"/>
      <point x="819" y="114"/>
      <point x="815" y="115" type="qcurve"/>
      <point x="813" y="116" type="line"/>
      <point x="809" y="117"/>
      <point x="802" y="119" type="qcurve"/>
      <point x="794" y="125" type="line"/>
      <point x="790" y="127"/>
      <point x="782" y="133"/>
      <point x="779" y="138" type="qcurve"/>
      <point x="776" y="142"/>
      <point x="774" y="147" type="qcurve"/>
      <point x="771" y="152"/>
      <point x="770" y="157" type="qcurve"/>
      <point x="767" y="167" type="line"/>
      <point x="767" y="179" type="line"/>
      <point x="768" y="181" type="line"/>
      <point x="768" y="186"/>
      <point x="771" y="194" type="qcurve"/>
      <point x="772" y="197"/>
      <point x="773" y="202" type="qcurve"/>
      <point x="774" y="204" type="line" smooth="yes"/>
      <point x="776" y="208"/>
      <point x="777" y="210" type="qcurve"/>
      <point x="780" y="217"/>
      <point x="781" y="224" type="qcurve"/>
      <point x="783" y="228"/>
      <point x="784" y="230" type="qcurve"/>
      <point x="787" y="237"/>
      <point x="788" y="242" type="qcurve"/>
      <point x="789" y="244" type="line"/>
      <point x="792" y="248"/>
      <point x="793" y="254" type="qcurve"/>
      <point x="798" y="264" type="line"/>
      <point x="799" y="268"/>
      <point x="801" y="273" type="qcurve"/>
      <point x="803" y="277"/>
      <point x="805" y="284" type="qcurve"/>
      <point x="808" y="287"/>
      <point x="810" y="292" type="qcurve"/>
      <point x="813" y="296"/>
      <point x="815" y="302" type="qcurve"/>
      <point x="820" y="310" type="line"/>
      <point x="822" y="315"/>
      <point x="826" y="319" type="qcurve"/>
      <point x="828" y="322"/>
      <point x="831" y="327" type="qcurve"/>
      <point x="835" y="330"/>
      <point x="837" y="335" type="qcurve"/>
      <point x="845" y="342" type="line"/>
      <point x="848" y="345"/>
      <point x="852" y="348" type="qcurve"/>
      <point x="855" y="352"/>
      <point x="859" y="355" type="qcurve"/>
      <point x="862" y="359"/>
      <point x="867" y="362" type="qcurve"/>
      <point x="870" y="365"/>
      <point x="874" y="367" type="qcurve" smooth="yes"/>
      <point x="878" y="369"/>
      <point x="882" y="374" type="qcurve"/>
      <point x="891" y="379" type="line"/>
      <point x="895" y="382"/>
      <point x="900" y="384" type="qcurve"/>
      <point x="903" y="387"/>
      <point x="909" y="389" type="qcurve"/>
      <point x="913" y="392"/>
      <point x="918" y="394" type="qcurve"/>
      <point x="922" y="397"/>
      <point x="928" y="399" type="qcurve"/>
      <point x="932" y="401"/>
      <point x="934" y="402" type="qcurve" smooth="yes"/>
      <point x="942" y="406"/>
      <point x="947" y="406" type="qcurve"/>
      <point x="952" y="409"/>
      <point x="957" y="410" type="qcurve"/>
      <point x="961" y="412"/>
      <point x="966" y="413" type="qcurve"/>
      <point x="968" y="414" type="line"/>
      <point x="973" y="415"/>
      <point x="978" y="418" type="qcurve"/>
      <point x="983" y="419"/>
      <point x="989" y="421" type="qcurve" smooth="yes"/>
      <point x="995" y="423"/>
      <point x="1001" y="423" type="qcurve"/>
      <point x="1006" y="425"/>
      <point x="1012" y="426" type="qcurve"/>
      <point x="1017" y="428"/>
      <point x="1023" y="429" type="qcurve"/>
      <point x="1027" y="431"/>
      <point x="1034" y="432" type="qcurve"/>
      <point x="1044" y="436" type="line"/>
      <point x="1049" y="436"/>
      <point x="1055" y="439" type="qcurve"/>
      <point x="1060" y="440"/>
      <point x="1066" y="442" type="qcurve"/>
      <point x="1070" y="443"/>
      <point x="1073" y="444" type="qcurve"/>
      <point x="1076" y="444" type="line"/>
      <point x="1081" y="446"/>
      <point x="1088" y="448" type="qcurve"/>
      <point x="1103" y="455" type="line"/>
      <point x="1106" y="455" type="line"/>
      <point x="1108" y="456" type="line" smooth="yes"/>
      <point x="1112" y="458"/>
      <point x="1117" y="460" type="qcurve" smooth="yes"/>
      <point x="1127" y="464" type="line"/>
      <point x="1124" y="467"/>
      <point x="1119" y="470" type="qcurve"/>
      <point x="1112" y="477" type="line"/>
      <point x="1108" y="479"/>
      <point x="1106" y="480" type="qcurve"/>
      <point x="1099" y="484"/>
      <point x="1095" y="488" type="qcurve"/>
      <point x="1090" y="490"/>
      <point x="1087" y="494" type="qcurve"/>
      <point x="1078" y="499" type="line"/>
      <point x="1075" y="502"/>
      <point x="1070" y="504" type="qcurve"/>
      <point x="1066" y="507"/>
      <point x="1060" y="509" type="qcurve"/>
      <point x="1053" y="515" type="line"/>
      <point x="1049" y="517"/>
      <point x="1048" y="517" type="qcurve"/>
      <point x="1039" y="522"/>
      <point x="1034" y="524" type="qcurve"/>
      <point x="1030" y="526"/>
      <point x="1029" y="526" type="qcurve"/>
      <point x="1020" y="531"/>
      <point x="1014" y="533" type="qcurve"/>
      <point x="1010" y="535"/>
      <point x="1005" y="537" type="qcurve"/>
      <point x="999" y="539" type="line"/>
      <point x="1004" y="555" type="line"/>
      <point x="1006" y="559"/>
      <point x="1007" y="563" type="qcurve"/>
      <point x="1008" y="565" type="line" smooth="yes"/>
      <point x="1010" y="569"/>
      <point x="1012" y="576" type="qcurve"/>
      <point x="1016" y="585" type="line"/>
      <point x="1018" y="589"/>
      <point x="1019" y="591" type="qcurve"/>
      <point x="1022" y="599"/>
      <point x="1025" y="604" type="qcurve"/>
      <point x="1028" y="607"/>
      <point x="1030" y="613" type="qcurve"/>
      <point x="1032" y="618"/>
      <point x="1035" y="621" type="qcurve"/>
      <point x="1037" y="625"/>
      <point x="1040" y="631" type="qcurve"/>
      <point x="1043" y="634"/>
      <point x="1046" y="639" type="qcurve"/>
      <point x="1049" y="643"/>
      <point x="1052" y="647" type="qcurve"/>
      <point x="1058" y="654" type="line"/>
      <point x="1060" y="658"/>
      <point x="1065" y="662" type="qcurve"/>
      <point x="1068" y="665"/>
      <point x="1068" y="665" type="qcurve"/>
      <point x="1075" y="672"/>
      <point x="1078" y="676" type="qcurve"/>
      <point x="1081" y="678"/>
      <point x="1085" y="683" type="qcurve"/>
    </contour>
  </outline>
</glyph>
<glyph name="uniFEBC" format="2">
  <advance width="1149"/>
  <unicode hex="FEBC"/>
  <anchor x="357" y="742" name="t.uni064B"/>
  <anchor x="343" y="-300" name="b.uni064D_1"/>
  <outline>
    <contour>
      <point x="843" y="577"/>
      <point x="851" y="579" type="qcurve"/>
      <point x="879" y="579" type="line"/>
      <point x="884" y="579" type="line"/>
      <point x="995" y="555"/>
      <point x="1035" y="453" type="qcurve"/>
      <point x="1037" y="451" type="line"/>
      <point x="1037" y="445"/>
      <point x="1041" y="439" type="qcurve"/>
      <point x="1043" y="431" type="line"/>
      <point x="1064" y="294"/>
      <point x="971" y="167" type="qcurve"/>
      <point x="982" y="167" type="line"/>
      <point x="985" y="167" type="line"/>
      <point x="1001" y="167" type="line"/>
      <point x="1151" y="167" type="line"/>
      <point x="1151" y="0" type="line"/>
      <point x="1142" y="-1" type="line"/>
      <point x="1075" y="-1" type="line"/>
      <point x="1072" y="0" type="line"/>
      <point x="1059" y="0" type="line"/>
      <point x="1052" y="-1"/>
      <point x="1044" y="1" type="qcurve"/>
      <point x="1028" y="1" type="line"/>
      <point x="1023" y="2" type="line"/>
      <point x="1014" y="2" type="line"/>
      <point x="1007" y="3" type="line"/>
      <point x="1002" y="2"/>
      <point x="994" y="4" type="qcurve"/>
      <point x="988" y="4" type="line"/>
      <point x="981" y="5" type="line"/>
      <point x="978" y="5" type="line"/>
      <point x="972" y="6" type="line"/>
      <point x="964" y="6" type="line"/>
      <point x="948" y="8" type="line"/>
      <point x="944" y="8" type="line"/>
      <point x="939" y="9"/>
      <point x="934" y="9" type="qcurve"/>
      <point x="927" y="11"/>
      <point x="915" y="11" type="qcurve" smooth="yes"/>
      <point x="912" y="11" type="line"/>
      <point x="908" y="12"/>
      <point x="900" y="12" type="qcurve"/>
      <point x="892" y="14" type="line"/>
      <point x="888" y="14"/>
      <point x="884" y="15" type="qcurve"/>
      <point x="878" y="15" type="line"/>
      <point x="876" y="16" type="line"/>
      <point x="873" y="16" type="line"/>
      <point x="870" y="17" type="line"/>
      <point x="865" y="17" type="line"/>
      <point x="862" y="18" type="line"/>
      <point x="857" y="18"/>
      <point x="852" y="20" type="qcurve"/>
      <point x="849" y="20" type="line"/>
      <point x="833" y="23" type="line"/>
      <point x="827" y="23" type="line"/>
      <point x="820" y="26"/>
      <point x="810" y="26" type="qcurve"/>
      <point x="808" y="27" type="line"/>
      <point x="805" y="27" type="line"/>
      <point x="802" y="28" type="line"/>
      <point x="799" y="28" type="line"/>
      <point x="792" y="30" type="line"/>
      <point x="788" y="30" type="line" smooth="yes"/>
      <point x="781" y="30"/>
      <point x="773" y="33" type="qcurve"/>
      <point x="770" y="33" type="line"/>
      <point x="767" y="34" type="line"/>
      <point x="762" y="34" type="line"/>
      <point x="758" y="36"/>
      <point x="753" y="36" type="qcurve"/>
      <point x="748" y="38" type="line"/>
      <point x="744" y="37"/>
      <point x="737" y="34" type="qcurve"/>
      <point x="733" y="34"/>
      <point x="729" y="31" type="qcurve"/>
      <point x="727" y="31"/>
      <point x="726" y="30" type="qcurve"/>
      <point x="723" y="30" type="line"/>
      <point x="720" y="29" type="line"/>
      <point x="719" y="29"/>
      <point x="718" y="28" type="qcurve"/>
      <point x="714" y="27" type="line"/>
      <point x="709" y="27"/>
      <point x="703" y="24" type="qcurve"/>
      <point x="698" y="24"/>
      <point x="693" y="21" type="qcurve"/>
      <point x="640" y="9" type="line"/>
      <point x="635" y="9"/>
      <point x="629" y="7" type="qcurve"/>
      <point x="626" y="7" type="line"/>
      <point x="599" y="3" type="line"/>
      <point x="597" y="2" type="line"/>
      <point x="593" y="2" type="line"/>
      <point x="590" y="1" type="line"/>
      <point x="582" y="1"/>
      <point x="573" y="-1" type="qcurve"/>
      <point x="566" y="-1" type="line"/>
      <point x="560" y="-2" type="line"/>
      <point x="551" y="-2" type="line"/>
      <point x="546" y="-3" type="line"/>
      <point x="493" y="-3" type="line"/>
      <point x="484" y="-4"/>
      <point x="472" y="-2" type="qcurve"/>
      <point x="460" y="-2" type="line"/>
      <point x="453" y="0"/>
      <point x="443" y="0" type="qcurve" smooth="yes"/>
      <point x="440" y="0" type="line"/>
      <point x="432" y="2" type="line"/>
      <point x="428" y="2" type="line"/>
      <point x="419" y="4" type="line"/>
      <point x="415" y="4" type="line"/>
      <point x="391" y="9" type="line"/>
      <point x="385" y="11"/>
      <point x="378" y="11" type="qcurve"/>
      <point x="372" y="14"/>
      <point x="363" y="16" type="qcurve"/>
      <point x="349" y="21" type="line"/>
      <point x="344" y="22"/>
      <point x="339" y="25" type="qcurve"/>
      <point x="309" y="36" type="line"/>
      <point x="302" y="42"/>
      <point x="291" y="46" type="qcurve"/>
      <point x="285" y="52"/>
      <point x="275" y="56" type="qcurve"/>
      <point x="273" y="58"/>
      <point x="268" y="62" type="qcurve" smooth="yes"/>
      <point x="249" y="77" type="line"/>
      <point x="244" y="84"/>
      <point x="236" y="90" type="qcurve"/>
      <point x="233" y="96"/>
      <point x="227" y="102" type="qcurve"/>
      <point x="225" y="107"/>
      <point x="221" y="111" type="qcurve"/>
      <point x="218" y="116" type="line"/>
      <point x="217" y="120"/>
      <point x="214" y="125" type="qcurve"/>
      <point x="207" y="139" type="line"/>
      <point x="207" y="142" type="line"/>
      <point x="204" y="148" type="line"/>
      <point x="155" y="68"/>
      <point x="62" y="19" type="qcurve"/>
      <point x="28" y="6"/>
      <point x="3" y="0" type="qcurve"/>
      <point x="0" y="0" type="line"/>
      <point x="0" y="167" type="line"/>
      <point x="157" y="177"/>
      <point x="265" y="315" type="qcurve"/>
      <point x="285" y="207"/>
      <point x="400" y="169" type="qcurve"/>
      <point x="404" y="173"/>
      <point x="407" y="180" type="qcurve"/>
      <point x="422" y="198" type="line"/>
      <point x="424" y="204" type="line"/>
      <point x="430" y="210" type="line" smooth="yes"/>
      <point x="433" y="213"/>
      <point x="437" y="220" type="qcurve"/>
      <point x="466" y="257" type="line"/>
      <point x="469" y="262"/>
      <point x="474" y="266" type="qcurve"/>
      <point x="475" y="269" type="line"/>
      <point x="477" y="270" type="line"/>
      <point x="483" y="280" type="line"/>
      <point x="485" y="282"/>
      <point x="487" y="286" type="qcurve"/>
      <point x="492" y="290" type="line"/>
      <point x="494" y="292"/>
      <point x="496" y="296" type="qcurve"/>
      <point x="499" y="298"/>
      <point x="501" y="302" type="qcurve"/>
      <point x="508" y="307"/>
      <point x="512" y="316" type="qcurve"/>
      <point x="514" y="317" type="line"/>
      <point x="532" y="340" type="line"/>
      <point x="538" y="344"/>
      <point x="543" y="352" type="qcurve"/>
      <point x="548" y="357"/>
      <point x="553" y="364" type="qcurve"/>
      <point x="554" y="364"/>
      <point x="555" y="366" type="qcurve"/>
      <point x="558" y="368"/>
      <point x="561" y="373" type="qcurve"/>
      <point x="564" y="376"/>
      <point x="567" y="381" type="qcurve"/>
      <point x="569" y="382" type="line"/>
      <point x="589" y="404" type="line"/>
      <point x="593" y="406"/>
      <point x="596" y="411" type="qcurve"/>
      <point x="598" y="413"/>
      <point x="600" y="416" type="qcurve"/>
      <point x="605" y="419"/>
      <point x="609" y="425" type="qcurve"/>
      <point x="611" y="426" type="line"/>
      <point x="625" y="442" type="line"/>
      <point x="634" y="449" type="line"/>
      <point x="637" y="453" type="line"/>
      <point x="640" y="455"/>
      <point x="643" y="459" type="qcurve"/>
      <point x="647" y="463" type="line"/>
      <point x="653" y="467"/>
      <point x="660" y="474" type="qcurve"/>
      <point x="677" y="489" type="line"/>
      <point x="684" y="492"/>
      <point x="688" y="499" type="qcurve"/>
      <point x="695" y="502" type="line"/>
      <point x="698" y="506"/>
      <point x="703" y="509" type="qcurve"/>
      <point x="731" y="530" type="line"/>
      <point x="748" y="540" type="line" smooth="yes"/>
      <point x="753" y="543"/>
      <point x="760" y="548" type="qcurve"/>
      <point x="765" y="549"/>
      <point x="770" y="553" type="qcurve"/>
      <point x="777" y="556" type="line"/>
      <point x="781" y="559" type="line"/>
      <point x="788" y="560"/>
      <point x="795" y="564" type="qcurve"/>
      <point x="799" y="565"/>
      <point x="804" y="567" type="qcurve"/>
      <point x="821" y="573" type="line"/>
      <point x="827" y="574"/>
      <point x="837" y="577" type="qcurve"/>
    </contour>
    <contour>
      <point x="785" y="426" type="line"/>
      <point x="763" y="423" type="line"/>
      <point x="753" y="421"/>
      <point x="741" y="416" type="qcurve"/>
      <point x="740" y="416"/>
      <point x="739" y="415" type="qcurve"/>
      <point x="738" y="415"/>
      <point x="737" y="414" type="qcurve"/>
      <point x="734" y="414" type="line"/>
      <point x="729" y="411"/>
      <point x="721" y="408" type="qcurve"/>
      <point x="719" y="407" type="line"/>
      <point x="715" y="404"/>
      <point x="707" y="402" type="qcurve"/>
      <point x="704" y="399" type="line"/>
      <point x="699" y="397" type="line"/>
      <point x="697" y="395" type="line"/>
      <point x="693" y="394"/>
      <point x="689" y="390" type="qcurve"/>
      <point x="687" y="390"/>
      <point x="686" y="388" type="qcurve"/>
      <point x="682" y="386"/>
      <point x="677" y="383" type="qcurve"/>
      <point x="673" y="381" type="line"/>
      <point x="670" y="378"/>
      <point x="665" y="375" type="qcurve"/>
      <point x="641" y="356" type="line"/>
      <point x="640" y="356"/>
      <point x="640" y="354" type="qcurve"/>
      <point x="589" y="307" type="line"/>
      <point x="585" y="303"/>
      <point x="581" y="298" type="qcurve"/>
      <point x="573" y="290" type="line"/>
      <point x="561" y="275" type="line"/>
      <point x="560" y="275"/>
      <point x="559" y="273" type="qcurve"/>
      <point x="557" y="272" type="line"/>
      <point x="547" y="259" type="line"/>
      <point x="538" y="251"/>
      <point x="530" y="238" type="qcurve"/>
      <point x="529" y="238"/>
      <point x="528" y="236" type="qcurve"/>
      <point x="526" y="233" type="line"/>
      <point x="523" y="230"/>
      <point x="521" y="226" type="qcurve"/>
      <point x="516" y="221"/>
      <point x="510" y="212" type="qcurve"/>
      <point x="508" y="210" type="line"/>
      <point x="505" y="205"/>
      <point x="501" y="200" type="qcurve"/>
      <point x="496" y="191" type="line"/>
      <point x="493" y="189" type="line"/>
      <point x="491" y="186"/>
      <point x="489" y="182" type="qcurve"/>
      <point x="481" y="174"/>
      <point x="475" y="161" type="qcurve"/>
      <point x="473" y="159"/>
      <point x="471" y="155" type="qcurve"/>
      <point x="468" y="152" type="line"/>
      <point x="462" y="145"/>
      <point x="474" y="146" type="qcurve"/>
      <point x="483" y="146" type="line"/>
      <point x="487" y="145"/>
      <point x="495" y="145" type="qcurve" smooth="yes"/>
      <point x="503" y="145" type="line"/>
      <point x="510" y="144" type="line"/>
      <point x="565" y="144" type="line"/>
      <point x="572" y="145"/>
      <point x="583" y="145" type="qcurve" smooth="yes"/>
      <point x="586" y="145" type="line"/>
      <point x="589" y="146" type="line"/>
      <point x="600" y="146" type="line" smooth="yes"/>
      <point x="605" y="146"/>
      <point x="612" y="148" type="qcurve"/>
      <point x="617" y="148" type="line" smooth="yes"/>
      <point x="624" y="148"/>
      <point x="631" y="149" type="qcurve"/>
      <point x="639" y="149" type="line"/>
      <point x="646" y="151" type="line"/>
      <point x="659" y="152" type="line"/>
      <point x="686" y="157" type="line"/>
      <point x="689" y="157" type="line"/>
      <point x="697" y="159" type="line"/>
      <point x="700" y="159" type="line"/>
      <point x="711" y="162" type="line"/>
      <point x="715" y="162" type="line"/>
      <point x="751" y="170" type="line"/>
      <point x="754" y="170" type="line"/>
      <point x="758" y="172" type="line"/>
      <point x="760" y="172"/>
      <point x="760" y="173" type="qcurve"/>
      <point x="764" y="174" type="line"/>
      <point x="774" y="175"/>
      <point x="786" y="180" type="qcurve"/>
      <point x="789" y="180" type="line"/>
      <point x="793" y="182" type="line"/>
      <point x="796" y="182" type="line"/>
      <point x="818" y="188" type="line"/>
      <point x="821" y="190" type="line"/>
      <point x="831" y="192"/>
      <point x="843" y="197" type="qcurve" smooth="yes"/>
      <point x="850" y="200" type="line"/>
      <point x="851" y="200"/>
      <point x="853" y="201" type="qcurve"/>
      <point x="855" y="201"/>
      <point x="856" y="202" type="qcurve"/>
      <point x="866" y="203"/>
      <point x="877" y="209" type="qcurve"/>
      <point x="878" y="209"/>
      <point x="879" y="210" type="qcurve"/>
      <point x="902" y="218" type="line"/>
      <point x="907" y="221"/>
      <point x="915" y="223" type="qcurve"/>
      <point x="924" y="226" type="line"/>
      <point x="933" y="231" type="line"/>
      <point x="939" y="232"/>
      <point x="944" y="236" type="qcurve"/>
      <point x="950" y="238" type="line"/>
      <point x="950" y="245"/>
      <point x="947" y="254" type="qcurve"/>
      <point x="947" y="257" type="line"/>
      <point x="946" y="261"/>
      <point x="945" y="266" type="qcurve"/>
      <point x="944" y="269" type="line"/>
      <point x="943" y="275"/>
      <point x="940" y="283" type="qcurve"/>
      <point x="940" y="284"/>
      <point x="939" y="286" type="qcurve"/>
      <point x="939" y="289" type="line"/>
      <point x="937" y="292" type="line"/>
      <point x="923" y="356"/>
      <point x="870" y="404" type="qcurve"/>
      <point x="865" y="406"/>
      <point x="859" y="410" type="qcurve"/>
      <point x="855" y="413" type="line"/>
      <point x="848" y="416" type="line"/>
      <point x="844" y="417"/>
      <point x="839" y="420" type="qcurve"/>
      <point x="827" y="423" type="line"/>
      <point x="822" y="423"/>
      <point x="817" y="425" type="qcurve"/>
      <point x="810" y="425" type="line"/>
      <point x="807" y="426" type="line"/>
    </contour>
  </outline>
</glyph>
<glyph name="glyph2123" format="2">
  <advance width="2276"/>
  <outline>
    <contour>
      <point x="363" y="660" type="line" smooth="yes"/>
      <point x="387" y="660"/>
      <point x="456" y="633"/>
      <point x="530" y="599"/>
      <point x="599" y="564"/>
      <point x="620" y="558" type="qcurve"/>
      <point x="628" y="545"/>
      <point x="694" y="513"/>
      <point x="786" y="482"/>
      <point x="894" y="452"/>
      <point x="994" y="430"/>
      <point x="1073" y="416"/>
      <point x="1091" y="416" type="qcurve"/>
      <point x="1093" y="415" type="line"/>
      <point x="1127" y="414" type="line"/>
      <point x="1119" y="395"/>
      <point x="1098" y="360"/>
      <point x="1075" y="325"/>
      <point x="1054" y="290"/>
      <point x="1045" y="271" type="qcurve"/>
      <point x="1043" y="270" type="line"/>
      <point x="1035" y="254" type="line"/>
      <point x="1032" y="252" type="line"/>
      <point x="1013" y="256"/>
      <point x="976" y="261"/>
      <point x="957" y="261" type="qcurve"/>
      <point x="955" y="262" type="line"/>
      <point x="929" y="262" type="line" smooth="yes"/>
      <point x="913" y="262"/>
      <point x="883" y="257"/>
      <point x="868" y="255" type="qcurve"/>
      <point x="866" y="254" type="line"/>
      <point x="847" y="252" type="line"/>
      <point x="873" y="221"/>
      <point x="928" y="187"/>
      <point x="988" y="180"/>
      <point x="1054" y="173"/>
      <point x="1092" y="173" type="qcurve"/>
      <point x="1093" y="172" type="line"/>
      <point x="1095" y="173" type="line"/>
      <point x="1110" y="173" type="line"/>
      <point x="1110" y="179" type="line"/>
      <point x="1144" y="179"/>
      <point x="1224" y="187"/>
      <point x="1301" y="209"/>
      <point x="1367" y="249"/>
      <point x="1388" y="281" type="qcurve"/>
      <point x="1390" y="282" type="line"/>
      <point x="1405" y="297"/>
      <point x="1441" y="348"/>
      <point x="1474" y="405"/>
      <point x="1501" y="462"/>
      <point x="1506" y="481" type="qcurve"/>
      <point x="1517" y="475" type="line"/>
      <point x="1524" y="465"/>
      <point x="1526" y="443"/>
      <point x="1526" y="433" type="qcurve" smooth="yes"/>
      <point x="1526" y="422" type="line"/>
      <point x="1519" y="414"/>
      <point x="1507" y="376"/>
      <point x="1498" y="325"/>
      <point x="1491" y="269"/>
      <point x="1487" y="217"/>
      <point x="1484" y="180"/>
      <point x="1484" y="164" type="qcurve" smooth="yes"/>
      <point x="1484" y="158" type="line"/>
      <point x="1485" y="158" type="line"/>
      <point x="1482" y="114"/>
      <point x="1495" y="28"/>
      <point x="1520" y="-57"/>
      <point x="1551" y="-139"/>
      <point x="1567" y="-177" type="qcurve"/>
      <point x="1591" y="-134"/>
      <point x="1616" y="-64"/>
      <point x="1640" y="7"/>
      <point x="1677" y="87"/>
      <point x="1714" y="139" type="qcurve"/>
      <point x="1716" y="140" type="line"/>
      <point x="1736" y="165" type="line"/>
      <point x="1737" y="165"/>
      <point x="1744" y="171"/>
      <point x="1752" y="180"/>
      <point x="1759" y="186"/>
      <point x="1761" y="187" type="qcurve"/>
      <point x="1778" y="205"/>
      <point x="1833" y="254"/>
      <point x="1897" y="299"/>
      <point x="1960" y="330"/>
      <point x="1985" y="330" type="qcurve"/>
      <point x="2006" y="319" type="line"/>
      <point x="2010" y="309"/>
      <point x="2025" y="287"/>
      <point x="2043" y="266"/>
      <point x="2062" y="246"/>
      <point x="2071" y="241" type="qcurve"/>
      <point x="2072" y="239" type="line"/>
      <point x="2097" y="220"/>
      <point x="2146" y="197"/>
      <point x="2196" y="184"/>
      <point x="2251" y="179"/>
      <point x="2281" y="179" type="qcurve"/>
      <point x="2281" y="1" type="line"/>
      <point x="2274" y="-2" type="line"/>
      <point x="2261" y="-2" type="line"/>
      <point x="2228" y="-3" type="line"/>
      <point x="2147" y="-3"/>
      <point x="2021" y="78"/>
      <point x="1978" y="145" type="qcurve"/>
      <point x="1948" y="162" type="line"/>
      <point x="1936" y="161" type="line"/>
      <point x="1912" y="140"/>
      <point x="1864" y="105"/>
      <point x="1820" y="69"/>
      <point x="1777" y="26"/>
      <point x="1759" y="-2" type="qcurve"/>
      <point x="1757" y="-3"/>
      <point x="1741" y="-27"/>
      <point x="1717" y="-65"/>
      <point x="1690" y="-109"/>
      <point x="1666" y="-149"/>
      <point x="1647" y="-181"/>
      <point x="1644" y="-187" type="qcurve"/>
      <point x="1644" y="-198"/>
      <point x="1660" y="-228"/>
      <point x="1681" y="-259"/>
      <point x="1703" y="-286"/>
      <point x="1712" y="-293" type="qcurve"/>
      <point x="1713" y="-295" type="line"/>
      <point x="1734" y="-316"/>
      <point x="1785" y="-346"/>
      <point x="1812" y="-357" type="qcurve"/>
      <point x="1785" y="-426" type="line"/>
      <point x="1783" y="-428" type="line"/>
      <point x="1775" y="-453"/>
      <point x="1756" y="-502"/>
      <point x="1746" y="-526" type="qcurve"/>
      <point x="1721" y="-516"/>
      <point x="1695" y="-502" type="qcurve"/>
      <point x="1694" y="-500" type="line"/>
      <point x="1627" y="-469"/>
      <point x="1514" y="-356"/>
      <point x="1432" y="-218"/>
      <point x="1389" y="-64"/>
      <point x="1392" y="10" type="qcurve"/>
      <point x="1392" y="64" type="line"/>
      <point x="1393" y="66" type="line"/>
      <point x="1392" y="85"/>
      <point x="1395" y="125"/>
      <point x="1398" y="144" type="qcurve"/>
      <point x="1388" y="134"/>
      <point x="1338" y="90"/>
      <point x="1281" y="48"/>
      <point x="1229" y="17"/>
      <point x="1215" y="21" type="qcurve"/>
      <point x="1190" y="11"/>
      <point x="1137" y="-3"/>
      <point x="1111" y="-3" type="qcurve"/>
      <point x="1110" y="0" type="line"/>
      <point x="1030" y="-4"/>
      <point x="922" y="17"/>
      <point x="843" y="72"/>
      <point x="784" y="164"/>
      <point x="755" y="228" type="qcurve"/>
      <point x="713" y="223"/>
      <point x="624" y="187"/>
      <point x="585" y="173" type="qcurve"/>
      <point x="582" y="173" type="line"/>
      <point x="534" y="154" type="line"/>
      <point x="531" y="154" type="line"/>
      <point x="504" y="143"/>
      <point x="424" y="109"/>
      <point x="330" y="75"/>
      <point x="228" y="40"/>
      <point x="135" y="14"/>
      <point x="56" y="-1"/>
      <point x="29" y="0" type="qcurve"/>
      <point x="0" y="0" type="line"/>
      <point x="0" y="173" type="line"/>
      <point x="37" y="173" type="line"/>
      <point x="41" y="180" type="line"/>
      <point x="60" y="180" type="line"/>
      <point x="66" y="179" type="line"/>
      <point x="112" y="179"/>
      <point x="202" y="192"/>
      <point x="289" y="220"/>
      <point x="375" y="253"/>
      <point x="417" y="269" type="qcurve"/>
      <point x="420" y="269" type="line"/>
      <point x="444" y="280"/>
      <point x="492" y="301"/>
      <point x="517" y="310" type="qcurve"/>
      <point x="519" y="312" type="line"/>
      <point x="544" y="322"/>
      <point x="601" y="349"/>
      <point x="628" y="355" type="qcurve"/>
      <point x="589" y="374"/>
      <point x="491" y="426"/>
      <point x="386" y="474"/>
      <point x="284" y="507"/>
      <point x="240" y="507" type="qcurve" smooth="yes"/>
      <point x="192" y="507"/>
      <point x="133" y="469"/>
      <point x="96" y="419"/>
      <point x="69" y="369"/>
      <point x="51" y="359" type="qcurve"/>
      <point x="49" y="366" type="line"/>
      <point x="49" y="415"/>
      <point x="82" y="496"/>
      <point x="134" y="561"/>
      <point x="202" y="618"/>
      <point x="237" y="644" type="qcurve"/>
      <point x="240" y="644"/>
      <point x="259" y="648"/>
      <point x="281" y="654"/>
      <point x="299" y="659"/>
      <point x="300" y="660" type="qcurve"/>
    </contour>
    <contour>
      <point x="485" y="1205" type="line"/>
      <point x="490" y="1204"/>
      <point x="524" y="1175"/>
      <point x="563" y="1139"/>
      <point x="598" y="1107"/>
      <point x="602" y="1103" type="qcurve"/>
      <point x="604" y="1100" type="line"/>
      <point x="494" y="990" type="line"/>
      <point x="461" y="1011"/>
      <point x="404" y="1069"/>
      <point x="383" y="1101" type="qcurve"/>
    </contour>
    <contour>
      <point x="1876" y="1053"/>
      <point x="1900" y="1120"/>
      <point x="1941" y="1177"/>
      <point x="1998" y="1215"/>
      <point x="2030" y="1215" type="qcurve" smooth="yes"/>
      <point x="2040" y="1215"/>
      <point x="2058" y="1212"/>
      <point x="2066" y="1213" type="qcurve"/>
      <point x="2086" y="1205"/>
      <point x="2113" y="1174"/>
      <point x="2113" y="1152" type="qcurve" smooth="yes"/>
      <point x="2113" y="1143"/>
      <point x="2109" y="1127"/>
      <point x="2107" y="1119" type="qcurve"/>
      <point x="2058" y="1133"/>
      <point x="1961" y="1113"/>
      <point x="1920" y="1082" type="qcurve"/>
      <point x="1929" y="1069"/>
      <point x="1959" y="1036"/>
      <point x="1995" y="1006"/>
      <point x="2031" y="983"/>
      <point x="2045" y="979" type="qcurve"/>
      <point x="2057" y="989"/>
      <point x="2101" y="1015"/>
      <point x="2150" y="1041"/>
      <point x="2196" y="1059"/>
      <point x="2209" y="1059" type="qcurve" smooth="yes"/>
      <point x="2214" y="1059" type="line"/>
      <point x="2210" y="1053"/>
      <point x="2192" y="1027"/>
      <point x="2173" y="997"/>
      <point x="2156" y="972"/>
      <point x="2156" y="967" type="qcurve"/>
      <point x="2113" y="946"/>
      <point x="2032" y="892"/>
      <point x="1952" y="835"/>
      <point x="1872" y="781"/>
      <point x="1829" y="761" type="qcurve"/>
      <point x="1828" y="787"/>
      <point x="1852" y="830"/>
      <point x="1888" y="867"/>
      <point x="1931" y="897"/>
      <point x="1949" y="911" type="qcurve"/>
      <point x="1918" y="930"/>
      <point x="1876" y="986"/>
      <point x="1876" y="1023" type="qcurve" smooth="yes"/>
    </contour>
  </outline>
</glyph>
<glyph name="glyph2227" format="2">
  <advance width="1744"/>
  <outline>
    <contour>
      <point x="1367" y="333" type="qcurve"/>
      <point x="1421" y="333" type="line" smooth="yes"/>
      <point x="1431" y="333"/>
      <point x="1456" y="329"/>
      <point x="1482" y="322"/>
      <point x="1507" y="314"/>
      <point x="1516" y="310" type="qcurve"/>
      <point x="1517" y="308" type="line"/>
      <point x="1545" y="282" type="line"/>
      <point x="1555" y="256"/>
      <point x="1568" y="191"/>
      <point x="1581" y="127"/>
      <point x="1595" y="69"/>
      <point x="1606" y="49" type="qcurve"/>
      <point x="1611" y="72"/>
      <point x="1632" y="122"/>
      <point x="1652" y="135" type="qcurve"/>
      <point x="1653" y="137" type="line"/>
      <point x="1672" y="151"/>
      <point x="1721" y="172"/>
      <point x="1744" y="172" type="qcurve"/>
      <point x="1745" y="165" type="line"/>
      <point x="1745" y="0" type="line"/>
      <point x="1736" y="0" type="line" smooth="yes"/>
      <point x="1718" y="0"/>
      <point x="1683" y="-10"/>
      <point x="1665" y="-14" type="qcurve"/>
      <point x="1675" y="-34"/>
      <point x="1707" y="-59"/>
      <point x="1744" y="-79"/>
      <point x="1783" y="-97"/>
      <point x="1799" y="-109" type="qcurve"/>
      <point x="1800" y="-121" type="line"/>
      <point x="1800" y="-134"/>
      <point x="1785" y="-178"/>
      <point x="1764" y="-225"/>
      <point x="1740" y="-265"/>
      <point x="1730" y="-273" type="qcurve"/>
      <point x="1715" y="-278" type="line"/>
      <point x="1648" y="-263"/>
      <point x="1557" y="-174"/>
      <point x="1534" y="-111" type="qcurve"/>
      <point x="1536" y="-101" type="line"/>
      <point x="1536" y="-82"/>
      <point x="1522" y="-49"/>
      <point x="1518" y="-30" type="qcurve" smooth="yes"/>
      <point x="1511" y="6"/>
      <point x="1498" y="79"/>
      <point x="1468" y="137"/>
      <point x="1411" y="174"/>
      <point x="1352" y="174" type="qcurve" smooth="yes"/>
      <point x="1307" y="174"/>
      <point x="1215" y="155"/>
      <point x="1133" y="121"/>
      <point x="1051" y="75"/>
      <point x="1005" y="49" type="qcurve"/>
      <point x="1044" y="27"/>
      <point x="1142" y="19"/>
      <point x="1243" y="13"/>
      <point x="1339" y="-7"/>
      <point x="1376" y="-39" type="qcurve"/>
      <point x="1381" y="-64"/>
      <point x="1399" y="-103"/>
      <point x="1398" y="-130" type="qcurve"/>
      <point x="1397" y="-132" type="line"/>
      <point x="1399" y="-162"/>
      <point x="1375" y="-226"/>
      <point x="1361" y="-252" type="qcurve"/>
      <point x="1359" y="-253" type="line"/>
      <point x="1339" y="-290"/>
      <point x="1274" y="-342"/>
      <point x="1240" y="-364" type="qcurve"/>
      <point x="1239" y="-366" type="line"/>
      <point x="1158" y="-419" type="line"/>
      <point x="1157" y="-421" type="line"/>
      <point x="1078" y="-459"/>
      <point x="922" y="-536"/>
      <point x="841" y="-569" type="qcurve"/>
      <point x="838" y="-569" type="line"/>
      <point x="793" y="-580"/>
      <point x="711" y="-599"/>
      <point x="629" y="-611"/>
      <point x="545" y="-619"/>
      <point x="511" y="-619" type="qcurve" smooth="yes"/>
      <point x="492" y="-619"/>
      <point x="459" y="-616"/>
      <point x="418" y="-610"/>
      <point x="372" y="-603"/>
      <point x="333" y="-595"/>
      <point x="306" y="-585"/>
      <point x="304" y="-581" type="qcurve"/>
      <point x="274" y="-571"/>
      <point x="223" y="-532"/>
      <point x="198" y="-513" type="qcurve"/>
      <point x="197" y="-511" type="line"/>
      <point x="130" y="-454"/>
      <point x="57" y="-303"/>
      <point x="47" y="-216" type="qcurve"/>
      <point x="45" y="-214" type="line"/>
      <point x="45" y="-104" type="line"/>
      <point x="44" y="-102" type="line"/>
      <point x="42" y="-63"/>
      <point x="60" y="44"/>
      <point x="94" y="151"/>
      <point x="144" y="248"/>
      <point x="172" y="277" type="qcurve"/>
      <point x="185" y="283" type="line"/>
      <point x="191" y="269" type="line"/>
      <point x="190" y="256" type="line"/>
      <point x="177" y="240"/>
      <point x="172" y="197"/>
      <point x="166" y="179" type="qcurve"/>
      <point x="166" y="176" type="line"/>
      <point x="157" y="156"/>
      <point x="138" y="108"/>
      <point x="124" y="56"/>
      <point x="114" y="6"/>
      <point x="117" y="-16" type="qcurve"/>
      <point x="115" y="-17" type="line"/>
      <point x="115" y="-40" type="line"/>
      <point x="115" y="-42" type="line"/>
      <point x="115" y="-80" type="line"/>
      <point x="117" y="-82" type="line"/>
      <point x="119" y="-113"/>
      <point x="137" y="-185"/>
      <point x="167" y="-252"/>
      <point x="209" y="-311"/>
      <point x="235" y="-330" type="qcurve"/>
      <point x="236" y="-332" type="line"/>
      <point x="244" y="-339"/>
      <point x="259" y="-351"/>
      <point x="267" y="-356" type="qcurve"/>
      <point x="268" y="-358" type="line"/>
      <point x="320" y="-395"/>
      <point x="449" y="-437"/>
      <point x="513" y="-441" type="qcurve"/>
      <point x="515" y="-443" type="line"/>
      <point x="609" y="-443" type="line" smooth="yes"/>
      <point x="680" y="-443"/>
      <point x="820" y="-416"/>
      <point x="888" y="-395" type="qcurve" smooth="yes"/>
      <point x="891" y="-394"/>
      <point x="910" y="-386"/>
      <point x="930" y="-380"/>
      <point x="947" y="-374"/>
      <point x="949" y="-375" type="qcurve"/>
      <point x="1043" y="-335"/>
      <point x="1213" y="-252"/>
      <point x="1299" y="-196" type="qcurve"/>
      <point x="1276" y="-179"/>
      <point x="1219" y="-160"/>
      <point x="1157" y="-149"/>
      <point x="1095" y="-146"/>
      <point x="1068" y="-144" type="qcurve"/>
      <point x="1066" y="-143" type="line"/>
      <point x="1041" y="-140"/>
      <point x="977" y="-133"/>
      <point x="920" y="-114"/>
      <point x="880" y="-75"/>
      <point x="880" y="-36" type="qcurve" smooth="yes"/>
      <point x="880" y="8"/>
      <point x="928" y="100"/>
      <point x="1007" y="181"/>
      <point x="1109" y="249"/>
      <point x="1216" y="301"/>
      <point x="1321" y="330"/>
    </contour>
  </outline>
</glyph>
<glyph name="glyph2405" format="2">
  <advance width="1998"/>
  <outline>
    <contour>
      <point x="1502" y="1141"/>
      <point x="1506" y="1134" type="qcurve"/>
      <point x="1514" y="1124" type="line"/>
      <point x="1516" y="1122" type="line" smooth="yes"/>
      <point x="1520" y="1118"/>
      <point x="1524" y="1113" type="qcurve"/>
      <point x="1526" y="1111" type="line" smooth="yes"/>
      <point x="1530" y="1107"/>
      <point x="1534" y="1102" type="qcurve"/>
      <point x="1540" y="1094"/>
      <point x="1546" y="1090" type="qcurve"/>
      <point x="1549" y="1084"/>
      <point x="1556" y="1078" type="qcurve"/>
      <point x="1559" y="1075"/>
      <point x="1564" y="1072" type="qcurve"/>
      <point x="1565" y="1070" type="line"/>
      <point x="1566" y="1068" type="line"/>
      <point x="1576" y="1059" type="line"/>
      <point x="1578" y="1058" type="line"/>
      <point x="1581" y="1053"/>
      <point x="1587" y="1049" type="qcurve"/>
      <point x="1588" y="1047" type="line"/>
      <point x="1592" y="1043"/>
      <point x="1598" y="1039" type="qcurve"/>
      <point x="1599" y="1038" type="line"/>
      <point x="1610" y="1027" type="line" smooth="yes"/>
      <point x="1614" y="1023"/>
      <point x="1620" y="1019" type="qcurve"/>
      <point x="1621" y="1018" type="line"/>
      <point x="1632" y="1007" type="line" smooth="yes"/>
      <point x="1636" y="1003"/>
      <point x="1642" y="999" type="qcurve"/>
      <point x="1643" y="998" type="line"/>
      <point x="1648" y="994"/>
      <point x="1654" y="987" type="qcurve"/>
      <point x="1660" y="983"/>
      <point x="1664" y="978" type="qcurve"/>
      <point x="1670" y="974"/>
      <point x="1676" y="967" type="qcurve"/>
      <point x="1681" y="963"/>
      <point x="1687" y="958" type="qcurve"/>
      <point x="1690" y="955"/>
      <point x="1695" y="951" type="qcurve"/>
      <point x="1696" y="949" type="line"/>
      <point x="1698" y="947" type="line"/>
      <point x="1710" y="938" type="line"/>
      <point x="1714" y="932"/>
      <point x="1720" y="927" type="qcurve"/>
      <point x="1724" y="924"/>
      <point x="1728" y="920" type="qcurve" smooth="yes"/>
      <point x="1729" y="919" type="line"/>
      <point x="1731" y="917" type="line" smooth="yes"/>
      <point x="1734" y="914"/>
      <point x="1739" y="910" type="qcurve"/>
      <point x="1740" y="908" type="line"/>
      <point x="1742" y="906" type="line" smooth="yes"/>
      <point x="1745" y="903"/>
      <point x="1749" y="900" type="qcurve"/>
      <point x="1750" y="898" type="line"/>
      <point x="1752" y="896" type="line" smooth="yes"/>
      <point x="1755" y="893"/>
      <point x="1760" y="889" type="qcurve"/>
      <point x="1761" y="887" type="line"/>
      <point x="1762" y="885" type="line"/>
      <point x="1766" y="879"/>
      <point x="1773" y="875" type="qcurve"/>
      <point x="1781" y="864" type="line"/>
      <point x="1782" y="863" type="line"/>
      <point x="1790" y="854" type="line"/>
      <point x="1792" y="852" type="line"/>
      <point x="1795" y="848"/>
      <point x="1800" y="842" type="qcurve"/>
      <point x="1800" y="841"/>
      <point x="1802" y="841" type="qcurve"/>
      <point x="1805" y="836"/>
      <point x="1809" y="831" type="qcurve"/>
      <point x="1810" y="828" type="line"/>
      <point x="1813" y="823"/>
      <point x="1820" y="817" type="qcurve"/>
      <point x="1823" y="811"/>
      <point x="1827" y="803" type="qcurve"/>
      <point x="1832" y="798"/>
      <point x="1836" y="790" type="qcurve"/>
      <point x="1840" y="785"/>
      <point x="1842" y="779" type="qcurve"/>
      <point x="1843" y="777" type="line"/>
      <point x="1847" y="772"/>
      <point x="1851" y="763" type="qcurve"/>
      <point x="1853" y="758"/>
      <point x="1857" y="752" type="qcurve"/>
      <point x="1858" y="749" type="line"/>
      <point x="1863" y="738" type="line"/>
      <point x="1870" y="719" type="line"/>
      <point x="1873" y="712"/>
      <point x="1875" y="703" type="qcurve"/>
      <point x="1878" y="696"/>
      <point x="1880" y="686" type="qcurve"/>
      <point x="1882" y="674" type="line"/>
      <point x="1882" y="671" type="line"/>
      <point x="1883" y="669" type="line"/>
      <point x="1885" y="658" type="line"/>
      <point x="1885" y="636" type="line"/>
      <point x="1884" y="634" type="line"/>
      <point x="1884" y="630" type="line"/>
      <point x="1882" y="623"/>
      <point x="1881" y="613" type="qcurve"/>
      <point x="1871" y="581" type="line"/>
      <point x="1866" y="568" type="line"/>
      <point x="1865" y="565" type="line"/>
      <point x="1863" y="560"/>
      <point x="1860" y="553" type="qcurve"/>
      <point x="1860" y="550" type="line"/>
      <point x="1852" y="536" type="line"/>
      <point x="1850" y="529"/>
      <point x="1845" y="522" type="qcurve"/>
      <point x="1843" y="517"/>
      <point x="1840" y="511" type="qcurve"/>
      <point x="1839" y="508" type="line"/>
      <point x="1832" y="498" type="line"/>
      <point x="1831" y="495" type="line"/>
      <point x="1822" y="483" type="line" smooth="yes"/>
      <point x="1819" y="479"/>
      <point x="1816" y="471" type="qcurve"/>
      <point x="1814" y="470" type="line"/>
      <point x="1811" y="464"/>
      <point x="1804" y="458" type="qcurve"/>
      <point x="1800" y="452"/>
      <point x="1795" y="447" type="qcurve"/>
      <point x="1791" y="441"/>
      <point x="1784" y="436" type="qcurve"/>
      <point x="1780" y="432"/>
      <point x="1773" y="427" type="qcurve"/>
      <point x="1768" y="424"/>
      <point x="1763" y="419" type="qcurve"/>
      <point x="1761" y="418" type="line"/>
      <point x="1757" y="417"/>
      <point x="1753" y="413" type="qcurve"/>
      <point x="1745" y="414" type="line"/>
      <point x="1733" y="414" type="line"/>
      <point x="1731" y="415" type="line"/>
      <point x="1725" y="415" type="line"/>
      <point x="1718" y="416"/>
      <point x="1707" y="416" type="qcurve"/>
      <point x="1705" y="417" type="line"/>
      <point x="1700" y="417" type="line"/>
      <point x="1693" y="418" type="line"/>
      <point x="1690" y="418" type="line"/>
      <point x="1688" y="419" type="line"/>
      <point x="1686" y="419" type="line"/>
      <point x="1667" y="421" type="line"/>
      <point x="1659" y="423" type="line" smooth="yes"/>
      <point x="1655" y="424"/>
      <point x="1649" y="424" type="qcurve"/>
      <point x="1634" y="427" type="line"/>
      <point x="1631" y="427" type="line" smooth="yes"/>
      <point x="1624" y="427"/>
      <point x="1614" y="430" type="qcurve"/>
      <point x="1599" y="433" type="line"/>
      <point x="1597" y="434" type="line"/>
      <point x="1582" y="437" type="line"/>
      <point x="1580" y="438" type="line"/>
      <point x="1573" y="439"/>
      <point x="1563" y="442" type="qcurve"/>
      <point x="1557" y="444"/>
      <point x="1547" y="446" type="qcurve"/>
      <point x="1546" y="447" type="line"/>
      <point x="1532" y="449" type="line"/>
      <point x="1529" y="450" type="line"/>
      <point x="1524" y="451"/>
      <point x="1518" y="454" type="qcurve"/>
      <point x="1515" y="455" type="line"/>
      <point x="1512" y="455" type="line"/>
      <point x="1505" y="458"/>
      <point x="1498" y="460" type="qcurve"/>
      <point x="1490" y="462"/>
      <point x="1484" y="465" type="qcurve"/>
      <point x="1481" y="466" type="line"/>
      <point x="1475" y="467"/>
      <point x="1467" y="469" type="qcurve"/>
      <point x="1465" y="470" type="line"/>
      <point x="1458" y="473"/>
      <point x="1448" y="475" type="qcurve"/>
      <point x="1442" y="478"/>
      <point x="1433" y="481" type="qcurve"/>
      <point x="1421" y="486" type="line"/>
      <point x="1418" y="486" type="line"/>
      <point x="1412" y="488"/>
      <point x="1406" y="491" type="qcurve"/>
      <point x="1403" y="492" type="line"/>
      <point x="1398" y="494"/>
      <point x="1390" y="497" type="qcurve"/>
      <point x="1388" y="498" type="line"/>
      <point x="1375" y="503" type="line"/>
      <point x="1372" y="504" type="line"/>
      <point x="1365" y="506"/>
      <point x="1357" y="510" type="qcurve"/>
      <point x="1350" y="511"/>
      <point x="1343" y="516" type="qcurve"/>
      <point x="1337" y="518"/>
      <point x="1330" y="521" type="qcurve"/>
      <point x="1328" y="522" type="line"/>
      <point x="1322" y="524"/>
      <point x="1313" y="528" type="qcurve"/>
      <point x="1306" y="530"/>
      <point x="1298" y="535" type="qcurve"/>
      <point x="1292" y="537"/>
      <point x="1286" y="540" type="qcurve"/>
      <point x="1281" y="542"/>
      <point x="1276" y="545" type="qcurve"/>
      <point x="1269" y="543" type="line"/>
      <point x="1262" y="540"/>
      <point x="1254" y="538" type="qcurve"/>
      <point x="1245" y="536"/>
      <point x="1237" y="532" type="qcurve"/>
      <point x="1229" y="531"/>
      <point x="1221" y="527" type="qcurve"/>
      <point x="1216" y="527" type="line"/>
      <point x="1218" y="522"/>
      <point x="1224" y="517" type="qcurve"/>
      <point x="1227" y="513"/>
      <point x="1231" y="507" type="qcurve"/>
      <point x="1232" y="505" type="line"/>
      <point x="1236" y="501"/>
      <point x="1239" y="493" type="qcurve"/>
      <point x="1240" y="491" type="line"/>
      <point x="1243" y="487"/>
      <point x="1246" y="480" type="qcurve"/>
      <point x="1247" y="478" type="line"/>
      <point x="1250" y="471"/>
      <point x="1252" y="462" type="qcurve" smooth="yes"/>
      <point x="1255" y="449" type="line"/>
      <point x="1255" y="447" type="line"/>
      <point x="1256" y="445" type="line"/>
      <point x="1256" y="437" type="line"/>
      <point x="1257" y="437" type="line"/>
      <point x="1257" y="425" type="line" smooth="yes"/>
      <point x="1257" y="416"/>
      <point x="1255" y="406" type="qcurve" smooth="yes"/>
      <point x="1252" y="390" type="line"/>
      <point x="1251" y="388" type="line"/>
      <point x="1247" y="372" type="line"/>
      <point x="1245" y="366"/>
      <point x="1240" y="358" type="qcurve"/>
      <point x="1238" y="353"/>
      <point x="1234" y="347" type="qcurve"/>
      <point x="1233" y="344" type="line"/>
      <point x="1229" y="339"/>
      <point x="1227" y="331" type="qcurve"/>
      <point x="1225" y="330" type="line"/>
      <point x="1223" y="325"/>
      <point x="1217" y="320" type="qcurve"/>
      <point x="1216" y="318" type="line"/>
      <point x="1213" y="313"/>
      <point x="1207" y="306" type="qcurve"/>
      <point x="1205" y="302"/>
      <point x="1201" y="298" type="qcurve"/>
      <point x="1200" y="296" type="line"/>
      <point x="1199" y="296"/>
      <point x="1198" y="294" type="qcurve"/>
      <point x="1194" y="288"/>
      <point x="1188" y="283" type="qcurve"/>
      <point x="1184" y="278"/>
      <point x="1179" y="274" type="qcurve" smooth="yes"/>
      <point x="1173" y="269"/>
      <point x="1168" y="268" type="qcurve"/>
      <point x="1161" y="268" type="line"/>
      <point x="1155" y="270"/>
      <point x="1148" y="275" type="qcurve"/>
      <point x="1136" y="286" type="line"/>
      <point x="1133" y="289"/>
      <point x="1130" y="291" type="qcurve"/>
      <point x="1130" y="292"/>
      <point x="1128" y="293" type="qcurve"/>
      <point x="1126" y="295" type="line"/>
      <point x="1121" y="299"/>
      <point x="1117" y="303" type="qcurve"/>
      <point x="1110" y="309"/>
      <point x="1105" y="313" type="qcurve"/>
      <point x="1103" y="315" type="line" smooth="yes"/>
      <point x="1099" y="319"/>
      <point x="1093" y="323" type="qcurve"/>
      <point x="1093" y="325" type="line"/>
      <point x="1087" y="329"/>
      <point x="1080" y="335" type="qcurve"/>
      <point x="1077" y="338"/>
      <point x="1072" y="343" type="qcurve"/>
      <point x="1071" y="345" type="line"/>
      <point x="1068" y="348"/>
      <point x="1063" y="351" type="qcurve"/>
      <point x="1062" y="353" type="line"/>
      <point x="1060" y="355" type="line" smooth="yes"/>
      <point x="1057" y="358"/>
      <point x="1053" y="362" type="qcurve"/>
      <point x="1052" y="364" type="line"/>
      <point x="1050" y="366" type="line" smooth="yes"/>
      <point x="1047" y="369"/>
      <point x="1042" y="372" type="qcurve"/>
      <point x="1041" y="374" type="line"/>
      <point x="1039" y="376" type="line" smooth="yes"/>
      <point x="1036" y="379"/>
      <point x="1032" y="383" type="qcurve"/>
      <point x="1031" y="385" type="line"/>
      <point x="1029" y="387" type="line"/>
      <point x="1026" y="392"/>
      <point x="1019" y="396" type="qcurve"/>
      <point x="1018" y="398" type="line"/>
      <point x="1014" y="402"/>
      <point x="1011" y="408" type="qcurve"/>
      <point x="1009" y="409" type="line"/>
      <point x="1006" y="412"/>
      <point x="1002" y="416" type="qcurve"/>
      <point x="1001" y="418" type="line"/>
      <point x="999" y="420" type="line"/>
      <point x="996" y="424"/>
      <point x="992" y="428" type="qcurve"/>
      <point x="990" y="426" type="line"/>
      <point x="985" y="423"/>
      <point x="980" y="418" type="qcurve" smooth="yes"/>
      <point x="978" y="416" type="line" smooth="yes"/>
      <point x="974" y="412"/>
      <point x="969" y="408" type="qcurve"/>
      <point x="967" y="407" type="line"/>
      <point x="962" y="402"/>
      <point x="955" y="397" type="qcurve"/>
      <point x="950" y="392"/>
      <point x="942" y="388" type="qcurve"/>
      <point x="937" y="384"/>
      <point x="931" y="382" type="qcurve"/>
      <point x="929" y="381" type="line"/>
      <point x="924" y="377"/>
      <point x="916" y="373" type="qcurve"/>
      <point x="900" y="368" type="line" smooth="yes"/>
      <point x="893" y="366"/>
      <point x="891" y="365" type="qcurve"/>
      <point x="876" y="361"/>
      <point x="866" y="360" type="qcurve"/>
      <point x="863" y="359"/>
      <point x="858" y="359" type="qcurve" smooth="yes"/>
      <point x="846" y="359" type="line"/>
      <point x="833" y="360" type="line"/>
      <point x="831" y="361" type="line"/>
      <point x="827" y="361" type="line"/>
      <point x="822" y="362"/>
      <point x="816" y="364" type="qcurve"/>
      <point x="814" y="365" type="line"/>
      <point x="811" y="366" type="line"/>
      <point x="804" y="368"/>
      <point x="796" y="371" type="qcurve"/>
      <point x="789" y="374"/>
      <point x="783" y="378" type="qcurve"/>
      <point x="775" y="382"/>
      <point x="770" y="386" type="qcurve"/>
      <point x="765" y="391"/>
      <point x="758" y="394" type="qcurve"/>
      <point x="758" y="396" type="line"/>
      <point x="746" y="407" type="line"/>
      <point x="743" y="411"/>
      <point x="738" y="416" type="qcurve"/>
      <point x="737" y="418" type="line"/>
      <point x="733" y="422"/>
      <point x="729" y="426" type="qcurve"/>
      <point x="723" y="433"/>
      <point x="719" y="440" type="qcurve"/>
      <point x="718" y="442" type="line"/>
      <point x="715" y="446"/>
      <point x="711" y="452" type="qcurve"/>
      <point x="709" y="454" type="line"/>
      <point x="707" y="460"/>
      <point x="702" y="468" type="qcurve"/>
      <point x="697" y="480" type="line"/>
      <point x="696" y="483" type="line"/>
      <point x="693" y="489"/>
      <point x="690" y="498" type="qcurve"/>
      <point x="684" y="513" type="line"/>
      <point x="680" y="527" type="line"/>
      <point x="680" y="529" type="line"/>
      <point x="679" y="529" type="line"/>
      <point x="678" y="537"/>
      <point x="677" y="543" type="qcurve"/>
      <point x="675" y="553"/>
      <point x="674" y="563" type="qcurve"/>
      <point x="674" y="565" type="line" smooth="yes"/>
      <point x="674" y="574"/>
      <point x="665" y="577" type="qcurve"/>
      <point x="660" y="572"/>
      <point x="656" y="566" type="qcurve"/>
      <point x="651" y="559"/>
      <point x="650" y="551" type="qcurve"/>
      <point x="648" y="543"/>
      <point x="643" y="535" type="qcurve"/>
      <point x="641" y="529"/>
      <point x="637" y="521" type="qcurve" smooth="yes"/>
      <point x="634" y="515"/>
      <point x="630" y="508" type="qcurve"/>
      <point x="626" y="502"/>
      <point x="622" y="497" type="qcurve"/>
      <point x="617" y="490"/>
      <point x="613" y="486" type="qcurve"/>
      <point x="612" y="483" type="line"/>
      <point x="601" y="472" type="line"/>
      <point x="592" y="461" type="line"/>
      <point x="582" y="453" type="line"/>
      <point x="581" y="451" type="line"/>
      <point x="576" y="445"/>
      <point x="569" y="442" type="qcurve"/>
      <point x="565" y="438"/>
      <point x="560" y="434" type="qcurve" smooth="yes"/>
      <point x="554" y="429"/>
      <point x="547" y="425" type="qcurve"/>
      <point x="545" y="424" type="line"/>
      <point x="540" y="419"/>
      <point x="533" y="415" type="qcurve"/>
      <point x="521" y="407" type="line"/>
      <point x="515" y="404"/>
      <point x="507" y="399" type="qcurve"/>
      <point x="502" y="397"/>
      <point x="497" y="392" type="qcurve"/>
      <point x="494" y="391" type="line"/>
      <point x="488" y="388" type="line"/>
      <point x="482" y="385" type="line"/>
      <point x="481" y="385" type="line"/>
      <point x="481" y="384" type="line"/>
      <point x="475" y="382"/>
      <point x="467" y="378" type="qcurve" smooth="yes"/>
      <point x="461" y="375"/>
      <point x="455" y="371" type="qcurve"/>
      <point x="452" y="370" type="line"/>
      <point x="447" y="368"/>
      <point x="441" y="365" type="qcurve"/>
      <point x="438" y="364" type="line"/>
      <point x="433" y="363"/>
      <point x="429" y="359" type="qcurve"/>
      <point x="423" y="357" type="line"/>
      <point x="418" y="355"/>
      <point x="411" y="351" type="qcurve"/>
      <point x="408" y="350" type="line"/>
      <point x="401" y="348"/>
      <point x="395" y="346" type="qcurve"/>
      <point x="387" y="343"/>
      <point x="381" y="339" type="qcurve"/>
      <point x="378" y="339" type="line"/>
      <point x="372" y="336"/>
      <point x="366" y="334" type="qcurve"/>
      <point x="357" y="330"/>
      <point x="348" y="328" type="qcurve"/>
      <point x="341" y="325"/>
      <point x="333" y="322" type="qcurve"/>
      <point x="326" y="318"/>
      <point x="318" y="316" type="qcurve"/>
      <point x="303" y="309" type="line"/>
      <point x="296" y="307"/>
      <point x="287" y="304" type="qcurve"/>
      <point x="272" y="298" type="line" smooth="yes"/>
      <point x="267" y="296"/>
      <point x="261" y="292" type="qcurve"/>
      <point x="242" y="286" type="line"/>
      <point x="236" y="283"/>
      <point x="234" y="282" type="qcurve" smooth="yes"/>
      <point x="222" y="276"/>
      <point x="216" y="273" type="qcurve"/>
      <point x="208" y="270"/>
      <point x="202" y="266" type="qcurve"/>
      <point x="200" y="266" type="line"/>
      <point x="200" y="265" type="line"/>
      <point x="194" y="263"/>
      <point x="186" y="258" type="qcurve"/>
      <point x="180" y="256"/>
      <point x="174" y="251" type="qcurve"/>
      <point x="172" y="251" type="line"/>
      <point x="172" y="250" type="line"/>
      <point x="166" y="248"/>
      <point x="161" y="243" type="qcurve"/>
      <point x="159" y="243" type="line"/>
      <point x="159" y="242" type="line"/>
      <point x="153" y="239" type="line"/>
      <point x="148" y="235" type="line"/>
      <point x="146" y="234" type="line" smooth="yes"/>
      <point x="140" y="231"/>
      <point x="133" y="226" type="qcurve"/>
      <point x="127" y="223"/>
      <point x="122" y="220" type="qcurve"/>
      <point x="116" y="216"/>
      <point x="111" y="211" type="qcurve"/>
      <point x="108" y="210" type="line"/>
      <point x="103" y="206"/>
      <point x="95" y="200" type="qcurve"/>
      <point x="88" y="197"/>
      <point x="87" y="188" type="qcurve"/>
      <point x="94" y="184"/>
      <point x="102" y="182" type="qcurve"/>
      <point x="109" y="179"/>
      <point x="119" y="176" type="qcurve"/>
      <point x="125" y="174"/>
      <point x="135" y="172" type="qcurve" smooth="yes"/>
      <point x="144" y="170" type="line"/>
      <point x="148" y="169"/>
      <point x="153" y="169" type="qcurve"/>
      <point x="168" y="167" type="line"/>
      <point x="171" y="167" type="line"/>
      <point x="179" y="166"/>
      <point x="190" y="165" type="qcurve"/>
      <point x="198" y="164"/>
      <point x="209" y="164" type="qcurve"/>
      <point x="215" y="163" type="line"/>
      <point x="226" y="163" type="line"/>
      <point x="228" y="163" type="line"/>
      <point x="238" y="163" type="line"/>
      <point x="246" y="162" type="line"/>
      <point x="255" y="162" type="line"/>
      <point x="260" y="165"/>
      <point x="266" y="165" type="qcurve" smooth="yes"/>
      <point x="275" y="165" type="line"/>
      <point x="280" y="163"/>
      <point x="286" y="163" type="qcurve" smooth="yes"/>
      <point x="304" y="163" type="line"/>
      <point x="305" y="165" type="line"/>
      <point x="336" y="165" type="line"/>
      <point x="342" y="165" type="line"/>
      <point x="497" y="165" type="line"/>
      <point x="502" y="165" type="line"/>
      <point x="551" y="165" type="line"/>
      <point x="553" y="163" type="line"/>
      <point x="592" y="163" type="line"/>
      <point x="594" y="165" type="line"/>
      <point x="620" y="165" type="line"/>
      <point x="631" y="162" type="line"/>
      <point x="658" y="162" type="line"/>
      <point x="658" y="163" type="line"/>
      <point x="681" y="163" type="line" smooth="yes"/>
      <point x="686" y="163"/>
      <point x="692" y="163" type="qcurve" smooth="yes"/>
      <point x="701" y="163" type="line" smooth="yes"/>
      <point x="708" y="163"/>
      <point x="719" y="164" type="qcurve"/>
      <point x="738" y="164" type="line"/>
      <point x="738" y="164" type="line"/>
      <point x="760" y="164" type="line"/>
      <point x="762" y="165" type="line"/>
      <point x="783" y="165" type="line"/>
      <point x="786" y="166"/>
      <point x="791" y="166" type="qcurve" smooth="yes"/>
      <point x="803" y="166" type="line"/>
      <point x="814" y="167" type="line"/>
      <point x="831" y="167" type="line"/>
      <point x="831" y="167" type="line"/>
      <point x="843" y="167" type="line" smooth="yes"/>
      <point x="850" y="167"/>
      <point x="860" y="168" type="qcurve"/>
      <point x="877" y="168" type="line"/>
      <point x="877" y="169" type="line"/>
      <point x="897" y="169" type="line"/>
      <point x="899" y="170" type="line"/>
      <point x="919" y="170" type="line"/>
      <point x="919" y="171" type="line"/>
      <point x="940" y="171" type="line"/>
      <point x="940" y="172" type="line"/>
      <point x="960" y="172" type="line"/>
      <point x="960" y="173" type="line"/>
      <point x="981" y="173" type="line"/>
      <point x="983" y="175" type="line"/>
      <point x="1001" y="175" type="line"/>
      <point x="1003" y="176" type="line"/>
      <point x="1023" y="176" type="line"/>
      <point x="1023" y="177" type="line"/>
      <point x="1044" y="177" type="line"/>
      <point x="1051" y="178" type="line"/>
      <point x="1064" y="178" type="line"/>
      <point x="1071" y="179" type="line"/>
      <point x="1084" y="179" type="line"/>
      <point x="1091" y="180" type="line"/>
      <point x="1104" y="180" type="line"/>
      <point x="1111" y="181" type="line"/>
      <point x="1124" y="181" type="line"/>
      <point x="1129" y="182"/>
      <point x="1134" y="182" type="qcurve" smooth="yes"/>
      <point x="1144" y="182" type="line"/>
      <point x="1150" y="183" type="line"/>
      <point x="1164" y="183" type="line"/>
      <point x="1171" y="184"/>
      <point x="1181" y="184" type="qcurve" smooth="yes"/>
      <point x="1192" y="184" type="line"/>
      <point x="1192" y="185" type="line"/>
      <point x="1211" y="185" type="line"/>
      <point x="1216" y="186" type="line"/>
      <point x="1237" y="186" type="line"/>
      <point x="1237" y="187" type="line"/>
      <point x="1264" y="187" type="line"/>
      <point x="1266" y="188" type="line"/>
      <point x="1287" y="188" type="line"/>
      <point x="1292" y="189"/>
      <point x="1297" y="188" type="qcurve"/>
      <point x="1312" y="188" type="line"/>
      <point x="1318" y="189" type="line"/>
      <point x="1347" y="189" type="line"/>
      <point x="1347" y="195" type="line"/>
      <point x="1385" y="195" type="line"/>
      <point x="1385" y="195" type="line"/>
      <point x="1429" y="195" type="line"/>
      <point x="1435" y="195" type="line"/>
      <point x="1488" y="195" type="line"/>
      <point x="1490" y="195" type="line"/>
      <point x="1523" y="195" type="line"/>
      <point x="1525" y="195" type="line"/>
      <point x="1532" y="195" type="line"/>
      <point x="1549" y="189" type="line"/>
      <point x="1552" y="189" type="line" smooth="yes"/>
      <point x="1559" y="189"/>
      <point x="1570" y="187" type="qcurve"/>
      <point x="1578" y="187"/>
      <point x="1588" y="184" type="qcurve"/>
      <point x="1603" y="177" type="line"/>
      <point x="1608" y="172"/>
      <point x="1610" y="164" type="qcurve"/>
      <point x="1610" y="157" type="line"/>
      <point x="1609" y="156" type="line"/>
      <point x="1609" y="152" type="line"/>
      <point x="1608" y="150" type="line"/>
      <point x="1607" y="143"/>
      <point x="1605" y="134" type="qcurve"/>
      <point x="1605" y="133" type="line"/>
      <point x="1600" y="115" type="line"/>
      <point x="1597" y="109"/>
      <point x="1594" y="99" type="qcurve"/>
      <point x="1591" y="92"/>
      <point x="1588" y="85" type="qcurve" smooth="yes"/>
      <point x="1585" y="78"/>
      <point x="1582" y="71" type="qcurve"/>
      <point x="1581" y="69" type="line" smooth="yes"/>
      <point x="1578" y="63"/>
      <point x="1575" y="56" type="qcurve"/>
      <point x="1570" y="46"/>
      <point x="1566" y="39" type="qcurve"/>
      <point x="1564" y="33"/>
      <point x="1558" y="27" type="qcurve"/>
      <point x="1549" y="13" type="line"/>
      <point x="1546" y="9"/>
      <point x="1541" y="5" type="qcurve"/>
      <point x="1539" y="3" type="line"/>
      <point x="1533" y="1" type="line"/>
      <point x="1531" y="5"/>
      <point x="1528" y="10" type="qcurve"/>
      <point x="1517" y="20" type="line"/>
      <point x="1512" y="22"/>
      <point x="1506" y="26" type="qcurve"/>
      <point x="1503" y="27" type="line" smooth="yes"/>
      <point x="1497" y="29"/>
      <point x="1487" y="30" type="qcurve"/>
      <point x="1479" y="32"/>
      <point x="1467" y="32" type="qcurve" smooth="yes"/>
      <point x="1300" y="32" type="line"/>
      <point x="1294" y="31" type="line"/>
      <point x="1246" y="31" type="line"/>
      <point x="1244" y="30" type="line"/>
      <point x="1202" y="30" type="line"/>
      <point x="1200" y="30" type="line"/>
      <point x="1169" y="30" type="line"/>
      <point x="1164" y="29" type="line"/>
      <point x="1134" y="29" type="line"/>
      <point x="1129" y="28"/>
      <point x="1124" y="28" type="qcurve" smooth="yes"/>
      <point x="1103" y="28" type="line"/>
      <point x="1103" y="27" type="line"/>
      <point x="1073" y="27" type="line"/>
      <point x="1070" y="26"/>
      <point x="1066" y="26" type="qcurve" smooth="yes"/>
      <point x="1046" y="26" type="line"/>
      <point x="1046" y="25" type="line"/>
      <point x="1021" y="25" type="line"/>
      <point x="1019" y="24" type="line"/>
      <point x="995" y="24" type="line"/>
      <point x="994" y="23" type="line"/>
      <point x="973" y="23" type="line"/>
      <point x="970" y="22"/>
      <point x="965" y="22" type="qcurve" smooth="yes"/>
      <point x="953" y="22" type="line" smooth="yes"/>
      <point x="949" y="22"/>
      <point x="943" y="21" type="qcurve"/>
      <point x="926" y="21" type="line"/>
      <point x="921" y="20" type="line"/>
      <point x="900" y="20" type="line"/>
      <point x="898" y="19" type="line"/>
      <point x="878" y="19" type="line"/>
      <point x="876" y="18" type="line"/>
      <point x="855" y="18" type="line"/>
      <point x="853" y="17" type="line"/>
      <point x="832" y="17" type="line"/>
      <point x="825" y="16" type="line"/>
      <point x="812" y="16" type="line"/>
      <point x="807" y="15"/>
      <point x="801" y="15" type="qcurve" smooth="yes"/>
      <point x="792" y="15" type="line"/>
      <point x="786" y="14" type="line"/>
      <point x="764" y="14" type="line"/>
      <point x="761" y="13" type="line"/>
      <point x="744" y="13" type="line"/>
      <point x="739" y="12" type="line"/>
      <point x="718" y="12" type="line"/>
      <point x="716" y="11" type="line"/>
      <point x="694" y="11" type="line"/>
      <point x="694" y="10" type="line"/>
      <point x="670" y="10" type="line"/>
      <point x="665" y="9"/>
      <point x="659" y="10" type="qcurve"/>
      <point x="649" y="10" type="line"/>
      <point x="644" y="9"/>
      <point x="639" y="9" type="qcurve" smooth="yes"/>
      <point x="621" y="9" type="line"/>
      <point x="621" y="8" type="line"/>
      <point x="597" y="8" type="line"/>
      <point x="595" y="7" type="line"/>
      <point x="569" y="7" type="line"/>
      <point x="569" y="6" type="line"/>
      <point x="548" y="6" type="line"/>
      <point x="542" y="5" type="line"/>
      <point x="514" y="5" type="line"/>
      <point x="512" y="4" type="line"/>
      <point x="487" y="4" type="line"/>
      <point x="482" y="3" type="line"/>
      <point x="451" y="3" type="line"/>
      <point x="451" y="2" type="line"/>
      <point x="412" y="2" type="line"/>
      <point x="412" y="1" type="line"/>
      <point x="371" y="1" type="line"/>
      <point x="369" y="0" type="line"/>
      <point x="73" y="0" type="line"/>
      <point x="71" y="1" type="line"/>
      <point x="63" y="1"/>
      <point x="55" y="6" type="qcurve"/>
      <point x="49" y="7"/>
      <point x="44" y="11" type="qcurve"/>
      <point x="41" y="12" type="line"/>
      <point x="36" y="15"/>
      <point x="30" y="22" type="qcurve"/>
      <point x="24" y="26"/>
      <point x="19" y="32" type="qcurve" smooth="yes"/>
      <point x="15" y="37" type="line"/>
      <point x="11" y="44" type="line"/>
      <point x="10" y="46" type="line"/>
      <point x="6" y="53"/>
      <point x="4" y="62" type="qcurve"/>
      <point x="2" y="69"/>
      <point x="1" y="78" type="qcurve"/>
      <point x="0" y="85"/>
      <point x="0" y="93" type="qcurve" smooth="yes"/>
      <point x="0" y="135" type="line"/>
      <point x="1" y="143" type="line"/>
      <point x="2" y="145" type="line"/>
      <point x="2" y="155"/>
      <point x="5" y="161" type="qcurve"/>
      <point x="5" y="165" type="line"/>
      <point x="6" y="163"/>
      <point x="8" y="167" type="qcurve" smooth="yes"/>
      <point x="9" y="169" type="line"/>
      <point x="13" y="188" type="line"/>
      <point x="14" y="189" type="line"/>
      <point x="19" y="205" type="line"/>
      <point x="20" y="208" type="line" smooth="yes"/>
      <point x="22" y="214"/>
      <point x="27" y="222" type="qcurve"/>
      <point x="29" y="228"/>
      <point x="32" y="233" type="qcurve"/>
      <point x="33" y="236" type="line"/>
      <point x="36" y="242"/>
      <point x="41" y="250" type="qcurve" smooth="yes"/>
      <point x="44" y="255"/>
      <point x="49" y="263" type="qcurve"/>
      <point x="53" y="267"/>
      <point x="58" y="275" type="qcurve"/>
      <point x="62" y="278"/>
      <point x="67" y="284" type="qcurve"/>
      <point x="69" y="286" type="line"/>
      <point x="78" y="297" type="line"/>
      <point x="82" y="300"/>
      <point x="87" y="306" type="qcurve"/>
      <point x="89" y="308" type="line"/>
      <point x="93" y="313"/>
      <point x="100" y="318" type="qcurve"/>
      <point x="103" y="323"/>
      <point x="108" y="326" type="qcurve"/>
      <point x="110" y="328" type="line" smooth="yes"/>
      <point x="114" y="332"/>
      <point x="122" y="337" type="qcurve"/>
      <point x="127" y="342"/>
      <point x="134" y="347" type="qcurve"/>
      <point x="139" y="352"/>
      <point x="146" y="355" type="qcurve"/>
      <point x="150" y="359"/>
      <point x="156" y="363" type="qcurve"/>
      <point x="158" y="364" type="line"/>
      <point x="163" y="369"/>
      <point x="171" y="372" type="qcurve"/>
      <point x="176" y="376"/>
      <point x="184" y="381" type="qcurve" smooth="yes"/>
      <point x="189" y="384" type="line"/>
      <point x="195" y="388" type="line"/>
      <point x="203" y="391" type="line"/>
      <point x="208" y="395" type="line"/>
      <point x="210" y="395" type="line"/>
      <point x="210" y="396" type="line"/>
      <point x="215" y="398"/>
      <point x="222" y="402" type="qcurve"/>
      <point x="225" y="403" type="line"/>
      <point x="230" y="405"/>
      <point x="236" y="409" type="qcurve"/>
      <point x="238" y="409" type="line"/>
      <point x="238" y="410" type="line"/>
      <point x="245" y="412"/>
      <point x="253" y="417" type="qcurve"/>
      <point x="259" y="419"/>
      <point x="267" y="424" type="qcurve"/>
      <point x="280" y="428" type="line"/>
      <point x="283" y="429" type="line"/>
      <point x="289" y="433"/>
      <point x="298" y="436" type="qcurve"/>
      <point x="303" y="439"/>
      <point x="312" y="443" type="qcurve"/>
      <point x="318" y="445"/>
      <point x="326" y="448" type="qcurve"/>
      <point x="354" y="460" type="line"/>
      <point x="357" y="461" type="line"/>
      <point x="364" y="465" type="line"/>
      <point x="371" y="467" type="line"/>
      <point x="377" y="471"/>
      <point x="385" y="473" type="qcurve"/>
      <point x="392" y="475"/>
      <point x="398" y="479" type="qcurve"/>
      <point x="401" y="479" type="line"/>
      <point x="406" y="481"/>
      <point x="409" y="484" type="qcurve"/>
      <point x="416" y="486" type="line"/>
      <point x="421" y="488"/>
      <point x="427" y="491" type="qcurve"/>
      <point x="430" y="492" type="line"/>
      <point x="436" y="493"/>
      <point x="442" y="498" type="qcurve"/>
      <point x="444" y="498" type="line"/>
      <point x="449" y="502"/>
      <point x="459" y="505" type="qcurve"/>
      <point x="465" y="508"/>
      <point x="470" y="510" type="qcurve"/>
      <point x="479" y="514"/>
      <point x="485" y="517" type="qcurve"/>
      <point x="493" y="522"/>
      <point x="502" y="525" type="qcurve"/>
      <point x="516" y="532" type="line"/>
      <point x="521" y="534"/>
      <point x="527" y="538" type="qcurve"/>
      <point x="530" y="539" type="line"/>
      <point x="535" y="542"/>
      <point x="542" y="545" type="qcurve"/>
      <point x="549" y="549"/>
      <point x="557" y="554" type="qcurve"/>
      <point x="581" y="568" type="line"/>
      <point x="582" y="570" type="line"/>
      <point x="588" y="573"/>
      <point x="595" y="579" type="qcurve"/>
      <point x="601" y="581"/>
      <point x="605" y="586" type="qcurve"/>
      <point x="607" y="586" type="line"/>
      <point x="607" y="587" type="line"/>
      <point x="613" y="590"/>
      <point x="619" y="597" type="qcurve"/>
      <point x="624" y="600"/>
      <point x="628" y="605" type="qcurve"/>
      <point x="630" y="606" type="line"/>
      <point x="636" y="610"/>
      <point x="640" y="617" type="qcurve"/>
      <point x="646" y="621"/>
      <point x="651" y="627" type="qcurve"/>
      <point x="655" y="631"/>
      <point x="659" y="637" type="qcurve"/>
      <point x="664" y="644"/>
      <point x="670" y="650" type="qcurve"/>
      <point x="673" y="655"/>
      <point x="677" y="662" type="qcurve"/>
      <point x="678" y="664" type="line"/>
      <point x="682" y="669"/>
      <point x="686" y="676" type="qcurve"/>
      <point x="688" y="682"/>
      <point x="692" y="687" type="qcurve"/>
      <point x="693" y="690" type="line"/>
      <point x="697" y="695"/>
      <point x="701" y="703" type="qcurve"/>
      <point x="704" y="707"/>
      <point x="707" y="714" type="qcurve"/>
      <point x="709" y="716" type="line"/>
      <point x="717" y="726" type="line"/>
      <point x="719" y="727" type="line"/>
      <point x="724" y="729" type="line"/>
      <point x="730" y="721" type="line"/>
      <point x="734" y="705" type="line"/>
      <point x="735" y="703" type="line"/>
      <point x="735" y="696"/>
      <point x="738" y="688" type="qcurve"/>
      <point x="738" y="685" type="line" smooth="yes"/>
      <point x="738" y="680"/>
      <point x="740" y="676" type="qcurve"/>
      <point x="742" y="669" type="line"/>
      <point x="743" y="662"/>
      <point x="748" y="654" type="qcurve"/>
      <point x="750" y="647"/>
      <point x="754" y="639" type="qcurve"/>
      <point x="756" y="634"/>
      <point x="759" y="627" type="qcurve"/>
      <point x="760" y="624" type="line"/>
      <point x="762" y="619"/>
      <point x="767" y="613" type="qcurve"/>
      <point x="768" y="611" type="line"/>
      <point x="770" y="606"/>
      <point x="775" y="600" type="qcurve"/>
      <point x="776" y="598" type="line"/>
      <point x="779" y="593"/>
      <point x="783" y="588" type="qcurve"/>
      <point x="784" y="585" type="line"/>
      <point x="787" y="581"/>
      <point x="792" y="576" type="qcurve" smooth="yes"/>
      <point x="794" y="574" type="line"/>
      <point x="801" y="565" type="line"/>
      <point x="803" y="563" type="line" smooth="yes"/>
      <point x="807" y="559"/>
      <point x="813" y="554" type="qcurve"/>
      <point x="815" y="553" type="line"/>
      <point x="819" y="548"/>
      <point x="828" y="542" type="qcurve" smooth="yes"/>
      <point x="831" y="540"/>
      <point x="838" y="536" type="qcurve" smooth="yes"/>
      <point x="843" y="533"/>
      <point x="850" y="529" type="qcurve"/>
      <point x="853" y="528" type="line" smooth="yes"/>
      <point x="859" y="526"/>
      <point x="865" y="524" type="qcurve" smooth="yes"/>
      <point x="868" y="523" type="line"/>
      <point x="872" y="523"/>
      <point x="876" y="521" type="qcurve"/>
      <point x="880" y="521"/>
      <point x="886" y="519" type="qcurve"/>
      <point x="894" y="518"/>
      <point x="905" y="518" type="qcurve" smooth="yes"/>
      <point x="921" y="518" type="line"/>
      <point x="921" y="519" type="line"/>
      <point x="925" y="519" type="line" smooth="yes"/>
      <point x="930" y="519"/>
      <point x="935" y="521" type="qcurve"/>
      <point x="943" y="522" type="line"/>
      <point x="958" y="526" type="line"/>
      <point x="961" y="526" type="line"/>
      <point x="968" y="528"/>
      <point x="974" y="530" type="qcurve"/>
      <point x="981" y="533"/>
      <point x="988" y="537" type="qcurve"/>
      <point x="990" y="538" type="line"/>
      <point x="995" y="541"/>
      <point x="999" y="546" type="qcurve"/>
      <point x="1002" y="546" type="line"/>
      <point x="1007" y="551"/>
      <point x="1014" y="556" type="qcurve"/>
      <point x="1019" y="562"/>
      <point x="1026" y="565" type="qcurve"/>
      <point x="1030" y="570"/>
      <point x="1037" y="575" type="qcurve"/>
      <point x="1041" y="579"/>
      <point x="1049" y="585" type="qcurve"/>
      <point x="1061" y="593" type="line"/>
      <point x="1066" y="596"/>
      <point x="1073" y="600" type="qcurve"/>
      <point x="1074" y="601" type="line"/>
      <point x="1079" y="605"/>
      <point x="1089" y="607" type="qcurve"/>
      <point x="1104" y="613" type="line"/>
      <point x="1119" y="616" type="line"/>
      <point x="1121" y="617" type="line"/>
      <point x="1135" y="621" type="line"/>
      <point x="1137" y="622" type="line"/>
      <point x="1153" y="626" type="line"/>
      <point x="1160" y="630"/>
      <point x="1169" y="632" type="qcurve"/>
      <point x="1176" y="635"/>
      <point x="1184" y="638" type="qcurve"/>
      <point x="1191" y="642"/>
      <point x="1199" y="644" type="qcurve"/>
      <point x="1214" y="649" type="line"/>
      <point x="1226" y="651" type="line"/>
      <point x="1226" y="665" type="line"/>
      <point x="1225" y="677" type="line"/>
      <point x="1226" y="679" type="line"/>
      <point x="1226" y="700" type="line"/>
      <point x="1228" y="708"/>
      <point x="1228" y="719" type="qcurve"/>
      <point x="1231" y="734" type="line"/>
      <point x="1231" y="738" type="line"/>
      <point x="1232" y="744"/>
      <point x="1233" y="753" type="qcurve"/>
      <point x="1234" y="755" type="line"/>
      <point x="1235" y="762"/>
      <point x="1238" y="772" type="qcurve" smooth="yes"/>
      <point x="1242" y="785" type="line"/>
      <point x="1243" y="788" type="line"/>
      <point x="1245" y="795"/>
      <point x="1249" y="803" type="qcurve"/>
      <point x="1250" y="810"/>
      <point x="1254" y="819" type="qcurve"/>
      <point x="1256" y="826"/>
      <point x="1261" y="834" type="qcurve"/>
      <point x="1263" y="839"/>
      <point x="1267" y="845" type="qcurve"/>
      <point x="1268" y="847" type="line"/>
      <point x="1271" y="854"/>
      <point x="1275" y="861" type="qcurve"/>
      <point x="1278" y="867"/>
      <point x="1283" y="875" type="qcurve"/>
      <point x="1285" y="880"/>
      <point x="1290" y="885" type="qcurve"/>
      <point x="1290" y="887" type="line"/>
      <point x="1299" y="900" type="line"/>
      <point x="1302" y="906"/>
      <point x="1309" y="912" type="qcurve"/>
      <point x="1312" y="916"/>
      <point x="1315" y="922" type="qcurve"/>
      <point x="1317" y="923" type="line"/>
      <point x="1320" y="929"/>
      <point x="1327" y="935" type="qcurve"/>
      <point x="1330" y="941"/>
      <point x="1336" y="946" type="qcurve"/>
      <point x="1340" y="952"/>
      <point x="1347" y="958" type="qcurve"/>
      <point x="1356" y="969" type="line"/>
      <point x="1362" y="973"/>
      <point x="1367" y="979" type="qcurve"/>
      <point x="1373" y="983"/>
      <point x="1377" y="990" type="qcurve"/>
      <point x="1381" y="993"/>
      <point x="1387" y="998" type="qcurve"/>
      <point x="1388" y="999" type="line" smooth="yes"/>
      <point x="1392" y="1003"/>
      <point x="1399" y="1010" type="qcurve"/>
      <point x="1404" y="1013"/>
      <point x="1408" y="1018" type="qcurve"/>
      <point x="1410" y="1019" type="line"/>
      <point x="1413" y="1023"/>
      <point x="1417" y="1031" type="qcurve"/>
      <point x="1419" y="1032" type="line"/>
      <point x="1422" y="1038"/>
      <point x="1428" y="1044" type="qcurve"/>
      <point x="1431" y="1050"/>
      <point x="1436" y="1057" type="qcurve"/>
      <point x="1439" y="1063"/>
      <point x="1445" y="1069" type="qcurve"/>
      <point x="1448" y="1075"/>
      <point x="1453" y="1081" type="qcurve"/>
      <point x="1455" y="1086"/>
      <point x="1460" y="1092" type="qcurve"/>
      <point x="1461" y="1095" type="line"/>
      <point x="1466" y="1100"/>
      <point x="1469" y="1107" type="qcurve"/>
      <point x="1475" y="1112"/>
      <point x="1478" y="1119" type="qcurve"/>
      <point x="1483" y="1124"/>
      <point x="1487" y="1132" type="qcurve"/>
      <point x="1491" y="1136"/>
      <point x="1495" y="1144" type="qcurve"/>
    </contour>
    <contour>
      <point x="1447" y="917" type="line"/>
      <point x="1441" y="916"/>
      <point x="1435" y="913" type="qcurve"/>
      <point x="1429" y="913"/>
      <point x="1424" y="909" type="qcurve"/>
      <point x="1419" y="908"/>
      <point x="1412" y="905" type="qcurve"/>
      <point x="1408" y="903"/>
      <point x="1407" y="903" type="qcurve"/>
      <point x="1398" y="898"/>
      <point x="1395" y="896" type="qcurve"/>
      <point x="1387" y="893"/>
      <point x="1383" y="889" type="qcurve"/>
      <point x="1379" y="888"/>
      <point x="1375" y="884" type="qcurve"/>
      <point x="1373" y="883" type="line"/>
      <point x="1369" y="880"/>
      <point x="1366" y="878" type="qcurve"/>
      <point x="1362" y="875"/>
      <point x="1358" y="871" type="qcurve"/>
      <point x="1356" y="870" type="line"/>
      <point x="1342" y="858" type="line"/>
      <point x="1340" y="856" type="line" smooth="yes"/>
      <point x="1337" y="853"/>
      <point x="1332" y="848" type="qcurve" smooth="yes"/>
      <point x="1329" y="845"/>
      <point x="1325" y="841" type="qcurve" smooth="yes"/>
      <point x="1322" y="838"/>
      <point x="1321" y="837" type="qcurve" smooth="yes"/>
      <point x="1314" y="830"/>
      <point x="1311" y="825" type="qcurve"/>
      <point x="1308" y="821"/>
      <point x="1303" y="817" type="qcurve"/>
      <point x="1300" y="813"/>
      <point x="1295" y="808" type="qcurve"/>
      <point x="1293" y="804"/>
      <point x="1285" y="796"/>
      <point x="1284" y="789" type="qcurve"/>
      <point x="1284" y="783" type="line"/>
      <point x="1285" y="778" type="line"/>
      <point x="1285" y="775" type="line"/>
      <point x="1286" y="770"/>
      <point x="1289" y="763" type="qcurve"/>
      <point x="1292" y="752" type="line"/>
      <point x="1295" y="748"/>
      <point x="1297" y="742" type="qcurve"/>
      <point x="1304" y="732" type="line" smooth="yes"/>
      <point x="1306" y="729"/>
      <point x="1310" y="725" type="qcurve"/>
      <point x="1310" y="723" type="line"/>
      <point x="1313" y="719"/>
      <point x="1318" y="716" type="qcurve"/>
      <point x="1320" y="712"/>
      <point x="1324" y="708" type="qcurve"/>
      <point x="1328" y="703"/>
      <point x="1333" y="701" type="qcurve"/>
      <point x="1337" y="697"/>
      <point x="1343" y="695" type="qcurve"/>
      <point x="1351" y="694" type="line"/>
      <point x="1357" y="694" type="line" smooth="yes"/>
      <point x="1363" y="694"/>
      <point x="1370" y="696" type="qcurve"/>
      <point x="1375" y="697"/>
      <point x="1379" y="698" type="qcurve"/>
      <point x="1388" y="700"/>
      <point x="1395" y="702" type="qcurve"/>
      <point x="1400" y="703"/>
      <point x="1407" y="705" type="qcurve"/>
      <point x="1413" y="706"/>
      <point x="1419" y="708" type="qcurve"/>
      <point x="1430" y="712" type="line"/>
      <point x="1435" y="714"/>
      <point x="1438" y="715" type="qcurve"/>
      <point x="1446" y="718"/>
      <point x="1450" y="720" type="qcurve" smooth="yes"/>
      <point x="1452" y="721" type="line"/>
      <point x="1458" y="722"/>
      <point x="1463" y="725" type="qcurve"/>
      <point x="1474" y="729" type="line"/>
      <point x="1479" y="732"/>
      <point x="1485" y="734" type="qcurve"/>
      <point x="1495" y="741" type="line"/>
      <point x="1499" y="743"/>
      <point x="1506" y="745" type="qcurve"/>
      <point x="1510" y="748"/>
      <point x="1515" y="751" type="qcurve"/>
      <point x="1519" y="753"/>
      <point x="1523" y="756" type="qcurve"/>
      <point x="1534" y="762" type="line"/>
      <point x="1544" y="768" type="line"/>
      <point x="1550" y="770"/>
      <point x="1550" y="776" type="qcurve"/>
      <point x="1548" y="787" type="line"/>
      <point x="1548" y="790" type="line"/>
      <point x="1546" y="795"/>
      <point x="1546" y="802" type="qcurve"/>
      <point x="1544" y="807"/>
      <point x="1543" y="814" type="qcurve"/>
      <point x="1541" y="819"/>
      <point x="1539" y="825" type="qcurve"/>
      <point x="1534" y="837" type="line"/>
      <point x="1532" y="841"/>
      <point x="1532" y="842" type="qcurve"/>
      <point x="1527" y="851"/>
      <point x="1525" y="857" type="qcurve"/>
      <point x="1522" y="861"/>
      <point x="1521" y="863" type="qcurve"/>
      <point x="1517" y="870"/>
      <point x="1513" y="875" type="qcurve" smooth="yes"/>
      <point x="1509" y="880"/>
      <point x="1506" y="884" type="qcurve"/>
      <point x="1502" y="887"/>
      <point x="1499" y="892" type="qcurve"/>
      <point x="1495" y="895"/>
      <point x="1490" y="900" type="qcurve"/>
      <point x="1482" y="906" type="line"/>
      <point x="1474" y="911" type="line"/>
      <point x="1472" y="912" type="line"/>
      <point x="1464" y="915" type="line"/>
      <point x="1462" y="916" type="line"/>
      <point x="1453" y="917" type="line"/>
    </contour>
    <contour>
      <point x="1611" y="814"/>
      <point x="1611" y="806" type="qcurve"/>
      <point x="1610" y="804" type="line"/>
      <point x="1609" y="798"/>
      <point x="1607" y="791" type="qcurve" smooth="yes"/>
      <point x="1605" y="784"/>
      <point x="1605" y="777" type="qcurve"/>
      <point x="1602" y="771"/>
      <point x="1601" y="763" type="qcurve"/>
      <point x="1596" y="751" type="line"/>
      <point x="1595" y="745"/>
      <point x="1591" y="739" type="qcurve"/>
      <point x="1589" y="733"/>
      <point x="1586" y="725" type="qcurve"/>
      <point x="1585" y="721"/>
      <point x="1583" y="718" type="qcurve"/>
      <point x="1579" y="710"/>
      <point x="1575" y="703" type="qcurve" smooth="yes"/>
      <point x="1569" y="693" type="line"/>
      <point x="1567" y="689"/>
      <point x="1563" y="683" type="qcurve"/>
      <point x="1560" y="679"/>
      <point x="1556" y="673" type="qcurve"/>
      <point x="1553" y="670"/>
      <point x="1550" y="665" type="qcurve"/>
      <point x="1548" y="664" type="line"/>
      <point x="1545" y="660"/>
      <point x="1541" y="655" type="qcurve"/>
      <point x="1538" y="652"/>
      <point x="1534" y="647" type="qcurve"/>
      <point x="1532" y="646" type="line"/>
      <point x="1529" y="643"/>
      <point x="1524" y="639" type="qcurve"/>
      <point x="1515" y="631" type="line"/>
      <point x="1528" y="627" type="line" smooth="yes"/>
      <point x="1534" y="625"/>
      <point x="1541" y="624" type="qcurve"/>
      <point x="1547" y="622"/>
      <point x="1553" y="619" type="qcurve"/>
      <point x="1559" y="618"/>
      <point x="1566" y="615" type="qcurve"/>
      <point x="1577" y="612" type="line"/>
      <point x="1579" y="611" type="line"/>
      <point x="1605" y="604" type="line"/>
      <point x="1611" y="603"/>
      <point x="1617" y="601" type="qcurve"/>
      <point x="1624" y="598"/>
      <point x="1632" y="597" type="qcurve"/>
      <point x="1637" y="595"/>
      <point x="1644" y="593" type="qcurve"/>
      <point x="1649" y="592"/>
      <point x="1656" y="590" type="qcurve"/>
      <point x="1659" y="590" type="line"/>
      <point x="1671" y="586" type="line"/>
      <point x="1677" y="585"/>
      <point x="1685" y="584" type="qcurve"/>
      <point x="1691" y="584"/>
      <point x="1699" y="581" type="qcurve"/>
      <point x="1704" y="581"/>
      <point x="1712" y="579" type="qcurve"/>
      <point x="1715" y="579" type="line"/>
      <point x="1729" y="576" type="line"/>
      <point x="1743" y="575" type="line"/>
      <point x="1744" y="574" type="line"/>
      <point x="1750" y="574" type="line"/>
      <point x="1757" y="573" type="line"/>
      <point x="1768" y="573" type="line"/>
      <point x="1770" y="572" type="line"/>
      <point x="1792" y="572" type="line"/>
      <point x="1800" y="573" type="line"/>
      <point x="1805" y="573" type="line"/>
      <point x="1804" y="574" type="line"/>
      <point x="1803" y="580"/>
      <point x="1802" y="582" type="qcurve"/>
      <point x="1800" y="593"/>
      <point x="1796" y="599" type="qcurve"/>
      <point x="1795" y="604"/>
      <point x="1791" y="611" type="qcurve"/>
      <point x="1789" y="616"/>
      <point x="1785" y="623" type="qcurve"/>
      <point x="1783" y="628"/>
      <point x="1780" y="633" type="qcurve"/>
      <point x="1774" y="644" type="line"/>
      <point x="1772" y="648"/>
      <point x="1767" y="654" type="qcurve"/>
      <point x="1765" y="659"/>
      <point x="1761" y="664" type="qcurve"/>
      <point x="1759" y="668"/>
      <point x="1754" y="674" type="qcurve"/>
      <point x="1747" y="683" type="line"/>
      <point x="1743" y="687"/>
      <point x="1740" y="694" type="qcurve"/>
      <point x="1737" y="697"/>
      <point x="1732" y="703" type="qcurve"/>
      <point x="1724" y="712" type="line"/>
      <point x="1721" y="715"/>
      <point x="1719" y="718" type="qcurve"/>
      <point x="1714" y="724"/>
      <point x="1709" y="729" type="qcurve"/>
      <point x="1705" y="732"/>
      <point x="1701" y="737" type="qcurve"/>
      <point x="1700" y="739" type="line"/>
      <point x="1697" y="743"/>
      <point x="1692" y="747" type="qcurve"/>
      <point x="1689" y="750"/>
      <point x="1684" y="754" type="qcurve"/>
      <point x="1684" y="756" type="line"/>
      <point x="1681" y="759"/>
      <point x="1676" y="762" type="qcurve"/>
      <point x="1675" y="764" type="line"/>
      <point x="1671" y="767"/>
      <point x="1666" y="772" type="qcurve" smooth="yes"/>
      <point x="1663" y="775"/>
      <point x="1659" y="779" type="qcurve"/>
      <point x="1658" y="781" type="line"/>
      <point x="1654" y="783"/>
      <point x="1649" y="788" type="qcurve"/>
      <point x="1645" y="791"/>
      <point x="1640" y="796" type="qcurve"/>
      <point x="1631" y="804" type="line"/>
      <point x="1628" y="807"/>
      <point x="1622" y="811" type="qcurve"/>
      <point x="1619" y="816"/>
      <point x="1613" y="819" type="qcurve"/>
    </contour>
  </outline>
</glyph>
<glyph name="uni0675.fina" format="2">
  <advance width="492"/>
  <anchor x="14" y="1699" name="t.uni064B"/>
  <anchor x="257" y="-186" name="b.uni064D_1"/>
  <outline>
    <contour>
      <point x="128" y="1497" type="line"/>
      <point x="131" y="1492"/>
      <point x="132" y="1486" type="qcurve"/>
      <point x="174" y="961" type="line"/>
      <point x="174" y="951" type="line"/>
      <point x="175" y="947" type="line"/>
      <point x="220" y="410" type="line"/>
      <point x="226" y="385" type="line"/>
      <point x="227" y="379"/>
      <point x="228" y="373" type="qcurve"/>
      <point x="250" y="304" type="line"/>
      <point x="266" y="273" type="line"/>
      <point x="268" y="268"/>
      <point x="272" y="264" type="qcurve"/>
      <point x="291" y="237" type="line"/>
      <point x="299" y="229" type="line"/>
      <point x="302" y="225"/>
      <point x="306" y="222" type="qcurve" smooth="yes"/>
      <point x="341" y="195" type="line"/>
      <point x="362" y="185" type="line"/>
      <point x="409" y="171" type="line"/>
      <point x="493" y="171" type="line"/>
      <point x="493" y="0" type="line"/>
      <point x="465" y="-3" type="line"/>
      <point x="404" y="-3" type="line"/>
      <point x="339" y="9" type="line"/>
      <point x="283" y="30" type="line"/>
      <point x="245" y="52" type="line"/>
      <point x="212" y="82" type="line"/>
      <point x="185" y="115" type="line"/>
      <point x="148" y="185" type="line"/>
      <point x="121" y="281" type="line"/>
      <point x="119" y="294" type="line"/>
      <point x="92" y="726" type="line"/>
      <point x="91" y="733"/>
      <point x="91" y="741" type="qcurve"/>
      <point x="80" y="911" type="line"/>
      <point x="79" y="913" type="line"/>
      <point x="36" y="1355" type="line"/>
    </contour>
  </outline>
</glyph>
<glyph name="uni06DD.alt1" format="2">
  <advance width="2353"/>
  <outline>
    <contour>
      <point x="2317" y="404" type="line"/>
      <point x="2228" y="757"/>
      <point x="2099" y="869" type="qcurve" smooth="yes"/>
      <point x="2070" y="894"/>
      <point x="1985" y="937"/>
      <point x="1907" y="967" type="qcurve" smooth="yes"/>
      <point x="1835" y="994"/>
      <point x="1705" y="1052"/>
      <point x="1657" y="1078" type="qcurve" smooth="yes"/>
      <point x="1613" y="1101"/>
      <point x="1538" y="1173" type="qcurve" smooth="yes"/>
      <point x="1529" y="1182"/>
      <point x="1472" y="1237"/>
      <point x="1428" y="1283" type="qcurve"/>
      <point x="887" y="1283" type="line"/>
      <point x="716" y="1109"/>
      <point x="659" y="1078" type="qcurve" smooth="yes"/>
      <point x="611" y="1052"/>
      <point x="481" y="994"/>
      <point x="396" y="962" type="qcurve" smooth="yes"/>
      <point x="330" y="937"/>
      <point x="246" y="894"/>
      <point x="217" y="869" type="qcurve" smooth="yes"/>
      <point x="91" y="758"/>
      <point x="0" y="404" type="qcurve"/>
      <point x="0" y="25" type="line"/>
      <point x="90" y="-332"/>
      <point x="225" y="-449" type="qcurve" smooth="yes"/>
      <point x="266" y="-485"/>
      <point x="396" y="-535" type="qcurve" smooth="yes"/>
      <point x="481" y="-567"/>
      <point x="611" y="-625"/>
      <point x="659" y="-651" type="qcurve" smooth="yes"/>
      <point x="705" y="-676"/>
      <point x="767" y="-734" type="qcurve" smooth="yes"/>
      <point x="788" y="-754"/>
      <point x="843" y="-810"/>
      <point x="887" y="-856" type="qcurve"/>
      <point x="1428" y="-856" type="line"/>
      <point x="1514" y="-769"/>
      <point x="1627" y="-667"/>
      <point x="1657" y="-651" type="qcurve" smooth="yes"/>
      <point x="1706" y="-625"/>
      <point x="1836" y="-567"/>
      <point x="1919" y="-535" type="qcurve" smooth="yes"/>
      <point x="2048" y="-486"/>
      <point x="2091" y="-449" type="qcurve" smooth="yes"/>
      <point x="2227" y="-331"/>
      <point x="2317" y="25" type="qcurve"/>
    </contour>
    <contour>
      <point x="2239" y="54" type="line"/>
      <point x="2135" y="-268"/>
      <point x="2019" y="-384" type="qcurve" smooth="yes"/>
      <point x="1978" y="-425"/>
      <point x="1819" y="-487" type="qcurve" smooth="yes"/>
      <point x="1730" y="-522"/>
      <point x="1617" y="-572"/>
      <point x="1593" y="-588" type="qcurve" smooth="yes"/>
      <point x="1503" y="-646"/>
      <point x="1387" y="-773" type="qcurve"/>
      <point x="929" y="-773" type="line"/>
      <point x="813" y="-646"/>
      <point x="723" y="-588" type="qcurve" smooth="yes"/>
      <point x="699" y="-572"/>
      <point x="587" y="-522"/>
      <point x="498" y="-487" type="qcurve" smooth="yes"/>
      <point x="338" y="-425"/>
      <point x="297" y="-384" type="qcurve" smooth="yes"/>
      <point x="181" y="-267"/>
      <point x="78" y="54" type="qcurve"/>
      <point x="78" y="373" type="line"/>
      <point x="180" y="696"/>
      <point x="297" y="812" type="qcurve" smooth="yes"/>
      <point x="337" y="852"/>
      <point x="498" y="915" type="qcurve" smooth="yes"/>
      <point x="678" y="985"/>
      <point x="723" y="1015" type="qcurve" smooth="yes"/>
      <point x="812" y="1074"/>
      <point x="929" y="1200" type="qcurve"/>
      <point x="1172" y="1200"/>
      <point x="1387" y="1200" type="qcurve"/>
      <point x="1504" y="1074"/>
      <point x="1593" y="1015" type="qcurve" smooth="yes"/>
      <point x="1639" y="985"/>
      <point x="1819" y="915" type="qcurve" smooth="yes"/>
      <point x="1980" y="852"/>
      <point x="2019" y="812" type="qcurve" smooth="yes"/>
      <point x="2136" y="696"/>
      <point x="2239" y="373" type="qcurve"/>
    </contour>
    <contour>
      <point x="172" y="16" type="line"/>
      <point x="222" y="-47"/>
      <point x="256" y="-64" type="qcurve"/>
      <point x="346" y="-98"/>
      <point x="395" y="-109" type="qcurve"/>
      <point x="430" y="-135"/>
      <point x="481" y="-178"/>
      <point x="497" y="-194" type="qcurve"/>
      <point x="530" y="-214"/>
      <point x="581" y="-243"/>
      <point x="599" y="-250" type="qcurve"/>
      <point x="1718" y="-250" type="line"/>
      <point x="1787" y="-209"/>
      <point x="1820" y="-194" type="qcurve"/>
      <point x="1831" y="-185"/>
      <point x="1869" y="-149" type="qcurve" smooth="yes"/>
      <point x="1900" y="-119"/>
      <point x="1921" y="-109" type="qcurve"/>
      <point x="2010" y="-77"/>
      <point x="2060" y="-64" type="qcurve"/>
      <point x="2070" y="-59"/>
      <point x="2093" y="-39"/>
      <point x="2106" y="-24" type="qcurve"/>
      <point x="2115" y="-13"/>
      <point x="2135" y="12"/>
      <point x="2145" y="25" type="qcurve"/>
      <point x="2145" y="412" type="line"/>
      <point x="2094" y="475"/>
      <point x="2060" y="492" type="qcurve"/>
      <point x="1970" y="526"/>
      <point x="1921" y="538" type="qcurve"/>
      <point x="1886" y="564"/>
      <point x="1836" y="606"/>
      <point x="1820" y="622" type="qcurve"/>
      <point x="1787" y="642"/>
      <point x="1735" y="670"/>
      <point x="1718" y="678" type="qcurve"/>
      <point x="599" y="678" type="line"/>
      <point x="530" y="638"/>
      <point x="497" y="622" type="qcurve"/>
      <point x="486" y="614"/>
      <point x="447" y="578" type="qcurve" smooth="yes"/>
      <point x="415" y="549"/>
      <point x="395" y="538" type="qcurve"/>
      <point x="306" y="506"/>
      <point x="256" y="492" type="qcurve"/>
      <point x="246" y="487"/>
      <point x="224" y="467"/>
      <point x="211" y="453" type="qcurve"/>
      <point x="201" y="441"/>
      <point x="182" y="416"/>
      <point x="172" y="404" type="qcurve"/>
    </contour>
    <contour>
      <point x="1680" y="622" type="line"/>
      <point x="1715" y="603"/>
      <point x="1770" y="571"/>
      <point x="1786" y="559" type="qcurve" smooth="yes"/>
      <point x="1804" y="546"/>
      <point x="1823" y="526" type="qcurve" smooth="yes"/>
      <point x="1850" y="498"/>
      <point x="1870" y="487" type="qcurve"/>
      <point x="1913" y="473"/>
      <point x="1978" y="454"/>
      <point x="2003" y="449" type="qcurve"/>
      <point x="2055" y="430"/>
      <point x="2077" y="378" type="qcurve"/>
      <point x="2077" y="59" type="line"/>
      <point x="2049" y="-5"/>
      <point x="2003" y="-21" type="qcurve" smooth="yes"/>
      <point x="1960" y="-35"/>
      <point x="1895" y="-53"/>
      <point x="1870" y="-60" type="qcurve"/>
      <point x="1811" y="-105"/>
      <point x="1790" y="-128" type="qcurve"/>
      <point x="1705" y="-187"/>
      <point x="1680" y="-194" type="qcurve"/>
      <point x="637" y="-194" type="line"/>
      <point x="602" y="-175"/>
      <point x="546" y="-143"/>
      <point x="527" y="-128" type="qcurve"/>
      <point x="512" y="-117"/>
      <point x="495" y="-99" type="qcurve" smooth="yes"/>
      <point x="466" y="-69"/>
      <point x="446" y="-59" type="qcurve"/>
      <point x="403" y="-45"/>
      <point x="338" y="-26"/>
      <point x="313" y="-21" type="qcurve"/>
      <point x="261" y="-2"/>
      <point x="240" y="50" type="qcurve"/>
      <point x="240" y="369" type="line"/>
      <point x="268" y="432"/>
      <point x="313" y="449" type="qcurve"/>
      <point x="356" y="462"/>
      <point x="422" y="482"/>
      <point x="446" y="488" type="qcurve"/>
      <point x="504" y="532"/>
      <point x="526" y="557" type="qcurve"/>
      <point x="611" y="616"/>
      <point x="637" y="622" type="qcurve"/>
    </contour>
    <contour>
      <point x="1926" y="-199"/>
      <point x="1896" y="-217" type="qcurve"/>
      <point x="1880" y="-226"/>
      <point x="1858" y="-254" type="qcurve"/>
      <point x="1847" y="-269"/>
      <point x="1822" y="-292"/>
      <point x="1809" y="-302" type="qcurve"/>
      <point x="1779" y="-322"/>
      <point x="1698" y="-345" type="qcurve" smooth="yes"/>
      <point x="1668" y="-353"/>
      <point x="1618" y="-370"/>
      <point x="1605" y="-377" type="qcurve"/>
      <point x="1547" y="-405"/>
      <point x="1465" y="-444"/>
      <point x="1438" y="-457" type="qcurve"/>
      <point x="878" y="-457" type="line"/>
      <point x="776" y="-409"/>
      <point x="710" y="-377" type="qcurve" smooth="yes"/>
      <point x="689" y="-367"/>
      <point x="608" y="-342" type="qcurve" smooth="yes"/>
      <point x="537" y="-322"/>
      <point x="505" y="-300" type="qcurve" smooth="yes"/>
      <point x="482" y="-284"/>
      <point x="460" y="-256" type="qcurve" smooth="yes"/>
      <point x="437" y="-226"/>
      <point x="415" y="-214" type="qcurve" smooth="yes"/>
      <point x="390" y="-200"/>
      <point x="346" y="-195" type="qcurve"/>
      <point x="331" y="-195"/>
      <point x="330" y="-195" type="qcurve" smooth="yes"/>
      <point x="303" y="-195"/>
      <point x="287" y="-194" type="qcurve"/>
      <point x="294" y="-210"/>
      <point x="328" y="-230" type="qcurve" smooth="yes"/>
      <point x="359" y="-248"/>
      <point x="370" y="-264" type="qcurve"/>
      <point x="377" y="-275"/>
      <point x="391" y="-309" type="qcurve" smooth="yes"/>
      <point x="401" y="-333"/>
      <point x="432" y="-356" type="qcurve" smooth="yes"/>
      <point x="455" y="-374"/>
      <point x="521" y="-404"/>
      <point x="570" y="-421" type="qcurve" smooth="yes"/>
      <point x="694" y="-463"/>
      <point x="710" y="-469" type="qcurve"/>
      <point x="771" y="-506"/>
      <point x="859" y="-566"/>
      <point x="887" y="-588" type="qcurve"/>
      <point x="1428" y="-588" type="line"/>
      <point x="1435" y="-584"/>
      <point x="1511" y="-528" type="qcurve" smooth="yes"/>
      <point x="1569" y="-485"/>
      <point x="1598" y="-472" type="qcurve" smooth="yes"/>
      <point x="1621" y="-462"/>
      <point x="1745" y="-421" type="qcurve" smooth="yes"/>
      <point x="1794" y="-405"/>
      <point x="1861" y="-373"/>
      <point x="1880" y="-360" type="qcurve"/>
      <point x="1914" y="-333"/>
      <point x="1924" y="-309" type="qcurve" smooth="yes"/>
      <point x="1939" y="-272"/>
      <point x="1944" y="-267" type="qcurve"/>
      <point x="1956" y="-249"/>
      <point x="1989" y="-230" type="qcurve" smooth="yes"/>
      <point x="2022" y="-211"/>
      <point x="2028" y="-194" type="qcurve"/>
    </contour>
    <contour>
      <point x="2022" y="636"/>
      <point x="1989" y="657" type="qcurve" smooth="yes"/>
      <point x="1957" y="678"/>
      <point x="1944" y="695" type="qcurve"/>
      <point x="1940" y="699"/>
      <point x="1924" y="737" type="qcurve" smooth="yes"/>
      <point x="1914" y="762"/>
      <point x="1882" y="785" type="qcurve" smooth="yes"/>
      <point x="1862" y="800"/>
      <point x="1795" y="832"/>
      <point x="1745" y="848" type="qcurve" smooth="yes"/>
      <point x="1622" y="889"/>
      <point x="1605" y="896" type="qcurve"/>
      <point x="1545" y="933"/>
      <point x="1457" y="994"/>
      <point x="1428" y="1015" type="qcurve"/>
      <point x="887" y="1015" type="line"/>
      <point x="883" y="1013"/>
      <point x="843" y="983"/>
      <point x="805" y="955" type="qcurve" smooth="yes"/>
      <point x="776" y="934"/>
      <point x="729" y="905"/>
      <point x="718" y="900" type="qcurve"/>
      <point x="694" y="888"/>
      <point x="570" y="848" type="qcurve" smooth="yes"/>
      <point x="521" y="832"/>
      <point x="455" y="800"/>
      <point x="432" y="783" type="qcurve" smooth="yes"/>
      <point x="402" y="760"/>
      <point x="391" y="737" type="qcurve"/>
      <point x="377" y="700"/>
      <point x="372" y="695" type="qcurve"/>
      <point x="360" y="677"/>
      <point x="327" y="657" type="qcurve" smooth="yes"/>
      <point x="295" y="637"/>
      <point x="287" y="622" type="qcurve"/>
      <point x="389" y="628"/>
      <point x="419" y="644" type="qcurve"/>
      <point x="439" y="654"/>
      <point x="461" y="683" type="qcurve" smooth="yes"/>
      <point x="482" y="712"/>
      <point x="505" y="728" type="qcurve"/>
      <point x="537" y="749"/>
      <point x="608" y="769" type="qcurve" smooth="yes"/>
      <point x="689" y="794"/>
      <point x="710" y="804" type="qcurve" smooth="yes"/>
      <point x="825" y="860"/>
      <point x="878" y="884" type="qcurve"/>
      <point x="1438" y="884" type="line"/>
      <point x="1489" y="859"/>
      <point x="1572" y="819"/>
      <point x="1605" y="804" type="qcurve"/>
      <point x="1617" y="797"/>
      <point x="1668" y="780"/>
      <point x="1708" y="769" type="qcurve" smooth="yes"/>
      <point x="1778" y="749"/>
      <point x="1809" y="729" type="qcurve"/>
      <point x="1836" y="709"/>
      <point x="1857" y="682" type="qcurve" smooth="yes"/>
      <point x="1880" y="653"/>
      <point x="1903" y="641" type="qcurve" smooth="yes"/>
      <point x="1927" y="628"/>
      <point x="1970" y="623" type="qcurve"/>
      <point x="1985" y="623"/>
      <point x="1986" y="623" type="qcurve" smooth="yes"/>
      <point x="2014" y="623"/>
      <point x="2028" y="622" type="qcurve"/>
    </contour>
  </outline>
</glyph>
<glyph name="uni06F4.urdusmall" format="2">
  <advance width="536"/>
  <outline>
    <contour>
      <point x="335" y="334" type="line"/>
      <point x="287" y="427"/>
      <point x="221" y="427" type="qcurve"/>
      <point x="197" y="417"/>
      <point x="199" y="386" type="qcurve" smooth="yes"/>
      <point x="201" y="360"/>
      <point x="224" y="323" type="qcurve" smooth="yes"/>
      <point x="258" y="270"/>
      <point x="257" y="268" type="qcurve"/>
      <point x="292" y="198"/>
      <point x="292" y="108" type="qcurve" smooth="yes"/>
      <point x="292" y="27"/>
      <point x="265" y="0" type="qcurve"/>
      <point x="264" y="1"/>
      <point x="245" y="104" type="qcurve"/>
      <point x="217" y="193" type="line" smooth="yes"/>
      <point x="208" y="221"/>
      <point x="179" y="283"/>
      <point x="158" y="318" type="qcurve"/>
      <point x="149" y="329"/>
      <point x="132" y="352"/>
      <point x="118" y="375"/>
      <point x="110" y="400"/>
      <point x="111" y="413" type="qcurve" smooth="yes"/>
      <point x="112" y="432"/>
      <point x="129" y="464"/>
      <point x="158" y="488"/>
      <point x="195" y="502"/>
      <point x="217" y="502" type="qcurve" smooth="yes"/>
      <point x="279" y="502"/>
      <point x="324" y="454" type="qcurve"/>
      <point x="328" y="448"/>
      <point x="336" y="435"/>
      <point x="344" y="422"/>
      <point x="348" y="413"/>
      <point x="349" y="413" type="qcurve" smooth="yes"/>
      <point x="360" y="413"/>
      <point x="405" y="465" type="qcurve" smooth="yes"/>
      <point x="443" y="510"/>
      <point x="457" y="517" type="qcurve"/>
      <point x="453" y="458"/>
      <point x="434" y="424" type="qcurve"/>
      <point x="425" y="410"/>
      <point x="390" y="375" type="qcurve" smooth="yes"/>
      <point x="356" y="341"/>
      <point x="341" y="331" type="qcurve"/>
    </contour>
  </outline>
</glyph>
<glyph name="uniFB95_uniFEFC.alt1.liga" format="2">
  <advance width="1864"/>
  <outline>
    <contour>
      <point x="917" y="1508" type="qcurve"/>
      <point x="921" y="1471"/>
      <point x="930" y="1398"/>
      <point x="928" y="1361" type="qcurve"/>
      <point x="929" y="1359" type="line"/>
      <point x="927" y="1333"/>
      <point x="933" y="1282"/>
      <point x="939" y="1231"/>
      <point x="945" y="1178"/>
      <point x="943" y="1153" type="qcurve"/>
      <point x="944" y="1151" type="line"/>
      <point x="942" y="1126"/>
      <point x="948" y="1075"/>
      <point x="955" y="1023"/>
      <point x="960" y="972"/>
      <point x="958" y="946" type="qcurve"/>
      <point x="959" y="944" type="line"/>
      <point x="958" y="920"/>
      <point x="963" y="873"/>
      <point x="970" y="825"/>
      <point x="975" y="777"/>
      <point x="973" y="753" type="qcurve"/>
      <point x="974" y="751" type="line"/>
      <point x="974" y="740" type="line" smooth="yes"/>
      <point x="974" y="726"/>
      <point x="976" y="698"/>
      <point x="980" y="669"/>
      <point x="983" y="641"/>
      <point x="982" y="626" type="qcurve"/>
      <point x="988" y="640"/>
      <point x="1007" y="693"/>
      <point x="1029" y="747"/>
      <point x="1050" y="794"/>
      <point x="1063" y="809" type="qcurve" smooth="yes"/>
      <point x="1073" y="820"/>
      <point x="1114" y="856"/>
      <point x="1158" y="890"/>
      <point x="1202" y="922"/>
      <point x="1221" y="937" type="qcurve" smooth="yes"/>
      <point x="1401" y="1075"/>
      <point x="1768" y="1332"/>
      <point x="1959" y="1454" type="qcurve"/>
      <point x="1959" y="1448" type="line"/>
      <point x="1924" y="1291" type="line"/>
      <point x="1820" y="1231"/>
      <point x="1623" y="1093"/>
      <point x="1431" y="944"/>
      <point x="1245" y="791"/>
      <point x="1152" y="716" type="qcurve"/>
      <point x="1196" y="708"/>
      <point x="1290" y="653"/>
      <point x="1389" y="573"/>
      <point x="1490" y="476"/>
      <point x="1588" y="378"/>
      <point x="1682" y="287"/>
      <point x="1765" y="215"/>
      <point x="1837" y="172"/>
      <point x="1864" y="173" type="qcurve"/>
      <point x="1864" y="0" type="line"/>
      <point x="1861" y="0" type="line" smooth="yes"/>
      <point x="1824" y="0"/>
      <point x="1751" y="32"/>
      <point x="1679" y="85"/>
      <point x="1610" y="150"/>
      <point x="1548" y="222"/>
      <point x="1494" y="287"/>
      <point x="1472" y="311" type="qcurve"/>
      <point x="1449" y="278"/>
      <point x="1417" y="209"/>
      <point x="1386" y="141"/>
      <point x="1350" y="83"/>
      <point x="1301" y="39"/>
      <point x="1231" y="13"/>
      <point x="1186" y="13" type="qcurve" smooth="yes"/>
      <point x="1120" y="13"/>
      <point x="1029" y="74"/>
      <point x="966" y="168"/>
      <point x="932" y="282"/>
      <point x="932" y="333" type="qcurve"/>
      <point x="931" y="335" type="line"/>
      <point x="928" y="360" type="line"/>
      <point x="927" y="362" type="line"/>
      <point x="919" y="425"/>
      <point x="906" y="546"/>
      <point x="900" y="609" type="qcurve"/>
      <point x="898" y="607" type="line"/>
      <point x="870" y="481"/>
      <point x="771" y="255"/>
      <point x="617" y="80"/>
      <point x="404" y="-22"/>
      <point x="263" y="-22" type="qcurve" smooth="yes"/>
      <point x="240" y="-22"/>
      <point x="177" y="-7"/>
      <point x="113" y="19"/>
      <point x="57" y="52"/>
      <point x="43" y="69" type="qcurve"/>
      <point x="40" y="70" type="line"/>
      <point x="48" y="72" type="line"/>
      <point x="73" y="74"/>
      <point x="122" y="74"/>
      <point x="147" y="74" type="qcurve" smooth="yes"/>
      <point x="197" y="74"/>
      <point x="298" y="97"/>
      <point x="397" y="132"/>
      <point x="493" y="173"/>
      <point x="539" y="193" type="qcurve"/>
      <point x="561" y="264"/>
      <point x="567" y="414"/>
      <point x="567" y="488" type="qcurve"/>
      <point x="566" y="490" type="line"/>
      <point x="563" y="579"/>
      <point x="527" y="752"/>
      <point x="464" y="915"/>
      <point x="380" y="1070"/>
      <point x="329" y="1142" type="qcurve"/>
      <point x="315" y="1141" type="line"/>
      <point x="280" y="1141"/>
      <point x="234" y="1169"/>
      <point x="207" y="1213"/>
      <point x="195" y="1271"/>
      <point x="195" y="1300" type="qcurve" smooth="yes"/>
      <point x="195" y="1316" type="line"/>
      <point x="196" y="1318" type="line"/>
      <point x="199" y="1351"/>
      <point x="225" y="1410"/>
      <point x="241" y="1437" type="qcurve"/>
      <point x="283" y="1409"/>
      <point x="376" y="1306"/>
      <point x="466" y="1174"/>
      <point x="546" y="1023"/>
      <point x="606" y="876"/>
      <point x="638" y="741"/>
      <point x="634" y="691" type="qcurve"/>
      <point x="635" y="689" type="line"/>
      <point x="635" y="678" type="line" smooth="yes"/>
      <point x="635" y="655"/>
      <point x="638" y="610"/>
      <point x="637" y="587" type="qcurve" smooth="yes"/>
      <point x="635" y="549" type="line"/>
      <point x="634" y="547" type="line"/>
      <point x="637" y="521"/>
      <point x="620" y="434"/>
      <point x="595" y="337"/>
      <point x="569" y="246"/>
      <point x="562" y="216" type="qcurve"/>
      <point x="648" y="273"/>
      <point x="764" y="403"/>
      <point x="837" y="553"/>
      <point x="872" y="725"/>
      <point x="872" y="824" type="qcurve"/>
      <point x="871" y="826" type="line"/>
      <point x="871" y="847"/>
      <point x="868" y="889"/>
      <point x="869" y="910" type="qcurve"/>
      <point x="868" y="912" type="line"/>
      <point x="867" y="929"/>
      <point x="864" y="963"/>
      <point x="865" y="980" type="qcurve"/>
      <point x="864" y="982" type="line"/>
      <point x="864" y="996" type="line" smooth="yes"/>
      <point x="864" y="1022"/>
      <point x="858" y="1075"/>
      <point x="857" y="1100" type="qcurve"/>
      <point x="856" y="1101"/>
      <point x="853" y="1140"/>
      <point x="850" y="1188"/>
      <point x="848" y="1208" type="qcurve" smooth="yes"/>
      <point x="846" y="1227" type="line"/>
      <point x="846" y="1267"/>
      <point x="834" y="1349"/>
      <point x="834" y="1390" type="qcurve"/>
      <point x="855" y="1419"/>
      <point x="897" y="1478"/>
    </contour>
    <contour>
      <point x="993" y="575" type="line" smooth="yes"/>
      <point x="993" y="539"/>
      <point x="1000" y="453"/>
      <point x="1020" y="366"/>
      <point x="1054" y="286"/>
      <point x="1106" y="223"/>
      <point x="1176" y="186"/>
      <point x="1212" y="186" type="qcurve" smooth="yes"/>
      <point x="1237" y="186"/>
      <point x="1296" y="207"/>
      <point x="1354" y="237"/>
      <point x="1398" y="271"/>
      <point x="1398" y="297" type="qcurve" smooth="yes"/>
      <point x="1398" y="324"/>
      <point x="1357" y="398"/>
      <point x="1290" y="463"/>
      <point x="1203" y="518"/>
      <point x="1113" y="559"/>
      <point x="1026" y="581"/>
      <point x="993" y="583" type="qcurve"/>
    </contour>
    <contour>
      <point x="1741" y="1614" type="line"/>
      <point x="1739" y="1579"/>
      <point x="1723" y="1506"/>
      <point x="1714" y="1471" type="qcurve"/>
      <point x="1712" y="1464"/>
      <point x="1660" y="1417"/>
      <point x="1575" y="1348"/>
      <point x="1467" y="1261"/>
      <point x="1349" y="1172"/>
      <point x="1234" y="1083"/>
      <point x="1136" y="1008"/>
      <point x="1063" y="953"/>
      <point x="1048" y="941" type="qcurve"/>
      <point x="1048" y="952"/>
      <point x="1059" y="1011"/>
      <point x="1077" y="1075"/>
      <point x="1097" y="1130"/>
      <point x="1105" y="1135" type="qcurve"/>
    </contour>
  </outline>
</glyph>
